<?xml version="1.0" encoding="UTF-8"?>
<svg width="532px" height="235px" viewBox="0 0 532 235" version="1.1" xmlns="http://www.w3.org/2000/svg" xmlns:xlink="http://www.w3.org/1999/xlink">
    <!-- Generator: Sketch 60 (88103) - https://sketch.com -->
    <title>Group 5</title>
    <desc>Created with Sketch.</desc>
    <defs>
        <path d="M117.849059,234.501348 C182.604818,234.501348 235.099733,182.006433 235.099733,117.250674 C235.099733,52.4949148 182.604818,0 117.849059,0 C53.0932999,0 0.598385118,52.4949148 0.598385118,117.250674 C0.598385118,182.006433 53.0932999,234.501348 117.849059,234.501348 Z" id="path-1"></path>
    </defs>
    <g id="New-UX" stroke="none" stroke-width="1" fill="none" fill-rule="evenodd">
        <g id="customer-master-401-option2" transform="translate(-429.000000, -180.000000)">
            <g id="Group" transform="translate(419.000000, 74.000000)">
                <g id="Rectangle" transform="translate(0.409704, 0.000000)">
                    <g id="Group-4" transform="translate(0.401615, 0.000000)">
                        <g id="Group-5" transform="translate(0.188682, 0.000000)">
                            <g id="Group-3" transform="translate(187.811318, 106.000000)">
                                <mask id="mask-2" fill="white">
                                    <use xlink:href="#path-1"></use>
                                </mask>
                                <use id="Mask" fill="#1F496A" fill-rule="nonzero" xlink:href="#path-1"></use>
                                <path d="M26.4034054,130.925939 C31.6839483,131.868723 37.4353746,132.663233 43.6576843,133.309468 C104.576232,139.636329 141.336106,95.8947524 183.571483,82.1212727 C209.024996,73.8205665 235.857631,78.3584607 264.069388,95.7349552 C269.684938,99.1937472 273.105126,105.317243 273.105126,111.912517 L273.105126,210.144465 C273.105126,218.613893 272.223283,221.685112 270.567365,224.781408 C268.911448,227.877705 266.481457,230.307696 263.38516,231.963613 C260.288864,233.619531 257.217645,234.501374 248.748217,234.501374 L6.3569094,234.501374 C-2.11251863,234.501374 -5.18373789,233.619531 -8.28003418,231.963613 C-11.3763305,230.307696 -13.8063219,227.877705 -15.4622393,224.781408 C-17.1181567,221.685112 -18,218.613893 -18,210.144465 L-18,168.103725 C-18,147.246299 -1.0917155,130.338014 19.7657105,130.338014 C21.9912775,130.338014 24.2124886,130.534745 26.4034054,130.925939 Z" id="Rectangle" fill="#0095E6" mask="url(#mask-2)"></path>
                                <g id="login(4)" mask="url(#mask-2)" fill="#FFFFFF" fill-rule="nonzero">
                                    <g transform="translate(43.188682, 42.000000)">
                                        <path d="M38.5253906,138.28125 L17.7811523,138.28125 C15.2797852,138.28125 13.7707031,136.885254 13.0939453,136.05293 C11.9255859,134.615625 11.4729492,132.745312 11.8529297,130.92041 C17.9375977,101.693555 43.7305664,80.3493164 73.5067383,79.6567383 C74.0027344,79.6751953 74.4999023,79.6875 75,79.6875 C75.5044922,79.6875 76.0060547,79.6749023 76.5064453,79.6561523 C83.7875977,79.8222656 90.899707,81.1913086 97.6693359,83.7333984 C100.698633,84.871582 104.076855,83.3373047 105.214453,80.3077148 C106.352051,77.278418 104.818359,73.9001953 101.78877,72.7625977 C100.81875,72.3981445 99.8419922,72.0571289 98.8605469,71.7336914 C108.558105,64.4592773 114.84375,52.8717773 114.84375,39.84375 C114.84375,17.8740234 96.9700195,0 75,0 C53.0299805,0 35.15625,17.8740234 35.15625,39.84375 C35.15625,52.8834961 41.4527344,64.4800781 51.1649414,71.7533203 C42.2671875,74.6824219 33.9175781,79.2375 26.6103516,85.2480469 C13.2123047,96.2686523 3.89677734,111.64043 0.380273437,128.532129 C-0.721875,133.824902 0.598242187,139.26123 4.00224609,143.446582 C7.38896484,147.611426 12.4113281,150 17.7811523,150 L38.5253906,150 C41.7615234,150 44.3847656,147.376758 44.3847656,144.140625 C44.3847656,140.904492 41.7615234,138.28125 38.5253906,138.28125 Z M46.875,39.84375 C46.875,24.3354492 59.4916992,11.71875 75,11.71875 C90.5083008,11.71875 103.125,24.3354492 103.125,39.84375 C103.125,54.8926758 91.2439453,67.2181641 76.3693359,67.9350586 C75.9131836,67.9268555 75.4570312,67.9198242 75,67.9198242 C74.5417969,67.9198242 74.0838867,67.9265625 73.6262695,67.9350586 C58.7537109,67.2158203 46.875,54.8912109 46.875,39.84375 Z" id="Shape"></path>
                                        <path d="M145.514355,100.959082 C143.00625,95.3487305 137.356641,91.7135742 131.107324,91.6992188 L112.834277,91.6992188 C112.821094,91.6992188 112.808789,91.6992188 112.795312,91.6992188 C106.203516,91.6992188 100.452539,95.5839844 98.1383789,101.603613 C97.8304688,102.40459 97.4540039,103.413574 97.0611328,104.589844 L58.6980469,104.589844 C57.1139648,104.589844 55.5975586,105.231152 54.4939453,106.367578 L44.4287109,116.735156 C42.2118164,119.018555 42.2229492,122.654004 44.4536133,124.923633 L54.7075195,135.356836 C55.809082,136.477734 57.3149414,137.109082 58.8864258,137.109082 L77.9293945,137.109082 C81.1655273,137.109082 83.7887695,134.48584 83.7887695,131.249707 C83.7887695,128.013574 81.1655273,125.390332 77.9293945,125.390332 L61.3432617,125.390332 L56.8233398,120.791309 L61.1759766,116.308594 L101.456543,116.308594 C104.155957,116.308594 106.505859,114.464355 107.147754,111.842578 C107.621777,109.906934 108.216504,108.045996 109.07666,105.808594 C109.643848,104.333203 111.068262,103.417969 112.809375,103.417969 C112.813184,103.417969 112.816992,103.417969 112.820801,103.417969 L131.093555,103.417969 C132.750586,103.421777 134.176758,104.312402 134.815723,105.741797 C136.388672,109.260937 138.266895,114.708984 138.280957,120.679102 C138.29502,126.693457 136.418848,132.266309 134.841797,135.882422 C134.206055,137.34082 132.767871,138.28125 131.162109,138.28125 C131.158887,138.28125 131.155664,138.28125 131.152441,138.28125 L112.658789,138.28125 C111.037793,138.277441 109.519336,137.234473 108.880664,135.686133 C108.19541,134.024707 107.601562,132.127734 107.065137,129.88623 C106.311914,126.73916 103.149023,124.798535 100.003125,125.551465 C96.8557617,126.304687 94.9151367,129.466699 95.6683594,132.61377 C96.3483398,135.455273 97.1267578,137.921777 98.0475586,140.154199 C100.508203,146.120215 106.232812,149.984766 112.645312,149.999707 L131.138965,149.999707 C131.151562,149.999707 131.163281,149.999707 131.175879,149.999707 C137.431055,149.999707 143.08418,146.299512 145.584082,140.56582 C147.609082,135.921973 150.01875,128.697363 149.999819,120.65127 C149.980957,112.627148 147.550195,105.513574 145.514355,100.959082 Z" id="Path"></path>
                                        <polygon id="Path" points="122 117.5 117.5 113 113 117.5 117.5 122 113 126.5 117.5 131 122 126.5 126.5 131 131 126.5 126.5 122 131 117.5 126.5 113"></polygon>
                                    </g>
                                </g>
                            </g>
                            <g id="Group-2" fill="#1F496A" font-family="Roboto-Black, Roboto" font-size="320" font-weight="700">
                                <text id="4">
                                    <tspan x="0" y="335">4</tspan>
                                </text>
                                <text id="1" letter-spacing="15.8709691">
                                    <tspan x="415" y="335">1</tspan>
                                </text>
                            </g>
                        </g>
                    </g>
                </g>
            </g>
        </g>
    </g>
</svg>