<?xml version="1.0" encoding="UTF-8"?>
<svg width="585px" height="237px" viewBox="0 0 585 237" version="1.1" xmlns="http://www.w3.org/2000/svg" xmlns:xlink="http://www.w3.org/1999/xlink">
    <!-- Generator: Sketch 60 (88103) - https://sketch.com -->
    <title>Group</title>
    <desc>Created with Sketch.</desc>
    <defs>
        <path d="M117.250674,234.501348 C182.006433,234.501348 234.501348,182.006433 234.501348,117.250674 C234.501348,52.4949148 182.006433,0 117.250674,0 C52.4949148,0 0,52.4949148 0,117.250674 C0,182.006433 52.4949148,234.501348 117.250674,234.501348 Z" id="path-1"></path>
    </defs>
    <g id="New-UX" stroke="none" stroke-width="1" fill="none" fill-rule="evenodd">
        <g id="customer-master-403" transform="translate(-418.000000, -178.000000)">
            <g id="Group" transform="translate(409.000000, 74.000000)">
                <g id="Group-3" transform="translate(188.811318, 106.000000)">
                    <mask id="mask-2" fill="white">
                        <use xlink:href="#path-1"></use>
                    </mask>
                    <use id="Mask" fill="#1F496A" fill-rule="nonzero" xlink:href="#path-1"></use>
                    <path d="M25.4034054,130.925939 C30.6839483,131.868723 36.4353746,132.663233 42.6576843,133.309468 C103.576232,139.636329 140.336106,95.8947524 182.571483,82.1212727 C208.024996,73.8205665 234.857631,78.3584607 263.069388,95.7349552 C268.684938,99.1937472 272.105126,105.317243 272.105126,111.912517 L272.105126,210.144465 C272.105126,218.613893 271.223283,221.685112 269.567365,224.781408 C267.911448,227.877705 265.481457,230.307696 262.38516,231.963613 C259.288864,233.619531 256.217645,234.501374 247.748217,234.501374 L5.3569094,234.501374 C-3.11251863,234.501374 -6.18373789,233.619531 -9.28003418,231.963613 C-12.3763305,230.307696 -14.8063219,227.877705 -16.4622393,224.781408 C-18.1181567,221.685112 -19,218.613893 -19,210.144465 L-19,168.103725 C-19,147.246299 -2.0917155,130.338014 18.7657105,130.338014 C20.9912775,130.338014 23.2124886,130.534745 25.4034054,130.925939 Z" id="Rectangle" fill="#0095E6" mask="url(#mask-2)"></path>
                    <g id="lock" transform="translate(55.000000, 33.000000)" fill="#FFFFFF" fill-rule="nonzero">
                        <path d="M120.312393,61.875 L109.999893,61.875 L109.999893,48.1248926 C109.999893,21.5885742 88.4116406,0 61.875,0 C35.3383594,0 13.7501074,21.5885742 13.7501074,48.1248926 L13.7501074,61.875 L3.43760742,61.875 C1.5375293,61.875 0,63.4125293 0,65.3126074 L0,151.250215 C0,158.833447 6.16655273,165 13.7501074,165 L110.000215,165 C117.583447,165 123.75,158.833447 123.75,151.249893 L123.75,65.3126074 C123.75,63.4125293 122.212471,61.875 120.312393,61.875 Z M72.1675195,133.683193 C72.274834,134.653213 71.9628809,135.626777 71.311582,136.35542 C70.6602832,137.08374 69.727002,137.500107 68.7502148,137.500107 L55.0001074,137.500107 C54.0233203,137.500107 53.0900391,137.08374 52.4387402,136.35542 C51.7874414,135.6271 51.475166,134.653535 51.5828027,133.683193 L53.7513281,114.1829 C50.2299316,111.621533 48.1252148,107.569687 48.1252148,103.125 C48.1252148,95.5417676 54.2917676,89.3748926 61.8753223,89.3748926 C69.458877,89.3748926 75.6254297,95.5414453 75.6254297,103.125 C75.6254297,107.569687 73.5207129,111.621533 69.9993164,114.1829 L72.1675195,133.683193 Z M89.3748926,61.875 L34.3751074,61.875 L34.3751074,48.1248926 C34.3751074,32.9616504 46.7117578,20.625 61.875,20.625 C77.0382422,20.625 89.3748926,32.9616504 89.3748926,48.1248926 L89.3748926,61.875 L89.3748926,61.875 Z" id="Shape"></path>
                    </g>
                </g>
                <text id="4" font-family="Roboto-Black, Roboto" font-size="320" font-weight="700" fill="#1F496A">
                    <tspan x="0" y="335">4</tspan>
                </text>
                <text id="3" font-family="Roboto-Black, Roboto" font-size="320" font-weight="700" letter-spacing="15.8709691" fill="#1F496A">
                    <tspan x="421" y="335">3</tspan>
                </text>
            </g>
        </g>
    </g>
</svg>