<?xml version="1.0" encoding="UTF-8"?>
<svg width="600px" height="235px" viewBox="0 0 600 235" version="1.1" xmlns="http://www.w3.org/2000/svg" xmlns:xlink="http://www.w3.org/1999/xlink">
    <!-- Generator: Sketch 60 (88103) - https://sketch.com -->
    <title>Group</title>
    <desc>Created with Sketch.</desc>
    <defs>
        <path d="M117.250674,0 C182.006433,0 234.501348,52.4949148 234.501348,117.250674 C234.501348,182.006433 182.006433,234.501348 117.250674,234.501348 C52.4949148,234.501348 0,182.006433 0,117.250674 C0,52.4949148 52.4949148,0 117.250674,0 Z M117.250674,146.563342 C101.061734,146.563342 87.9380054,159.687071 87.9380054,175.876011 C87.9380054,192.06495 101.061734,205.188679 117.250674,205.188679 C133.439613,205.188679 146.563342,192.06495 146.563342,175.876011 C146.563342,159.687071 133.439613,146.563342 117.250674,146.563342 Z M171.58327,81.8865046 L161.219677,92.2500977 L150.856083,81.8865046 L140.49249,92.2500977 L150.856083,102.613691 L140.49249,112.977284 L150.856083,123.340878 L161.219677,112.977284 L171.58327,123.340878 L181.946863,112.977284 L171.58327,102.613691 L181.946863,92.2500977 L171.58327,81.8865046 Z M83.6452648,81.8865046 L73.2816712,92.2500977 L62.9180776,81.8865046 L52.5544845,92.2500977 L62.9180776,102.613691 L52.5544845,112.977284 L62.9180776,123.340878 L73.2816712,112.977284 L83.6452648,123.340878 L94.0088578,112.977284 L83.6452648,102.613691 L94.0088578,92.2500977 L83.6452648,81.8865046 Z" id="path-1"></path>
    </defs>
    <g id="New-UX" stroke="none" stroke-width="1" fill="none" fill-rule="evenodd">
        <g id="customer-master-404-option2-copy-2" transform="translate(-420.000000, -180.000000)">
            <g id="Group" transform="translate(420.000000, 180.000000)">
                <path d="M145.299865,141.629464 L168.674191,141.629464 L168.674191,182.69247 L145.299865,182.69247 L145.299865,231.494272 L92.0758929,231.494272 L92.0758929,182.69247 L3.15869272,182.69247 L0,150.157935 L92.0758929,2.01524596 L92.0758929,1.54144205 L145.299865,1.54144205 L145.299865,141.629464 Z M50.6970182,141.629464 L92.0758929,141.629464 L92.0758929,70.8747473 L88.7592655,76.2445249 L50.6970182,141.629464 Z M576.524596,141.629464 L599.898922,141.629464 L599.898922,182.69247 L576.524596,182.69247 L576.524596,231.494272 L523.300623,231.494272 L523.300623,182.69247 L434.383423,182.69247 L431.22473,150.157935 L523.300623,2.01524596 L523.300623,1.54144205 L576.524596,1.54144205 L576.524596,141.629464 Z M481.921749,141.629464 L523.300623,141.629464 L523.300623,70.8747473 L519.983996,76.2445249 L481.921749,141.629464 Z" id="404" fill="#1F496A"></path>
                <g id="Rectangle" transform="translate(188.409704, 0.000000)">
                    <mask id="mask-2" fill="white">
                        <use xlink:href="#path-1"></use>
                    </mask>
                    <use id="Mask" fill="#1F496A" fill-rule="nonzero" xlink:href="#path-1"></use>
                    <path d="M25.8050203,130.925939 C31.0855632,131.868723 36.8369895,132.663233 43.0592992,133.309468 C103.977847,139.636329 140.737721,95.8947524 182.973097,82.1212727 C208.426611,73.8205665 235.259246,78.3584607 263.471003,95.7349552 C269.086553,99.1937472 272.506741,105.317243 272.506741,111.912517 L272.506741,210.144465 C272.506741,218.613893 271.624898,221.685112 269.96898,224.781408 C268.313063,227.877705 265.883071,230.307696 262.786775,231.963613 C259.690479,233.619531 256.61926,234.501374 248.149832,234.501374 L5.75852428,234.501374 C-2.71090375,234.501374 -5.78212301,233.619531 -8.8784193,231.963613 C-11.9747156,230.307696 -14.4047071,227.877705 -16.0606244,224.781408 C-17.7165418,221.685112 -18.5983851,218.613893 -18.5983851,210.144465 L-18.5983851,168.103725 C-18.5983851,147.246299 -1.69010062,130.338014 19.1673253,130.338014 C21.3928924,130.338014 23.6141034,130.534745 25.8050203,130.925939 Z" fill="#0095E6" mask="url(#mask-2)"></path>
                </g>
            </g>
        </g>
    </g>
</svg>