<?xml version="1.0" encoding="UTF-8"?>
<svg width="30px" height="25px" viewBox="0 0 30 25" version="1.1" xmlns="http://www.w3.org/2000/svg" xmlns:xlink="http://www.w3.org/1999/xlink">
    <!-- Generator: Sketch 55.2 (78181) - https://sketchapp.com -->
    <title>burger</title>
    <desc>Created with Sketch.</desc>
    <g id="Final-Screens" stroke="none" stroke-width="1" fill="none" fill-rule="evenodd">
        <g id="customer-master-import-file-error-copy" transform="translate(-15.000000, -23.000000)" fill="#FFFFFF">
            <g id="Group">
                <g id="Icons-/-Burger" transform="translate(30.000000, 35.500000) scale(-1, 1) translate(-30.000000, -35.500000) translate(15.000000, 22.000000)">
                    <path d="M29.45,1.35 C29.754,1.35 30,1.60363983 30,1.91631356 C30,2.22898729 29.754,2.4822839 29.45,2.4822839 L0.55,2.4822839 C0.246,2.4822839 0,2.22933051 0,1.91631356 C0,1.60329661 0.246,1.35 0.55,1.35 L29.45,1.35 Z M29.45,9.07245763 C29.754,9.07245763 30,9.32609746 30,9.63877119 C30,9.95144492 29.754,10.2047415 29.45,10.2047415 L8.05,10.2047415 C7.746,10.2047415 7.5,9.95144492 7.5,9.63877119 C7.5,9.32609746 7.746,9.07245763 8.05,9.07245763 L29.45,9.07245763 Z M29.45,16.7949153 C29.754,16.7949153 30,17.0482119 30,17.3612288 C30,17.6739025 29.754,17.9275424 29.45,17.9275424 L0.55,17.9275424 C0.246,17.9275424 0,17.6739025 0,17.3612288 C0,17.0482119 0.246,16.7949153 0.55,16.7949153 L29.45,16.7949153 Z M29.45,24.5170297 C29.754,24.5170297 30,24.7703263 30,25.0833432 C30,25.3963602 29.754,25.65 29.45,25.65 L8.05,25.65 C7.746,25.65 7.5,25.3963602 7.5,25.0833432 C7.5,24.7703263 7.746,24.5170297 8.05,24.5170297 L29.45,24.5170297 Z" id="Shape"></path>
                </g>
            </g>
        </g>
    </g>
</svg>