<?xml version="1.0" encoding="UTF-8"?>
<svg version="1.1" viewBox="0 0 28 28" xmlns="http://www.w3.org/2000/svg">
<title>error(3)</title>
<desc>Created with Sketch.</desc>
<g fill="none" fill-rule="evenodd">
<g transform="translate(-1016 -216)" fill="#fff" fill-rule="nonzero">
<g transform="translate(377 200)">
<g transform="translate(639 16)">
<path d="m23.893 4.0939c-5.4584-5.4584-14.34-5.4589-19.799 0-5.4589 5.4589-5.4584 14.34 0 19.799 5.4584 5.4589 14.34 5.4589 19.799 0 5.4584-5.4589 5.4584-14.341 0-19.799zm-4.3788 15.42c-0.42054 0.42054-1.1022 0.42054-1.5228 0l-3.9981-3.9981-4.1882 4.1882c-0.42054 0.42054-1.1022 0.42054-1.5228 0-0.42054-0.42054-0.42054-1.1022 0-1.5228l4.1882-4.1882-3.9981-3.9981c-0.42054-0.42054-0.42054-1.1028 0-1.5228 0.42054-0.42054 1.1022-0.42054 1.5228 0l3.9981 3.9981 3.8075-3.8075c0.42054-0.42054 1.1022-0.42054 1.5228 0 0.42054 0.42054 0.42054 1.1022 0 1.5228l-3.8075 3.8075 3.9981 3.9981c0.42054 0.42054 0.42054 1.1022 0 1.5228z"/>
</g>
</g>
</g>
</g>
</svg>
