<?xml version="1.0" encoding="UTF-8"?>
<svg width="16px" height="16px" viewBox="0 0 16 16" version="1.1" xmlns="http://www.w3.org/2000/svg" xmlns:xlink="http://www.w3.org/1999/xlink">
    <!-- Generator: Sketch 55.2 (78181) - https://sketchapp.com -->
    <title>Icons/24px/Close</title>
    <desc>Created with Sketch.</desc>
    <g id="Final-Screens" stroke="none" stroke-width="1" fill="none" fill-rule="evenodd" opacity="0.75">
        <g id="customer-master-fields-and-precisions-2" transform="translate(-1000.000000, -112.000000)" fill="#0095E6">
            <g id="Icons/24px/Close" transform="translate(996.000000, 108.000000)">
                <g id="e-remove" transform="translate(5.000000, 5.000000)">
                    <path d="M8.06066017,7 L14.5303301,13.4696699 C14.8232233,13.7625631 14.8232233,14.2374369 14.5303301,14.5303301 C14.2374369,14.8232233 13.7625631,14.8232233 13.4696699,14.5303301 L7,8.06066017 L0.530330086,14.5303301 C0.237436867,14.8232233 -0.237436867,14.8232233 -0.530330086,14.5303301 C-0.823223305,14.2374369 -0.823223305,13.7625631 -0.530330086,13.4696699 L5.93933983,7 L-0.530330086,0.530330086 C-0.823223305,0.237436867 -0.823223305,-0.237436867 -0.530330086,-0.530330086 C-0.237436867,-0.823223305 0.237436867,-0.823223305 0.530330086,-0.530330086 L7,5.93933983 L13.4696699,-0.530330086 C13.7625631,-0.823223305 14.2374369,-0.823223305 14.5303301,-0.530330086 C14.8232233,-0.237436867 14.8232233,0.237436867 14.5303301,0.530330086 L8.06066017,7 Z" id="Combined-Shape" fill-rule="nonzero"></path>
                </g>
            </g>
        </g>
    </g>
</svg>