<?xml version="1.0" encoding="UTF-8"?>
<svg width="628px" height="501px" viewBox="0 0 628 501" version="1.1" xmlns="http://www.w3.org/2000/svg" xmlns:xlink="http://www.w3.org/1999/xlink">
    <!-- Generator: Sketch 59 (86127) - https://sketch.com -->
    <title>Group 6</title>
    <desc>Created with Sketch.</desc>
    <defs>
        <path d="M73.6968056,253.98971 C73.6968056,253.98971 71.9786414,252.99499 69.0176604,251.133565 C68.2571048,249.94855 67.4948207,248.749696 66.7325366,247.550841 C51.8118194,223.997592 33.6621982,191.901856 31.9025492,172.727106 C30.8239432,161.16413 31.3874457,147.898884 31.9284773,135.074775 C33.064125,108.180995 34.239529,80.3634216 21.0024053,64.9478499 C0.762984848,41.429199 0.0923131313,1.72514936 0.0836704545,0.0401794507 L3.04119444,0.00558047926 C3.03946591,0.412118394 3.7187803,40.3272218 23.235673,63.0310669 C37.2506376,79.3098829 36.0493056,107.722558 34.8860013,135.206251 C34.3415126,147.926563 33.7918384,161.098392 34.8462449,172.453774 C36.5920657,191.299834 55.578298,225.080539 73.2646717,252.382588 C73.5481515,253.427477 73.6968056,253.98971 73.6968056,253.98971" id="path-1"></path>
        <path d="M460.805122,335.993072 L400.891475,335.993072 C401.371821,332.428701 401.622361,328.786392 401.622361,325.090392 C401.622361,292.787629 382.64697,264.930804 355.258615,252.105649 L367.573094,238.030021 L402.646983,240.014845 L430.605533,201.357526 L428.715251,199.984082 L401.504866,237.605691 L366.567478,235.629526 L353.029672,251.104577 C343.29662,246.904577 332.570047,244.578557 321.300925,244.578557 C314.710855,244.578557 308.30394,245.375258 302.17521,246.875134 L296.388597,246.875134 L296.388597,248.527423 C264.222701,259.035216 240.979489,289.341031 240.979489,325.090392 C240.979489,328.786392 241.230029,332.428701 241.710375,335.993072 L0.212156884,335.993072 L0.212156884,0.384494845 L460.805122,0.384494845 L460.805122,335.993072" id="path-3"></path>
        <linearGradient x1="0%" y1="50%" x2="99.9996249%" y2="50%" id="linearGradient-5">
            <stop stop-color="#FFFFFF" offset="0%"></stop>
            <stop stop-color="#F1F5FF" offset="100%"></stop>
        </linearGradient>
        <linearGradient x1="116.244636%" y1="50%" x2="-8.39710693%" y2="50%" id="linearGradient-6">
            <stop stop-color="#FF9F54" offset="0%"></stop>
            <stop stop-color="#FFD254" offset="100%"></stop>
        </linearGradient>
        <path d="M159.64294,91.9930566 L20.2057415,91.9930566 C25.4373083,78.0993208 32.3581454,67.0246038 40.1942912,58.2030189 L63.1304452,58.2030189 L63.1304452,53.2732075 L44.9001157,53.2732075 C52.5173458,45.8489811 60.7982179,40.2890566 69.1170123,36.1369057 L78.4959101,38.1834717 C78.4597115,38.8326792 78.5097001,39.4975094 78.6527709,40.1623396 C79.4008764,43.6375094 82.4639716,46.0190943 85.8597497,46.0190943 C86.3751495,46.0190943 86.8974444,45.9635472 87.4214629,45.850717 C91.3964194,44.9827925 93.9303249,41.0215849 93.0684523,37.0204528 C92.8098905,35.8140377 92.272082,34.7395472 91.5377665,33.8507925 L97.9207951,26.5203019 C107.415184,24.6889811 115.777072,24.2341887 121.742954,24.2341887 C127.632992,24.2341887 131.187354,24.6768302 131.187354,24.6768302 C125.264566,19.2470943 118.481628,14.7512453 111.069524,11.4184151 L114.118829,7.91720755 C141.441915,20.7711698 160.372085,48.690566 160.372085,81.0658868 C160.372085,84.7701887 160.122142,88.4206792 159.64294,91.9930566 L159.64294,91.9930566 Z M108.130538,42.8650566 L133.55578,42.8650566 L133.55578,37.9352453 L108.130538,37.9352453 L108.130538,42.8650566 Z M5.31258279,91.9930566 L0.84118767,91.9930566 C0.361986498,88.4206792 0.11204344,84.7701887 0.11204344,81.0658868 C0.11204344,45.2362264 23.2998642,14.8623396 55.3891054,4.3309434 L55.3891054,7.60649057 L59.931174,7.60649057 C33.5578721,14.9855849 12.9798016,36.3799245 6.60194422,63.3220377 L2.25982999,67.4481509 L3.85774182,69.1527547 L5.76420404,67.3422642 C4.96093876,71.7929811 4.54034493,76.3808302 4.54034493,81.0658868 C4.54034493,84.7753962 4.80407795,88.4241509 5.31258279,91.9930566 L5.31258279,91.9930566 Z M78.9923487,35.8921509 L72.5731215,34.4913208 C79.9421324,31.1498113 87.278392,28.8619623 94.1320031,27.3135849 L89.7847176,32.3058868 C88.6298083,31.5750943 87.2766683,31.1636981 85.8631972,31.1636981 C85.3477974,31.1636981 84.8237788,31.2175094 84.2997603,31.3320755 C81.7951585,31.8788679 79.8645638,33.6529057 78.9923487,35.8921509 L78.9923487,35.8921509 Z M108.816589,10.4498113 C100.165111,6.89479245 90.7172638,4.90724528 80.8143474,4.83433962 L80.8143474,2.6749434 L61.1619281,2.6749434 C67.2760524,1.17169811 73.6676997,0.373207547 80.242064,0.373207547 C91.4843304,0.373207547 102.185341,2.70445283 111.895198,6.91388679 L108.816589,10.4498113 L108.816589,10.4498113 Z" id="path-7"></path>
        <linearGradient x1="-149.877382%" y1="-83.5641613%" x2="136.840124%" y2="-83.5641613%" id="linearGradient-9">
            <stop stop-color="#F8F8F8" offset="0%"></stop>
            <stop stop-color="#EBEEF8" offset="100%"></stop>
        </linearGradient>
        <polyline id="path-10" points="145.082332 49.4627916 0.209398964 24.7514215 4.40256995 0.0747266687 149.277233 24.7878306 145.082332 49.4627916"></polyline>
        <linearGradient x1="100%" y1="50%" x2="-0.000812649469%" y2="50%" id="linearGradient-12">
            <stop stop-color="#FF9F54" offset="0%"></stop>
            <stop stop-color="#FFD254" offset="100%"></stop>
        </linearGradient>
        <path d="M15.7905453,87.3802591 L0.838420956,87.3802591 C0.327902822,83.8156358 0.0631256196,80.1712591 0.0631256196,76.4662007 C0.0631256196,71.7867656 0.485384687,67.2044215 1.29183028,62.7590449 L34.7731671,31.1091423 C36.0935919,32.2430254 37.7982033,32.9035903 39.5945349,32.9035903 C40.1119754,32.9035903 40.6380686,32.8498436 41.1641619,32.735415 C43.8794261,32.1476682 45.9232292,30.1278306 46.6812189,27.6364085 L64.8954676,31.5911293 C56.543737,35.7382981 48.230079,41.2915513 40.5826904,48.7068695 L33.3592914,48.7068695 L33.3592914,53.6307656 L35.8582344,53.6307656 C27.9910634,62.4417656 21.0428251,73.5031942 15.7905453,87.3802591 M2.13288728,58.7436423 C8.53599609,31.8338565 29.1955401,10.4651877 55.6732603,3.09494745 L76.6391153,3.09494745 L76.6391153,0.326122773 C86.5812396,0.398940954 96.0664935,2.38410329 104.752224,5.93485654 L90.0094987,22.7783955 C83.1287526,24.324915 75.7634469,26.6100189 68.3652603,29.9475189 L46.9996438,25.3096942 C46.9892603,24.8485124 46.9338821,24.3821293 46.833509,23.9157461 C46.0824417,20.4447461 43.0072189,18.0660189 39.5979961,18.0660189 C39.0805557,18.0660189 38.556193,18.1214994 38.0300997,18.235928 C34.0394054,19.1010773 31.4954676,23.0575319 32.3607526,27.0555968 C32.5390013,27.877402 32.8470427,28.6385254 33.2589184,29.3216293 L2.13288728,58.7436423 M93.8132914,21.9860643 L107.014079,6.9022981 C114.45553,10.2311293 121.265323,14.7215838 127.211561,20.1448046 C127.211561,20.1448046 123.643126,19.7026942 117.729768,19.7026942 C111.740266,19.7026942 103.345271,20.156941 93.8132914,21.9860643" id="path-13"></path>
        <linearGradient x1="-193.152493%" y1="-92.95971%" x2="169.661912%" y2="-92.95971%" id="linearGradient-15">
            <stop stop-color="#D5DCE8" offset="0%"></stop>
            <stop stop-color="#CDD4E8" offset="100%"></stop>
        </linearGradient>
    </defs>
    <g id="New-UX" stroke="none" stroke-width="1" fill="none" fill-rule="evenodd">
        <g id="customer-master-Landing-page" transform="translate(-747.000000, -161.000000)">
            <g id="Group-6" transform="translate(747.000000, 141.000000)">
                <g id="Group-352" transform="translate(27.000000, 0.000000)">
                    <mask id="mask-2" fill="white">
                        <use xlink:href="#path-1"></use>
                    </mask>
                    <g id="Clip-351"></g>
                    <path d="M73.6968056,253.98971 C73.6968056,253.98971 71.9786414,252.99499 69.0176604,251.133565 C68.2571048,249.94855 67.4948207,248.749696 66.7325366,247.550841 C51.8118194,223.997592 33.6621982,191.901856 31.9025492,172.727106 C30.8239432,161.16413 31.3874457,147.898884 31.9284773,135.074775 C33.064125,108.180995 34.239529,80.3634216 21.0024053,64.9478499 C0.762984848,41.429199 0.0923131313,1.72514936 0.0836704545,0.0401794507 L3.04119444,0.00558047926 C3.03946591,0.412118394 3.7187803,40.3272218 23.235673,63.0310669 C37.2506376,79.3098829 36.0493056,107.722558 34.8860013,135.206251 C34.3415126,147.926563 33.7918384,161.098392 34.8462449,172.453774 C36.5920657,191.299834 55.578298,225.080539 73.2646717,252.382588 C73.5481515,253.427477 73.6968056,253.98971 73.6968056,253.98971" id="Fill-350" mask="url(#mask-2)"></path>
                </g>
                <polygon id="Fill-357" fill="#AEBECC" points="266 501 324 501 324 325 266 325"></polygon>
                <path d="M69.4811529,411 L519.517115,411 C533.591511,411 545,399.603639 545,385.548069 L545,83.4502012 C545,69.3946312 533.591511,58 519.517115,58 L69.4811529,58 C55.408489,58 44,69.3946312 44,83.4502012 L44,385.548069 C44,399.603639 55.408489,411 69.4811529,411" id="Fill-358" fill="#DEDEDE"></path>
                <g id="Group-361" transform="translate(64.000000, 20.000000)">
                    <mask id="mask-4" fill="white">
                        <use xlink:href="#path-3"></use>
                    </mask>
                    <g id="Clip-360"></g>
                    <path d="M460.805122,335.993072 L400.891475,335.993072 C401.371821,332.428701 401.622361,328.786392 401.622361,325.090392 C401.622361,292.787629 382.64697,264.930804 355.258615,252.105649 L367.573094,238.030021 L402.646983,240.014845 L430.605533,201.357526 L428.715251,199.984082 L401.504866,237.605691 L366.567478,235.629526 L353.029672,251.104577 C343.29662,246.904577 332.570047,244.578557 321.300925,244.578557 C314.710855,244.578557 308.30394,245.375258 302.17521,246.875134 L296.388597,246.875134 L296.388597,248.527423 C264.222701,259.035216 240.979489,289.341031 240.979489,325.090392 C240.979489,328.786392 241.230029,332.428701 241.710375,335.993072 L0.212156884,335.993072 L0.212156884,0.384494845 L460.805122,0.384494845 L460.805122,335.993072" id="Fill-359" fill="url(#linearGradient-5)" mask="url(#mask-4)"></path>
                </g>
                <polygon id="Fill-362" fill="url(#linearGradient-6)" points="64 61 525 61 525 21 64 21"></polygon>
                <path d="M278,380.998285 C278,389.835155 285.163898,397 294,397 C302.836102,397 310,389.835155 310,380.998285 C310,372.16313 302.836102,365 294,365 C285.163898,365 278,372.16313 278,380.998285" id="Fill-364" fill="#949494"></path>
                <polygon id="Fill-365" fill="#E3E3E3" points="164 508 425 508 425 495 164 495"></polygon>
                <path d="M143.481483,49 L88.5185166,49 C85.4702262,49 83,46.4237901 83,43.2487562 L83,38.7512438 C83,35.5744007 85.4702262,33 88.5185166,33 L143.481483,33 C146.529774,33 149,35.5744007 149,38.7512438 L149,43.2487562 C149,46.4237901 146.529774,49 143.481483,49" id="Fill-366" fill="#F5F7FF"></path>
                <polyline id="Fill-413" fill="#323657" points="96.011 338.001 95.989 337.999 96.011 338.001"></polyline>
                <path d="M34,276 C34,276 20.7753911,276.992663 33.5932551,296 L34,276" id="Fill-414" fill="#323657"></path>
                <path d="M192.416734,115 L141.583869,115 C141.261443,115 141,115.718871 141,116.605423 L141,122.394577 C141,123.282789 141.261443,124 141.583869,124 L192.416734,124 C192.738557,124 193,123.282789 193,122.394577 L193,116.605423 C193,115.718871 192.738557,115 192.416734,115" id="Fill-420-Copy" fill="#E0E0E0"></path>
                <path d="M192.416734,136 L141.583869,136 C141.261443,136 141,136.718871 141,137.605423 L141,143.394577 C141,144.282789 141.261443,145 141.583869,145 L192.416734,145 C192.738557,145 193,144.282789 193,143.394577 L193,137.605423 C193,136.718871 192.738557,136 192.416734,136" id="Fill-420-Copy-5" fill="#E0E0E0"></path>
                <g id="Group-3" transform="translate(79.000000, 156.000000)" fill="#E0E0E0">
                    <path d="M113.466529,1.42108547e-13 L62.7900729,1.42108547e-13 C62.4686386,1.42108547e-13 62.208,0.750533333 62.208,1.67613333 L62.208,7.72026667 C62.208,8.6476 62.4686386,9.3964 62.7900729,9.3964 L113.466529,9.3964 C113.787361,9.3964 114.048,8.6476 114.048,7.72026667 L114.048,1.67613333 C114.048,0.750533333 113.787361,1.42108547e-13 113.466529,1.42108547e-13" id="Fill-420-Copy-9"></path>
                    <path d="M113.466529,20.8 L62.7900729,20.8 C62.4686386,20.8 62.208,21.5505333 62.208,22.4761333 L62.208,28.5202667 C62.208,29.4476 62.4686386,30.1964 62.7900729,30.1964 L113.466529,30.1964 C113.787361,30.1964 114.048,29.4476 114.048,28.5202667 L114.048,22.4761333 C114.048,21.5505333 113.787361,20.8 113.466529,20.8" id="Fill-420-Copy-13"></path>
                    <path d="M113.466529,41.6 L62.7900729,41.6 C62.4686386,41.6 62.208,42.3505333 62.208,43.2761333 L62.208,49.3202667 C62.208,50.2476 62.4686386,50.9964 62.7900729,50.9964 L113.466529,50.9964 C113.787361,50.9964 114.048,50.2476 114.048,49.3202667 L114.048,43.2761333 C114.048,42.3505333 113.787361,41.6 113.466529,41.6" id="Fill-420-Copy-17"></path>
                    <path d="M237.882529,1.42108547e-13 L187.206073,1.42108547e-13 C186.884639,1.42108547e-13 186.624,0.750533333 186.624,1.67613333 L186.624,7.72026667 C186.624,8.6476 186.884639,9.3964 187.206073,9.3964 L237.882529,9.3964 C238.203361,9.3964 238.464,8.6476 238.464,7.72026667 L238.464,1.67613333 C238.464,0.750533333 238.203361,1.42108547e-13 237.882529,1.42108547e-13" id="Fill-420-Copy-10"></path>
                    <path d="M237.882529,20.8 L187.206073,20.8 C186.884639,20.8 186.624,21.5505333 186.624,22.4761333 L186.624,28.5202667 C186.624,29.4476 186.884639,30.1964 187.206073,30.1964 L237.882529,30.1964 C238.203361,30.1964 238.464,29.4476 238.464,28.5202667 L238.464,22.4761333 C238.464,21.5505333 238.203361,20.8 237.882529,20.8" id="Fill-420-Copy-14"></path>
                    <path d="M237.882529,41.6 L187.206073,41.6 C186.884639,41.6 186.624,42.3505333 186.624,43.2761333 L186.624,49.3202667 C186.624,50.2476 186.884639,50.9964 187.206073,50.9964 L237.882529,50.9964 C238.203361,50.9964 238.464,50.2476 238.464,49.3202667 L238.464,43.2761333 C238.464,42.3505333 238.203361,41.6 237.882529,41.6" id="Fill-420-Copy-18"></path>
                    <path d="M362.298529,1.42108547e-13 L311.622073,1.42108547e-13 C311.300639,1.42108547e-13 311.04,0.750533333 311.04,1.67613333 L311.04,7.72026667 C311.04,8.6476 311.300639,9.3964 311.622073,9.3964 L362.298529,9.3964 C362.619361,9.3964 362.88,8.6476 362.88,7.72026667 L362.88,1.67613333 C362.88,0.750533333 362.619361,1.42108547e-13 362.298529,1.42108547e-13" id="Fill-420-Copy-11"></path>
                    <path d="M362.298529,20.8 L311.622073,20.8 C311.300639,20.8 311.04,21.5505333 311.04,22.4761333 L311.04,28.5202667 C311.04,29.4476 311.300639,30.1964 311.622073,30.1964 L362.298529,30.1964 C362.619361,30.1964 362.88,29.4476 362.88,28.5202667 L362.88,22.4761333 C362.88,21.5505333 362.619361,20.8 362.298529,20.8" id="Fill-420-Copy-15"></path>
                    <path d="M362.298529,41.6 L311.622073,41.6 C311.300639,41.6 311.04,42.3505333 311.04,43.2761333 L311.04,49.3202667 C311.04,50.2476 311.300639,50.9964 311.622073,50.9964 L362.298529,50.9964 C362.619361,50.9964 362.88,50.2476 362.88,49.3202667 L362.88,43.2761333 C362.88,42.3505333 362.619361,41.6 362.298529,41.6" id="Fill-420-Copy-19"></path>
                    <path d="M431.341,1.42108547e-13 L373.907683,1.42108547e-13 C373.54339,1.42108547e-13 373.248,0.750533333 373.248,1.67613333 L373.248,7.72026667 C373.248,8.6476 373.54339,9.3964 373.907683,9.3964 L431.341,9.3964 C431.70461,9.3964 432,8.6476 432,7.72026667 L432,1.67613333 C432,0.750533333 431.70461,1.42108547e-13 431.341,1.42108547e-13" id="Fill-420-Copy-12"></path>
                    <path d="M431.341,20.8 L373.907683,20.8 C373.54339,20.8 373.248,21.5505333 373.248,22.4761333 L373.248,28.5202667 C373.248,29.4476 373.54339,30.1964 373.907683,30.1964 L431.341,30.1964 C431.70461,30.1964 432,29.4476 432,28.5202667 L432,22.4761333 C432,21.5505333 431.70461,20.8 431.341,20.8" id="Fill-420-Copy-16"></path>
                    <path d="M431.341,41.6 L373.907683,41.6 C373.54339,41.6 373.248,42.3505333 373.248,43.2761333 L373.248,49.3202667 C373.248,50.2476 373.54339,50.9964 373.907683,50.9964 L431.341,50.9964 C431.70461,50.9964 432,50.2476 432,49.3202667 L432,43.2761333 C432,42.3505333 431.70461,41.6 431.341,41.6" id="Fill-420-Copy-20"></path>
                    <path d="M50.2403676,1.42108547e-13 L1.5996324,1.42108547e-13 C0.716278001,1.42108547e-13 0,0.750533333 0,1.67613333 L0,7.72026667 C0,8.64586667 0.716278001,9.3964 1.5996324,9.3964 L50.2403676,9.3964 C51.123722,9.3964 51.84,8.64586667 51.84,7.72026667 L51.84,1.67613333 C51.84,0.750533333 51.123722,1.42108547e-13 50.2403676,1.42108547e-13" id="Fill-421-Copy-6"></path>
                    <path d="M50.2403676,20.8 L1.5996324,20.8 C0.716278001,20.8 0,21.5505333 0,22.4761333 L0,28.5202667 C0,29.4458667 0.716278001,30.1964 1.5996324,30.1964 L50.2403676,30.1964 C51.123722,30.1964 51.84,29.4458667 51.84,28.5202667 L51.84,22.4761333 C51.84,21.5505333 51.123722,20.8 50.2403676,20.8" id="Fill-421-Copy-9"></path>
                    <path d="M50.2403676,41.6 L1.5996324,41.6 C0.716278001,41.6 0,42.3505333 0,43.2761333 L0,49.3202667 C0,50.2458667 0.716278001,50.9964 1.5996324,50.9964 L50.2403676,50.9964 C51.123722,50.9964 51.84,50.2458667 51.84,49.3202667 L51.84,43.2761333 C51.84,42.3505333 51.123722,41.6 50.2403676,41.6" id="Fill-421-Copy-12"></path>
                    <path d="M174.656368,1.42108547e-13 L126.015632,1.42108547e-13 C125.132278,1.42108547e-13 124.416,0.750533333 124.416,1.67613333 L124.416,7.72026667 C124.416,8.64586667 125.132278,9.3964 126.015632,9.3964 L174.656368,9.3964 C175.539722,9.3964 176.256,8.64586667 176.256,7.72026667 L176.256,1.67613333 C176.256,0.750533333 175.539722,1.42108547e-13 174.656368,1.42108547e-13" id="Fill-421-Copy-7"></path>
                    <path d="M174.656368,20.8 L126.015632,20.8 C125.132278,20.8 124.416,21.5505333 124.416,22.4761333 L124.416,28.5202667 C124.416,29.4458667 125.132278,30.1964 126.015632,30.1964 L174.656368,30.1964 C175.539722,30.1964 176.256,29.4458667 176.256,28.5202667 L176.256,22.4761333 C176.256,21.5505333 175.539722,20.8 174.656368,20.8" id="Fill-421-Copy-10"></path>
                    <path d="M174.656368,41.6 L126.015632,41.6 C125.132278,41.6 124.416,42.3505333 124.416,43.2761333 L124.416,49.3202667 C124.416,50.2458667 125.132278,50.9964 126.015632,50.9964 L174.656368,50.9964 C175.539722,50.9964 176.256,50.2458667 176.256,49.3202667 L176.256,43.2761333 C176.256,42.3505333 175.539722,41.6 174.656368,41.6" id="Fill-421-Copy-13"></path>
                    <path d="M299.072368,1.42108547e-13 L250.431632,1.42108547e-13 C249.548278,1.42108547e-13 248.832,0.750533333 248.832,1.67613333 L248.832,7.72026667 C248.832,8.64586667 249.548278,9.3964 250.431632,9.3964 L299.072368,9.3964 C299.955722,9.3964 300.672,8.64586667 300.672,7.72026667 L300.672,1.67613333 C300.672,0.750533333 299.955722,1.42108547e-13 299.072368,1.42108547e-13" id="Fill-421-Copy-8"></path>
                    <path d="M299.072368,20.8 L250.431632,20.8 C249.548278,20.8 248.832,21.5505333 248.832,22.4761333 L248.832,28.5202667 C248.832,29.4458667 249.548278,30.1964 250.431632,30.1964 L299.072368,30.1964 C299.955722,30.1964 300.672,29.4458667 300.672,28.5202667 L300.672,22.4761333 C300.672,21.5505333 299.955722,20.8 299.072368,20.8" id="Fill-421-Copy-11"></path>
                    <path d="M299.072368,41.6 L250.431632,41.6 C249.548278,41.6 248.832,42.3505333 248.832,43.2761333 L248.832,49.3202667 C248.832,50.2458667 249.548278,50.9964 250.431632,50.9964 L299.072368,50.9964 C299.955722,50.9964 300.672,50.2458667 300.672,49.3202667 L300.672,43.2761333 C300.672,42.3505333 299.955722,41.6 299.072368,41.6" id="Fill-421-Copy-14"></path>
                </g>
                <g id="Group-3-Copy" transform="translate(79.000000, 219.000000)" fill="#E0E0E0">
                    <path d="M113.466529,1.42108547e-13 L62.7900729,1.42108547e-13 C62.4686386,1.42108547e-13 62.208,0.750533333 62.208,1.67613333 L62.208,7.72026667 C62.208,8.6476 62.4686386,9.3964 62.7900729,9.3964 L113.466529,9.3964 C113.787361,9.3964 114.048,8.6476 114.048,7.72026667 L114.048,1.67613333 C114.048,0.750533333 113.787361,1.42108547e-13 113.466529,1.42108547e-13" id="Fill-420-Copy-9"></path>
                    <path d="M113.466529,20.8 L62.7900729,20.8 C62.4686386,20.8 62.208,21.5505333 62.208,22.4761333 L62.208,28.5202667 C62.208,29.4476 62.4686386,30.1964 62.7900729,30.1964 L113.466529,30.1964 C113.787361,30.1964 114.048,29.4476 114.048,28.5202667 L114.048,22.4761333 C114.048,21.5505333 113.787361,20.8 113.466529,20.8" id="Fill-420-Copy-13"></path>
                    <path d="M113.466529,41.6 L62.7900729,41.6 C62.4686386,41.6 62.208,42.3505333 62.208,43.2761333 L62.208,49.3202667 C62.208,50.2476 62.4686386,50.9964 62.7900729,50.9964 L113.466529,50.9964 C113.787361,50.9964 114.048,50.2476 114.048,49.3202667 L114.048,43.2761333 C114.048,42.3505333 113.787361,41.6 113.466529,41.6" id="Fill-420-Copy-17"></path>
                    <path d="M237.882529,1.42108547e-13 L187.206073,1.42108547e-13 C186.884639,1.42108547e-13 186.624,0.750533333 186.624,1.67613333 L186.624,7.72026667 C186.624,8.6476 186.884639,9.3964 187.206073,9.3964 L237.882529,9.3964 C238.203361,9.3964 238.464,8.6476 238.464,7.72026667 L238.464,1.67613333 C238.464,0.750533333 238.203361,1.42108547e-13 237.882529,1.42108547e-13" id="Fill-420-Copy-10"></path>
                    <path d="M237.882529,20.8 L187.206073,20.8 C186.884639,20.8 186.624,21.5505333 186.624,22.4761333 L186.624,28.5202667 C186.624,29.4476 186.884639,30.1964 187.206073,30.1964 L237.882529,30.1964 C238.203361,30.1964 238.464,29.4476 238.464,28.5202667 L238.464,22.4761333 C238.464,21.5505333 238.203361,20.8 237.882529,20.8" id="Fill-420-Copy-14"></path>
                    <path d="M237.882529,41.6 L187.206073,41.6 C186.884639,41.6 186.624,42.3505333 186.624,43.2761333 L186.624,49.3202667 C186.624,50.2476 186.884639,50.9964 187.206073,50.9964 L237.882529,50.9964 C238.203361,50.9964 238.464,50.2476 238.464,49.3202667 L238.464,43.2761333 C238.464,42.3505333 238.203361,41.6 237.882529,41.6" id="Fill-420-Copy-18"></path>
                    <path d="M362.298529,1.42108547e-13 L311.622073,1.42108547e-13 C311.300639,1.42108547e-13 311.04,0.750533333 311.04,1.67613333 L311.04,7.72026667 C311.04,8.6476 311.300639,9.3964 311.622073,9.3964 L362.298529,9.3964 C362.619361,9.3964 362.88,8.6476 362.88,7.72026667 L362.88,1.67613333 C362.88,0.750533333 362.619361,1.42108547e-13 362.298529,1.42108547e-13" id="Fill-420-Copy-11"></path>
                    <path d="M362.298529,20.8 L311.622073,20.8 C311.300639,20.8 311.04,21.5505333 311.04,22.4761333 L311.04,28.5202667 C311.04,29.4476 311.300639,30.1964 311.622073,30.1964 L362.298529,30.1964 C362.619361,30.1964 362.88,29.4476 362.88,28.5202667 L362.88,22.4761333 C362.88,21.5505333 362.619361,20.8 362.298529,20.8" id="Fill-420-Copy-15"></path>
                    <path d="M362.298529,41.6 L311.622073,41.6 C311.300639,41.6 311.04,42.3505333 311.04,43.2761333 L311.04,49.3202667 C311.04,50.2476 311.300639,50.9964 311.622073,50.9964 L362.298529,50.9964 C362.619361,50.9964 362.88,50.2476 362.88,49.3202667 L362.88,43.2761333 C362.88,42.3505333 362.619361,41.6 362.298529,41.6" id="Fill-420-Copy-19"></path>
                    <path d="M431.341,1.42108547e-13 L373.907683,1.42108547e-13 C373.54339,1.42108547e-13 373.248,0.750533333 373.248,1.67613333 L373.248,7.72026667 C373.248,8.6476 373.54339,9.3964 373.907683,9.3964 L431.341,9.3964 C431.70461,9.3964 432,8.6476 432,7.72026667 L432,1.67613333 C432,0.750533333 431.70461,1.42108547e-13 431.341,1.42108547e-13" id="Fill-420-Copy-12"></path>
                    <path d="M431.341,20.8 L373.907683,20.8 C373.54339,20.8 373.248,21.5505333 373.248,22.4761333 L373.248,28.5202667 C373.248,29.4476 373.54339,30.1964 373.907683,30.1964 L431.341,30.1964 C431.70461,30.1964 432,29.4476 432,28.5202667 L432,22.4761333 C432,21.5505333 431.70461,20.8 431.341,20.8" id="Fill-420-Copy-16"></path>
                    <path d="M431.341,41.6 L373.907683,41.6 C373.54339,41.6 373.248,42.3505333 373.248,43.2761333 L373.248,49.3202667 C373.248,50.2476 373.54339,50.9964 373.907683,50.9964 L431.341,50.9964 C431.70461,50.9964 432,50.2476 432,49.3202667 L432,43.2761333 C432,42.3505333 431.70461,41.6 431.341,41.6" id="Fill-420-Copy-20"></path>
                    <path d="M50.2403676,1.42108547e-13 L1.5996324,1.42108547e-13 C0.716278001,1.42108547e-13 0,0.750533333 0,1.67613333 L0,7.72026667 C0,8.64586667 0.716278001,9.3964 1.5996324,9.3964 L50.2403676,9.3964 C51.123722,9.3964 51.84,8.64586667 51.84,7.72026667 L51.84,1.67613333 C51.84,0.750533333 51.123722,1.42108547e-13 50.2403676,1.42108547e-13" id="Fill-421-Copy-6"></path>
                    <path d="M50.2403676,20.8 L1.5996324,20.8 C0.716278001,20.8 0,21.5505333 0,22.4761333 L0,28.5202667 C0,29.4458667 0.716278001,30.1964 1.5996324,30.1964 L50.2403676,30.1964 C51.123722,30.1964 51.84,29.4458667 51.84,28.5202667 L51.84,22.4761333 C51.84,21.5505333 51.123722,20.8 50.2403676,20.8" id="Fill-421-Copy-9"></path>
                    <path d="M50.2403676,41.6 L1.5996324,41.6 C0.716278001,41.6 0,42.3505333 0,43.2761333 L0,49.3202667 C0,50.2458667 0.716278001,50.9964 1.5996324,50.9964 L50.2403676,50.9964 C51.123722,50.9964 51.84,50.2458667 51.84,49.3202667 L51.84,43.2761333 C51.84,42.3505333 51.123722,41.6 50.2403676,41.6" id="Fill-421-Copy-12"></path>
                    <path d="M174.656368,1.42108547e-13 L126.015632,1.42108547e-13 C125.132278,1.42108547e-13 124.416,0.750533333 124.416,1.67613333 L124.416,7.72026667 C124.416,8.64586667 125.132278,9.3964 126.015632,9.3964 L174.656368,9.3964 C175.539722,9.3964 176.256,8.64586667 176.256,7.72026667 L176.256,1.67613333 C176.256,0.750533333 175.539722,1.42108547e-13 174.656368,1.42108547e-13" id="Fill-421-Copy-7"></path>
                    <path d="M174.656368,20.8 L126.015632,20.8 C125.132278,20.8 124.416,21.5505333 124.416,22.4761333 L124.416,28.5202667 C124.416,29.4458667 125.132278,30.1964 126.015632,30.1964 L174.656368,30.1964 C175.539722,30.1964 176.256,29.4458667 176.256,28.5202667 L176.256,22.4761333 C176.256,21.5505333 175.539722,20.8 174.656368,20.8" id="Fill-421-Copy-10"></path>
                    <path d="M174.656368,41.6 L126.015632,41.6 C125.132278,41.6 124.416,42.3505333 124.416,43.2761333 L124.416,49.3202667 C124.416,50.2458667 125.132278,50.9964 126.015632,50.9964 L174.656368,50.9964 C175.539722,50.9964 176.256,50.2458667 176.256,49.3202667 L176.256,43.2761333 C176.256,42.3505333 175.539722,41.6 174.656368,41.6" id="Fill-421-Copy-13"></path>
                    <path d="M299.072368,1.42108547e-13 L250.431632,1.42108547e-13 C249.548278,1.42108547e-13 248.832,0.750533333 248.832,1.67613333 L248.832,7.72026667 C248.832,8.64586667 249.548278,9.3964 250.431632,9.3964 L299.072368,9.3964 C299.955722,9.3964 300.672,8.64586667 300.672,7.72026667 L300.672,1.67613333 C300.672,0.750533333 299.955722,1.42108547e-13 299.072368,1.42108547e-13" id="Fill-421-Copy-8"></path>
                    <path d="M299.072368,20.8 L250.431632,20.8 C249.548278,20.8 248.832,21.5505333 248.832,22.4761333 L248.832,28.5202667 C248.832,29.4458667 249.548278,30.1964 250.431632,30.1964 L299.072368,30.1964 C299.955722,30.1964 300.672,29.4458667 300.672,28.5202667 L300.672,22.4761333 C300.672,21.5505333 299.955722,20.8 299.072368,20.8" id="Fill-421-Copy-11"></path>
                    <path d="M299.072368,41.6 L250.431632,41.6 C249.548278,41.6 248.832,42.3505333 248.832,43.2761333 L248.832,49.3202667 C248.832,50.2458667 249.548278,50.9964 250.431632,50.9964 L299.072368,50.9964 C299.955722,50.9964 300.672,50.2458667 300.672,49.3202667 L300.672,43.2761333 C300.672,42.3505333 299.955722,41.6 299.072368,41.6" id="Fill-421-Copy-14"></path>
                </g>
                <g id="Group-3-Copy-2" transform="translate(79.000000, 281.000000)" fill="#E0E0E0">
                    <path d="M113.466529,1.42108547e-13 L62.7900729,1.42108547e-13 C62.4686386,1.42108547e-13 62.208,0.750533333 62.208,1.67613333 L62.208,7.72026667 C62.208,8.6476 62.4686386,9.3964 62.7900729,9.3964 L113.466529,9.3964 C113.787361,9.3964 114.048,8.6476 114.048,7.72026667 L114.048,1.67613333 C114.048,0.750533333 113.787361,1.42108547e-13 113.466529,1.42108547e-13" id="Fill-420-Copy-9"></path>
                    <path d="M113.466529,20.8 L62.7900729,20.8 C62.4686386,20.8 62.208,21.5505333 62.208,22.4761333 L62.208,28.5202667 C62.208,29.4476 62.4686386,30.1964 62.7900729,30.1964 L113.466529,30.1964 C113.787361,30.1964 114.048,29.4476 114.048,28.5202667 L114.048,22.4761333 C114.048,21.5505333 113.787361,20.8 113.466529,20.8" id="Fill-420-Copy-13"></path>
                    <path d="M113.466529,41.6 L62.7900729,41.6 C62.4686386,41.6 62.208,42.3505333 62.208,43.2761333 L62.208,49.3202667 C62.208,50.2476 62.4686386,50.9964 62.7900729,50.9964 L113.466529,50.9964 C113.787361,50.9964 114.048,50.2476 114.048,49.3202667 L114.048,43.2761333 C114.048,42.3505333 113.787361,41.6 113.466529,41.6" id="Fill-420-Copy-17"></path>
                    <path d="M237.882529,1.42108547e-13 L187.206073,1.42108547e-13 C186.884639,1.42108547e-13 186.624,0.750533333 186.624,1.67613333 L186.624,7.72026667 C186.624,8.6476 186.884639,9.3964 187.206073,9.3964 L237.882529,9.3964 C238.203361,9.3964 238.464,8.6476 238.464,7.72026667 L238.464,1.67613333 C238.464,0.750533333 238.203361,1.42108547e-13 237.882529,1.42108547e-13" id="Fill-420-Copy-10"></path>
                    <path d="M237.882529,20.8 L187.206073,20.8 C186.884639,20.8 186.624,21.5505333 186.624,22.4761333 L186.624,28.5202667 C186.624,29.4476 186.884639,30.1964 187.206073,30.1964 L237.882529,30.1964 C238.203361,30.1964 238.464,29.4476 238.464,28.5202667 L238.464,22.4761333 C238.464,21.5505333 238.203361,20.8 237.882529,20.8" id="Fill-420-Copy-14"></path>
                    <path d="M237.882529,41.6 L187.206073,41.6 C186.884639,41.6 186.624,42.3505333 186.624,43.2761333 L186.624,49.3202667 C186.624,50.2476 186.884639,50.9964 187.206073,50.9964 L237.882529,50.9964 C238.203361,50.9964 238.464,50.2476 238.464,49.3202667 L238.464,43.2761333 C238.464,42.3505333 238.203361,41.6 237.882529,41.6" id="Fill-420-Copy-18"></path>
                    <path d="M362.298529,1.42108547e-13 L311.622073,1.42108547e-13 C311.300639,1.42108547e-13 311.04,0.750533333 311.04,1.67613333 L311.04,7.72026667 C311.04,8.6476 311.300639,9.3964 311.622073,9.3964 L362.298529,9.3964 C362.619361,9.3964 362.88,8.6476 362.88,7.72026667 L362.88,1.67613333 C362.88,0.750533333 362.619361,1.42108547e-13 362.298529,1.42108547e-13" id="Fill-420-Copy-11"></path>
                    <path d="M362.298529,20.8 L311.622073,20.8 C311.300639,20.8 311.04,21.5505333 311.04,22.4761333 L311.04,28.5202667 C311.04,29.4476 311.300639,30.1964 311.622073,30.1964 L362.298529,30.1964 C362.619361,30.1964 362.88,29.4476 362.88,28.5202667 L362.88,22.4761333 C362.88,21.5505333 362.619361,20.8 362.298529,20.8" id="Fill-420-Copy-15"></path>
                    <path d="M362.298529,41.6 L311.622073,41.6 C311.300639,41.6 311.04,42.3505333 311.04,43.2761333 L311.04,49.3202667 C311.04,50.2476 311.300639,50.9964 311.622073,50.9964 L362.298529,50.9964 C362.619361,50.9964 362.88,50.2476 362.88,49.3202667 L362.88,43.2761333 C362.88,42.3505333 362.619361,41.6 362.298529,41.6" id="Fill-420-Copy-19"></path>
                    <path d="M431.341,1.42108547e-13 L373.907683,1.42108547e-13 C373.54339,1.42108547e-13 373.248,0.750533333 373.248,1.67613333 L373.248,7.72026667 C373.248,8.6476 373.54339,9.3964 373.907683,9.3964 L431.341,9.3964 C431.70461,9.3964 432,8.6476 432,7.72026667 L432,1.67613333 C432,0.750533333 431.70461,1.42108547e-13 431.341,1.42108547e-13" id="Fill-420-Copy-12"></path>
                    <path d="M431.341,20.8 L373.907683,20.8 C373.54339,20.8 373.248,21.5505333 373.248,22.4761333 L373.248,28.5202667 C373.248,29.4476 373.54339,30.1964 373.907683,30.1964 L431.341,30.1964 C431.70461,30.1964 432,29.4476 432,28.5202667 L432,22.4761333 C432,21.5505333 431.70461,20.8 431.341,20.8" id="Fill-420-Copy-16"></path>
                    <path d="M431.341,41.6 L373.907683,41.6 C373.54339,41.6 373.248,42.3505333 373.248,43.2761333 L373.248,49.3202667 C373.248,50.2476 373.54339,50.9964 373.907683,50.9964 L431.341,50.9964 C431.70461,50.9964 432,50.2476 432,49.3202667 L432,43.2761333 C432,42.3505333 431.70461,41.6 431.341,41.6" id="Fill-420-Copy-20"></path>
                    <path d="M50.2403676,1.42108547e-13 L1.5996324,1.42108547e-13 C0.716278001,1.42108547e-13 0,0.750533333 0,1.67613333 L0,7.72026667 C0,8.64586667 0.716278001,9.3964 1.5996324,9.3964 L50.2403676,9.3964 C51.123722,9.3964 51.84,8.64586667 51.84,7.72026667 L51.84,1.67613333 C51.84,0.750533333 51.123722,1.42108547e-13 50.2403676,1.42108547e-13" id="Fill-421-Copy-6"></path>
                    <path d="M50.2403676,20.8 L1.5996324,20.8 C0.716278001,20.8 0,21.5505333 0,22.4761333 L0,28.5202667 C0,29.4458667 0.716278001,30.1964 1.5996324,30.1964 L50.2403676,30.1964 C51.123722,30.1964 51.84,29.4458667 51.84,28.5202667 L51.84,22.4761333 C51.84,21.5505333 51.123722,20.8 50.2403676,20.8" id="Fill-421-Copy-9"></path>
                    <path d="M50.2403676,41.6 L1.5996324,41.6 C0.716278001,41.6 0,42.3505333 0,43.2761333 L0,49.3202667 C0,50.2458667 0.716278001,50.9964 1.5996324,50.9964 L50.2403676,50.9964 C51.123722,50.9964 51.84,50.2458667 51.84,49.3202667 L51.84,43.2761333 C51.84,42.3505333 51.123722,41.6 50.2403676,41.6" id="Fill-421-Copy-12"></path>
                    <path d="M174.656368,1.42108547e-13 L126.015632,1.42108547e-13 C125.132278,1.42108547e-13 124.416,0.750533333 124.416,1.67613333 L124.416,7.72026667 C124.416,8.64586667 125.132278,9.3964 126.015632,9.3964 L174.656368,9.3964 C175.539722,9.3964 176.256,8.64586667 176.256,7.72026667 L176.256,1.67613333 C176.256,0.750533333 175.539722,1.42108547e-13 174.656368,1.42108547e-13" id="Fill-421-Copy-7"></path>
                    <path d="M174.656368,20.8 L126.015632,20.8 C125.132278,20.8 124.416,21.5505333 124.416,22.4761333 L124.416,28.5202667 C124.416,29.4458667 125.132278,30.1964 126.015632,30.1964 L174.656368,30.1964 C175.539722,30.1964 176.256,29.4458667 176.256,28.5202667 L176.256,22.4761333 C176.256,21.5505333 175.539722,20.8 174.656368,20.8" id="Fill-421-Copy-10"></path>
                    <path d="M174.656368,41.6 L126.015632,41.6 C125.132278,41.6 124.416,42.3505333 124.416,43.2761333 L124.416,49.3202667 C124.416,50.2458667 125.132278,50.9964 126.015632,50.9964 L174.656368,50.9964 C175.539722,50.9964 176.256,50.2458667 176.256,49.3202667 L176.256,43.2761333 C176.256,42.3505333 175.539722,41.6 174.656368,41.6" id="Fill-421-Copy-13"></path>
                    <path d="M299.072368,1.42108547e-13 L250.431632,1.42108547e-13 C249.548278,1.42108547e-13 248.832,0.750533333 248.832,1.67613333 L248.832,7.72026667 C248.832,8.64586667 249.548278,9.3964 250.431632,9.3964 L299.072368,9.3964 C299.955722,9.3964 300.672,8.64586667 300.672,7.72026667 L300.672,1.67613333 C300.672,0.750533333 299.955722,1.42108547e-13 299.072368,1.42108547e-13" id="Fill-421-Copy-8"></path>
                    <path d="M299.072368,20.8 L250.431632,20.8 C249.548278,20.8 248.832,21.5505333 248.832,22.4761333 L248.832,28.5202667 C248.832,29.4458667 249.548278,30.1964 250.431632,30.1964 L299.072368,30.1964 C299.955722,30.1964 300.672,29.4458667 300.672,28.5202667 L300.672,22.4761333 C300.672,21.5505333 299.955722,20.8 299.072368,20.8" id="Fill-421-Copy-11"></path>
                    <path d="M299.072368,41.6 L250.431632,41.6 C249.548278,41.6 248.832,42.3505333 248.832,43.2761333 L248.832,49.3202667 C248.832,50.2458667 249.548278,50.9964 250.431632,50.9964 L299.072368,50.9964 C299.955722,50.9964 300.672,50.2458667 300.672,49.3202667 L300.672,43.2761333 C300.672,42.3505333 299.955722,41.6 299.072368,41.6" id="Fill-421-Copy-14"></path>
                </g>
                <path d="M316.416734,115 L265.583869,115 C265.261443,115 265,115.718871 265,116.605423 L265,122.394577 C265,123.282789 265.261443,124 265.583869,124 L316.416734,124 C316.738557,124 317,123.282789 317,122.394577 L317,116.605423 C317,115.718871 316.738557,115 316.416734,115" id="Fill-420-Copy-2" fill="#E0E0E0"></path>
                <path d="M316.416734,136 L265.583869,136 C265.261443,136 265,136.718871 265,137.605423 L265,143.394577 C265,144.282789 265.261443,145 265.583869,145 L316.416734,145 C316.738557,145 317,144.282789 317,143.394577 L317,137.605423 C317,136.718871 316.738557,136 316.416734,136" id="Fill-420-Copy-6" fill="#E0E0E0"></path>
                <path d="M441.416734,115 L390.583869,115 C390.261443,115 390,115.718871 390,116.605423 L390,122.394577 C390,123.282789 390.261443,124 390.583869,124 L441.416734,124 C441.738557,124 442,123.282789 442,122.394577 L442,116.605423 C442,115.718871 441.738557,115 441.416734,115" id="Fill-420-Copy-3" fill="#E0E0E0"></path>
                <path d="M441.416734,136 L390.583869,136 C390.261443,136 390,136.718871 390,137.605423 L390,143.394577 C390,144.282789 390.261443,145 390.583869,145 L441.416734,145 C441.738557,145 442,144.282789 442,143.394577 L442,137.605423 C442,136.718871 441.738557,136 441.416734,136" id="Fill-420-Copy-7" fill="#E0E0E0"></path>
                <path d="M510.338218,115 L452.662467,115 C452.296637,115 452,115.718871 452,116.605423 L452,122.394577 C452,123.282789 452.296637,124 452.662467,124 L510.338218,124 C510.703363,124 511,123.282789 511,122.394577 L511,116.605423 C511,115.718871 510.703363,115 510.338218,115" id="Fill-420-Copy-4" fill="#E0E0E0"></path>
                <path d="M510.338218,136 L452.662467,136 C452.296637,136 452,136.718871 452,137.605423 L452,143.394577 C452,144.282789 452.296637,145 452.662467,145 L510.338218,145 C510.703363,145 511,144.282789 511,143.394577 L511,137.605423 C511,136.718871 510.703363,136 510.338218,136" id="Fill-420-Copy-8" fill="#E0E0E0"></path>
                <path d="M128.39543,115 L79.6045695,115 C78.7184887,115 78,115.718871 78,116.605423 L78,122.394577 C78,123.281129 78.7184887,124 79.6045695,124 L128.39543,124 C129.281511,124 130,123.281129 130,122.394577 L130,116.605423 C130,115.718871 129.281511,115 128.39543,115" id="Fill-421" fill="#E0E0E0"></path>
                <path d="M128.39543,136 L79.6045695,136 C78.7184887,136 78,136.718871 78,137.605423 L78,143.394577 C78,144.281129 78.7184887,145 79.6045695,145 L128.39543,145 C129.281511,145 130,144.281129 130,143.394577 L130,137.605423 C130,136.718871 129.281511,136 128.39543,136" id="Fill-421-Copy-3" fill="#E0E0E0"></path>
                <path d="M253.39543,115 L204.60457,115 C203.718489,115 203,115.718871 203,116.605423 L203,122.394577 C203,123.281129 203.718489,124 204.60457,124 L253.39543,124 C254.281511,124 255,123.281129 255,122.394577 L255,116.605423 C255,115.718871 254.281511,115 253.39543,115" id="Fill-421-Copy" fill="#E0E0E0"></path>
                <path d="M253.39543,136 L204.60457,136 C203.718489,136 203,136.718871 203,137.605423 L203,143.394577 C203,144.281129 203.718489,145 204.60457,145 L253.39543,145 C254.281511,145 255,144.281129 255,143.394577 L255,137.605423 C255,136.718871 254.281511,136 253.39543,136" id="Fill-421-Copy-4" fill="#E0E0E0"></path>
                <path d="M378.39543,115 L329.60457,115 C328.718489,115 328,115.718871 328,116.605423 L328,122.394577 C328,123.281129 328.718489,124 329.60457,124 L378.39543,124 C379.281511,124 380,123.281129 380,122.394577 L380,116.605423 C380,115.718871 379.281511,115 378.39543,115" id="Fill-421-Copy-2" fill="#E0E0E0"></path>
                <path d="M378.39543,136 L329.60457,136 C328.718489,136 328,136.718871 328,137.605423 L328,143.394577 C328,144.281129 328.718489,145 329.60457,145 L378.39543,145 C379.281511,145 380,144.281129 380,143.394577 L380,137.605423 C380,136.718871 379.281511,136 378.39543,136" id="Fill-421-Copy-5" fill="#E0E0E0"></path>
                <polyline id="Fill-430" fill="#4AAFFF" points="308.60623 332 307 330.302519 348.554065 291.187866 390.610618 300.278549 430.781972 254.576219 465.817548 256.548546 493.104406 219 495 220.370776 466.962876 258.953022 431.790415 256.972052 391.461382 302.852427 349.264479 293.73063 308.60623 332"></polyline>
                <path d="M396.86293,300.730215 C397.563851,303.96857 395.507705,307.161971 392.269483,307.862921 C389.031261,308.563871 385.837991,306.50764 385.13707,303.27095 C384.436149,300.03093 386.492295,296.837529 389.730517,296.136579 C392.968739,295.437294 396.162009,297.491859 396.86293,300.730215" id="Fill-431" fill="#FFFFFF"></path>
                <path d="M389.986594,297.320483 C387.405229,297.878264 385.761204,300.43326 386.320664,303.012792 C386.878487,305.592324 389.432042,307.237859 392.013406,306.678443 C394.594771,306.120662 396.238796,303.567301 395.679336,300.986134 C395.121513,298.406602 392.567958,296.761066 389.986594,297.320483 M392.481258,308.840866 C388.708998,309.657091 384.975998,307.252581 384.159711,303.480608 C383.341789,299.710271 385.746482,295.97592 389.518742,295.159696 C393.291002,294.341835 397.024002,296.746345 397.840289,300.519953 C398.658211,304.29029 396.253518,308.023005 392.481258,308.840866" id="Fill-432" fill="#4AAFFF"></path>
                <path d="M436.862929,254.730548 C437.563855,257.967127 435.507696,261.160418 432.269453,261.863009 C429.032876,262.563934 425.839585,260.50611 425.136995,257.267866 C424.43607,254.031288 426.493894,250.837996 429.730471,250.137071 C432.968714,249.436145 436.162004,251.492305 436.862929,254.730548" id="Fill-433" fill="#FFFFFF"></path>
                <path d="M429.986481,251.319183 C427.404923,251.878661 425.760775,254.432305 426.31864,257.012124 C426.878141,259.595214 429.433523,261.23766 432.013445,260.681453 C434.595003,260.121974 436.239151,257.566695 435.681286,254.98524 C435.121785,252.405422 432.568039,250.759704 429.986481,251.319183 Z M432.481332,262.840845 C428.708789,263.65716 424.97551,261.252383 424.159162,257.481628 C423.342814,253.709236 425.747687,249.976107 429.518594,249.159791 C433.291137,248.34184 437.024416,250.744981 437.840764,254.519008 C438.657112,258.291399 436.253875,262.022893 432.481332,262.840845 L432.481332,262.840845 Z" id="Fill-434" fill="#4AAFFF"></path>
                <path d="M471.86293,256.730215 C472.563851,259.96857 470.507705,263.161971 467.269483,263.862921 C464.031261,264.563871 460.837991,262.50764 460.13707,259.27095 C459.436149,256.03093 461.492295,252.837529 464.730517,252.136579 C467.968739,251.437294 471.162009,253.491859 471.86293,256.730215" id="Fill-435" fill="#FFFFFF"></path>
                <path d="M464.986272,253.320483 C462.40644,253.878264 460.760713,256.43326 461.320195,259.012792 C461.878041,261.59396 464.431698,263.237859 467.013166,262.678443 C469.594634,262.120662 471.238725,259.567301 470.680879,256.986134 C470.121398,254.406602 467.56774,252.761066 464.986272,253.320483 Z M467.481037,264.840866 C463.710261,265.657091 459.975476,263.252581 459.159156,259.480608 C458.342837,255.710271 460.747626,251.97592 464.518402,251.159696 C468.290813,250.341835 472.023962,252.746345 472.840282,256.519953 C473.658238,260.29029 471.253448,264.023005 467.481037,264.840866 L467.481037,264.840866 Z" id="Fill-436" fill="#4AAFFF"></path>
                <path d="M354.86293,292.730547 C355.563851,295.968789 353.507705,299.162079 350.269483,299.863005 C347.031261,300.56393 343.837991,298.506106 343.13707,295.269529 C342.436149,292.031286 344.492295,288.837996 347.730517,288.137071 C350.968739,287.436145 354.162009,289.492304 354.86293,292.730547" id="Fill-437" fill="#FFFFFF"></path>
                <path d="M347.986802,289.31864 C345.405348,289.878141 343.761266,292.431887 344.319108,295.015081 C344.878587,297.595003 347.432231,299.240787 350.013686,298.681286 C352.593504,298.121785 354.239222,295.566403 353.679743,292.986481 C353.1219,290.404923 350.566621,288.760775 347.986802,289.31864 M350.481554,300.840764 C346.709162,301.657112 342.976032,299.253875 342.159717,295.481332 C341.341766,291.708789 343.746543,287.97551 347.518934,287.159162 C351.28969,286.342814 355.024455,288.747687 355.840771,292.518594 C356.657086,296.291137 354.253945,300.024416 350.481554,300.840764" id="Fill-438" fill="#4AAFFF"></path>
                <polygon id="Fill-439" fill="#E0E0E0" points="342 321 368 321 368 316 342 316"></polygon>
                <polygon id="Fill-440" fill="#E0E0E0" points="360 271 386 271 386 266 360 266"></polygon>
                <polygon id="Fill-441" fill="#E0E0E0" points="413 306 439 306 439 301 413 301"></polygon>
                <polygon id="Fill-443" fill="#E0E0E0" points="473 278 499 278 499 273 473 273"></polygon>
                <path d="M385.5,425 C368.601034,425 352.924158,419.829013 340,411 L431,411 C418.075842,419.829013 402.400689,425 385.5,425" id="Fill-467" fill="#F8F8F8"></path>
                <path d="M431.058507,410 L339.941493,410 C321.81267,397.513058 309.092808,377.780627 306,355 L310.476977,355 C311.74206,363.779908 314.520754,372.074719 318.54382,379.609202 L318.545546,379.609202 C320.261088,370.54718 322.58242,362.374503 325.388728,355 L465,355 C461.907192,377.780627 449.18733,397.513058 431.058507,410" id="Fill-468" fill="#DADADA"></path>
                <g id="Group-471" transform="translate(305.000000, 264.000000)">
                    <mask id="mask-8" fill="white">
                        <use xlink:href="#path-7"></use>
                    </mask>
                    <g id="Clip-470"></g>
                    <path d="M159.64294,91.9930566 L20.2057415,91.9930566 C25.4373083,78.0993208 32.3581454,67.0246038 40.1942912,58.2030189 L63.1304452,58.2030189 L63.1304452,53.2732075 L44.9001157,53.2732075 C52.5173458,45.8489811 60.7982179,40.2890566 69.1170123,36.1369057 L78.4959101,38.1834717 C78.4597115,38.8326792 78.5097001,39.4975094 78.6527709,40.1623396 C79.4008764,43.6375094 82.4639716,46.0190943 85.8597497,46.0190943 C86.3751495,46.0190943 86.8974444,45.9635472 87.4214629,45.850717 C91.3964194,44.9827925 93.9303249,41.0215849 93.0684523,37.0204528 C92.8098905,35.8140377 92.272082,34.7395472 91.5377665,33.8507925 L97.9207951,26.5203019 C107.415184,24.6889811 115.777072,24.2341887 121.742954,24.2341887 C127.632992,24.2341887 131.187354,24.6768302 131.187354,24.6768302 C125.264566,19.2470943 118.481628,14.7512453 111.069524,11.4184151 L114.118829,7.91720755 C141.441915,20.7711698 160.372085,48.690566 160.372085,81.0658868 C160.372085,84.7701887 160.122142,88.4206792 159.64294,91.9930566 L159.64294,91.9930566 Z M108.130538,42.8650566 L133.55578,42.8650566 L133.55578,37.9352453 L108.130538,37.9352453 L108.130538,42.8650566 Z M5.31258279,91.9930566 L0.84118767,91.9930566 C0.361986498,88.4206792 0.11204344,84.7701887 0.11204344,81.0658868 C0.11204344,45.2362264 23.2998642,14.8623396 55.3891054,4.3309434 L55.3891054,7.60649057 L59.931174,7.60649057 C33.5578721,14.9855849 12.9798016,36.3799245 6.60194422,63.3220377 L2.25982999,67.4481509 L3.85774182,69.1527547 L5.76420404,67.3422642 C4.96093876,71.7929811 4.54034493,76.3808302 4.54034493,81.0658868 C4.54034493,84.7753962 4.80407795,88.4241509 5.31258279,91.9930566 L5.31258279,91.9930566 Z M78.9923487,35.8921509 L72.5731215,34.4913208 C79.9421324,31.1498113 87.278392,28.8619623 94.1320031,27.3135849 L89.7847176,32.3058868 C88.6298083,31.5750943 87.2766683,31.1636981 85.8631972,31.1636981 C85.3477974,31.1636981 84.8237788,31.2175094 84.2997603,31.3320755 C81.7951585,31.8788679 79.8645638,33.6529057 78.9923487,35.8921509 L78.9923487,35.8921509 Z M108.816589,10.4498113 C100.165111,6.89479245 90.7172638,4.90724528 80.8143474,4.83433962 L80.8143474,2.6749434 L61.1619281,2.6749434 C67.2760524,1.17169811 73.6676997,0.373207547 80.242064,0.373207547 C91.4843304,0.373207547 102.185341,2.70445283 111.895198,6.91388679 L108.816589,10.4498113 L108.816589,10.4498113 Z" id="Fill-469" fill="url(#linearGradient-9)" mask="url(#mask-8)"></path>
                </g>
                <path d="M308.614211,333 L307,331.301938 L311.386405,327.191661 C311.069484,328.51276 310.787388,329.847692 310.54012,331.196458 L308.614211,333 M384.013715,302.149575 L374.539149,300.110863 C375.702356,299.538502 376.867305,298.992079 378.030512,298.471594 L384.515217,299.867048 C384.22964,300.588119 384.057248,301.357607 384.013715,302.149575 M397.188603,297.833524 C396.681876,297.228308 396.082859,296.709552 395.417672,296.294547 L399.809301,291.321406 C401.103108,291.032631 402.37776,290.769795 403.63674,290.531167 L397.188603,297.833524 M416.919591,275.48724 C416.167337,275.153507 415.408118,274.831878 414.643675,274.522354 L417.753687,271 C418.507682,271.321629 419.256453,271.655362 420,271.99947 L416.919591,275.48724" id="Fill-472" fill="#55B0F8"></path>
                <path d="M390.999146,307 C388.696684,307 386.619686,305.396243 386.114101,303.05807 C385.529946,300.364646 387.246543,297.69684 389.941858,297.114432 C390.297134,297.037575 390.650702,297 391.000854,297 C393.303316,297 395.380314,298.603757 395.885899,300.94193 C396.470054,303.637062 394.753457,306.30316 392.058142,306.885568 C391.702866,306.962425 391.349298,307 390.999146,307" id="Fill-473" fill="#F8F8F8"></path>
                <path d="M390.999138,309 C387.776502,309 384.869586,306.75555 384.159624,303.480486 C384.023848,302.853938 383.976408,302.22739 384.010761,301.615564 C384.051658,300.866324 384.213607,300.13835 384.481888,299.456181 C385.309631,297.345875 387.14179,295.673989 389.518688,295.158682 C390.015989,295.050713 390.513289,295 391.00241,295 C392.343812,295 393.627958,295.387707 394.723982,296.07642 C395.348879,296.469035 395.911613,296.959804 396.387647,297.532367 C397.084522,298.369946 397.594909,299.382566 397.840288,300.519514 C398.658215,304.290255 396.253507,308.02337 392.481223,308.841318 C391.983923,308.947651 391.488259,309 390.999138,309 M391.000774,297.210096 C390.665423,297.210096 390.326801,297.246086 389.986543,297.319701 C387.405162,297.877541 385.761127,300.432811 386.32059,303.01262 C386.804803,305.252162 388.794004,306.788268 390.999138,306.788268 C391.334488,306.788268 391.673111,306.752279 392.013369,306.678663 C394.594749,306.120823 396.238785,303.567189 395.679322,300.985744 C395.195108,298.746202 393.205908,297.210096 391.000774,297.210096" id="Fill-474" fill="#55B0F8"></path>
                <path d="M368,321 L345,321 C346.540132,319.246479 348.114835,317.580986 349.718924,316 L368,316 L368,321" id="Fill-475" fill="#DCDCDC"></path>
                <path d="M364.644746,271 L360,271 L360,267.678986 C361.93722,267.047166 363.904407,266.487504 365.903322,266 L386,266 L386,268.18937 C385.804339,268.18761 385.610441,268.18761 385.41478,268.18761 C378.221153,268.18761 371.254915,269.167899 364.644746,271" id="Fill-476" fill="#DCDCDC"></path>
                <polygon id="Fill-477" fill="#DCDCDC" points="413 306 439 306 439 301 413 301"></polygon>
                <path d="M318.575231,381 L318.573611,381 C314.796528,373.345869 312.187731,364.919335 311,356 L325,356 C322.365278,363.491612 320.18588,371.794072 318.575231,381" id="Fill-478" fill="#C1C7D3"></path>
                <path d="M310,331 C310.246387,329.643478 310.527475,328.30087 310.843267,326.972174 L342.051071,297.45913 C342.462294,298.14087 342.977624,298.744348 343.569298,299.252174 L310,331 M373.770735,299.735652 L355.508635,295.768696 C355.735935,295.024348 355.846982,294.238261 355.827896,293.434783 L377.249644,298.086957 C376.090586,298.610435 374.929793,299.16 373.770735,299.735652 M398.950746,290.895652 L413.732203,274 C414.493919,274.311304 415.25043,274.634783 416,274.970435 L402.764532,290.10087 C401.510042,290.34087 400.239937,290.605217 398.950746,290.895652" id="Fill-482" fill="#64A9E8"></path>
                <path d="M348.999744,299 C346.697522,299 344.62074,297.39795 344.113499,295.059778 C343.531112,292.362938 345.247531,289.69684 347.942566,289.112724 C348.297805,289.035867 348.651336,289 348.999744,289 C351.301966,289 353.380455,290.60205 353.885988,292.94193 C354.470083,295.635354 352.751956,298.30316 350.058629,298.887276 C349.70339,298.964133 349.348151,299 348.999744,299" id="Fill-483" fill="#D6DCE8"></path>
                <path d="M348.997889,301 C347.299798,301 345.688411,300.376724 344.4402,299.306847 C343.882349,298.829166 343.396479,298.26151 343.008765,297.620238 C342.619414,296.975695 342.32822,296.257537 342.159719,295.482122 C341.341756,291.709745 343.746567,287.97663 347.519012,287.160318 C348.016334,287.052349 348.512019,287 349.001161,287 C352.223935,287 355.130975,289.24445 355.840966,292.519514 C355.93585,292.95957 355.9882,293.399626 355.998015,293.834774 C356.016011,294.590559 355.911311,295.329984 355.697005,296.030147 C354.98047,298.38093 353.048441,300.286749 350.481674,300.841318 C349.984352,300.949287 349.487031,301 348.997889,301 M348.999525,289.211732 C348.665796,289.211732 348.327159,289.246086 347.986887,289.319701 C345.405396,289.879177 343.761291,292.432811 344.319141,295.015892 C344.805011,297.255434 346.794297,298.789904 348.999525,298.789904 C349.333254,298.789904 349.673526,298.75555 350.013799,298.681935 C352.593654,298.122459 354.239395,295.567189 353.679909,292.98738 C353.195675,290.746202 351.204753,289.211732 348.999525,289.211732" id="Fill-484" fill="#64A9E8"></path>
                <path d="M345.421658,321 L343,321 L343,316 L350,316 C348.443699,317.580986 346.915908,319.246479 345.421658,321" id="Fill-485" fill="#C2C8D4"></path>
                <path d="M386,272 L365,272 C371.500206,270.045682 378.350557,269 385.424515,269 C385.616921,269 385.807594,269 386,269.001877 L386,272" id="Fill-486" fill="#C2C8D4"></path>
                <polygon id="Fill-488" fill="#E0E0E0" points="77 81 130 81 130 76 77 76"></polygon>
                <polygon id="Fill-488-Copy" fill="#E0E0E0" points="377 81 430 81 430 76 377 76"></polygon>
                <polygon id="Fill-489" fill="#E0E0E0" points="144 80 181 80 181 75 144 75"></polygon>
                <polygon id="Fill-489-Copy" fill="#E0E0E0" points="441 81 478 81 478 76 441 76"></polygon>
                <polygon id="Fill-490" fill="#E0E0E0" points="143 100 178 100 178 95 143 95"></polygon>
                <polygon id="Fill-490-Copy" fill="#E0E0E0" points="440 99 475 99 475 94 440 94"></polygon>
                <polygon id="Fill-495-Copy" fill="#78C2FF" points="378 99 405 99 405 94 378 94"></polygon>
                <polygon id="Fill-496-Copy" fill="#1487E3" points="412 99 421 99 421 94 412 94"></polygon>
                <polygon id="Fill-498-Copy" fill="#FFC455" points="426 99 435 99 435 94 426 94"></polygon>
                <polygon id="Fill-501-Copy" fill="#E0E0E0" points="480 99 511 99 511 94 480 94"></polygon>
                <polygon id="Fill-491" fill="#78C2FF" points="331 80 368 80 368 75 331 75"></polygon>
                <polygon id="Fill-492" fill="#1487E3" points="191 80 239 80 239 75 191 75"></polygon>
                <polygon id="Fill-492-Copy" fill="#1487E3" points="488 81 511 81 511 76 488 76"></polygon>
                <polygon id="Fill-493" fill="#FFC055" points="274 80 322 80 322 75 274 75"></polygon>
                <polygon id="Fill-494" fill="#E0E0E0" points="247 80 265 80 265 75 247 75"></polygon>
                <polygon id="Fill-495" fill="#78C2FF" points="79 99 106 99 106 94 79 94"></polygon>
                <polygon id="Fill-496" fill="#1487E3" points="114 100 123 100 123 95 114 95"></polygon>
                <polygon id="Fill-497" fill="#E0E0E0" points="297 99 369 99 369 94 297 94"></polygon>
                <polygon id="Fill-498" fill="#FFC455" points="129 100 138 100 138 95 129 95"></polygon>
                <polygon id="Fill-499" fill="#1487E3" points="265 100 289 100 289 95 265 95"></polygon>
                <polygon id="Fill-500" fill="#78C2FF" points="208 100 259 100 259 95 208 95"></polygon>
                <polygon id="Fill-501" fill="#E0E0E0" points="183 100 201 100 201 95 183 95"></polygon>
                <g id="Group-2" transform="translate(295.000000, 253.000000)">
                    <path d="M273.127202,84.7014156 C273.127202,84.7014156 263.671368,63.2408571 274.641451,65.0179675 C274.641451,65.0179675 278.376021,68.1110065 282.209233,74.411513 C285.109668,79.1845714 291.145896,91.8133247 290.922653,96.0870584 C290.699409,100.355591 287.667451,103.542253 284.391482,110.402766 C284.391482,110.402766 277.58342,123.137279 277.297876,124.671662 L270.100435,120.928461 C270.100435,120.928461 276.197233,108.752221 280.494238,98.0496818 L273.127202,84.7014156" id="Fill-444" fill="#275070"></path>
                    <g id="Group-447" transform="translate(183.433492, 99.583890)">
                        <mask id="mask-11" fill="white">
                            <use xlink:href="#path-10"></use>
                        </mask>
                        <g id="Clip-446"></g>
                        <polyline id="Fill-445" fill="url(#linearGradient-12)" mask="url(#mask-11)" points="145.082332 49.4627916 0.209398964 24.7514215 4.40256995 0.0747266687 149.277233 24.7878306 145.082332 49.4627916"></polyline>
                    </g>
                    <polyline id="Fill-448" fill="#2D3038" points="184.148218 121.361903 176.409109 120.040773 179.591627 101.310896 187.330736 102.632026 184.148218 121.361903"></polyline>
                    <path d="M218.396197,266.511078 L216.610249,266.511078 C216.610249,266.511078 217.205565,259.761526 215.554601,259.695643 C213.903637,259.62976 209.807378,265.188214 207.362083,266.049896 C204.918518,266.909844 192.368425,267.636292 192.302663,265.319981 C192.235171,263.005403 197.124031,262.077838 198.643472,261.417273 C200.162912,260.754974 207.561098,253.540773 208.883254,252.680825 C210.203679,251.819143 212.456881,245.839383 212.456881,245.839383 L219.463959,245.527305 C219.463959,245.527305 219.860259,251.118701 220.284249,254.07824 C220.443461,255.172247 220.557679,256.170896 220.573254,256.850532 C220.640746,259.364494 218.396197,266.511078 218.396197,266.511078" id="Fill-449" fill="#EEA886"></path>
                    <path d="M263.531192,265.177812 L262.044632,265.177812 L262.044632,258.894643 C260.805544,258.996935 256.643523,262.944721 255.355979,264.087273 C254.068435,265.228091 252.299793,265.177812 246.874456,265.522831 C241.45085,265.867851 240.938601,262.613571 241.796964,261.507429 C242.655326,260.399552 245.431161,259.915831 246.874456,259.224058 C248.319482,258.530552 254.018249,252.093078 255.537689,250.570831 C257.055399,249.046851 257.982984,244.686429 257.982984,244.686429 L264.323793,245.2395 C264.323793,245.2395 264.282259,249.23063 265.003907,252.576799 L265.003907,252.578532 L265.010829,252.604539 C265.071399,252.89061 265.138891,253.169747 265.213306,253.441948 C266.156466,256.921617 263.531192,265.177812 263.531192,265.177812" id="Fill-450" fill="#EEA886"></path>
                    <path d="M240.081969,122.759318 C240.081969,122.759318 237.68686,128.437403 237.474,129.871227 C237.26287,131.305052 231.652363,144.892578 230.029088,154.052065 C229.058238,159.535968 226.375855,176.703721 226.159534,178.884799 C225.787461,182.621065 224.030933,190.866857 223.760964,194.681143 C223.610404,196.811942 213.124881,229.550649 210.587865,246.643851 C210.587865,246.643851 216.617171,247.538474 221.146073,246.338708 C221.146073,246.338708 230.352705,228.673364 235.463078,203.616974 C238.541762,188.526273 241.263948,180.479864 243.648674,174.264312 C246.033399,168.04876 259.540497,150.445831 260.950912,148.467604 C262.359596,146.49111 271.192425,135.561448 262.82858,123.723292 C254.464736,111.883403 240.081969,122.759318 240.081969,122.759318" id="Fill-451" fill="#1D3B54"></path>
                    <path d="M270.278684,173.050675 C269.513772,178.147948 270.318487,184.843753 271.915803,203.48174 C273.51485,222.117994 269.117472,244.686429 269.117472,244.686429 C263.596953,246.577968 257.237109,244.686429 257.237109,244.686429 C257.384207,243.375701 257.237109,199.258286 257.237109,195.327838 C257.237109,191.395656 256.110508,186.934675 255.821503,182.421682 C255.622487,179.345981 254.194767,173.678299 252.587067,167.890987 C252.105969,166.157221 251.609295,164.413052 251.124736,162.724364 L251.124736,162.72263 C250.853036,161.775994 250.586528,160.846695 250.326943,159.94687 C248.065088,152.08424 245.021016,121.725994 245.021016,121.725994 C245.021016,121.725994 261.88715,108.114195 270.100435,120.928461 C278.31199,133.737526 274.094591,143.056519 273.805585,144.658519 C273.51485,146.262253 271.043596,167.955136 270.278684,173.050675" id="Fill-452" fill="#1D3B54"></path>
                    <path d="M263.285451,145.669305 C263.153927,145.960578 254.75028,164.648844 252.587067,167.890987 C252.105969,166.157221 251.609295,164.413052 251.124736,162.724364 L251.124736,162.72263 C251.124736,162.72263 263.003368,146.081942 263.285451,145.669305" id="Fill-453" fill="#122536"></path>
                    <path d="M263.531192,265.177812 L262.044632,265.177812 L262.044632,258.894643 C260.805544,258.996935 256.643523,262.944721 255.355979,264.087273 C254.068435,265.228091 252.299793,265.177812 246.874456,265.522831 C241.45085,265.867851 240.938601,262.613571 241.796964,261.507429 C242.655326,260.399552 245.431161,259.915831 246.874456,259.224058 C252.678788,259.534403 259.76028,251.359695 263.16085,251.377005 C264.967565,251.385701 264.950259,252.387818 265.003907,252.576799 L265.003907,252.578532 L265.010829,252.604539 C265.071399,252.89061 265.138891,253.169747 265.213306,253.441948 C266.156466,256.921617 263.531192,265.177812 263.531192,265.177812" id="Fill-454" fill="#172F42"></path>
                    <path d="M218.396197,266.511078 L216.610249,266.511078 C216.610249,266.511078 217.205565,259.761526 215.554601,259.695643 C213.903637,259.62976 209.807378,265.188214 207.362083,266.049896 C204.918518,266.909844 192.368425,267.636292 192.302663,265.319981 C192.235171,263.005403 197.124031,262.077838 198.643472,261.417273 C203.819606,261.405136 212.238829,255.695844 214.848528,254.539422 C217.458228,253.381266 220.284249,254.07824 220.284249,254.07824 C220.443461,255.172247 220.557679,256.170896 220.573254,256.850532 C220.640746,259.364494 218.396197,266.511078 218.396197,266.511078" id="Fill-455" fill="#172F42"></path>
                    <path d="M254.973523,51.4893896 C254.973523,51.4893896 257.66629,58.6221039 255.572301,64.1372143 C255.572301,64.1372143 265.44001,63.493987 265.813813,62.3392987 C266.187617,61.1863442 265.417513,50.4976753 266.77601,47.3370195 C268.131047,44.1798312 254.973523,51.4893896 254.973523,51.4893896" id="Fill-456" fill="#EEA886"></path>
                    <path d="M254.02171,61.7238117 C254.02171,61.7238117 248.189689,63.8025974 245.554031,64.3799416 C242.920104,64.9572857 237.406508,67.5718052 237.854725,77.4213312 C238.302943,87.2708571 239.946984,95.8113896 240.545762,100.045247 C241.144539,104.275636 240.769005,115.04926 239.798155,120.2835 C239.798155,120.2835 253.777699,123.822117 270.225036,120.2835 C270.225036,120.2835 267.309026,111.356338 267.38344,109.046961 C267.457855,106.739318 277.102321,87.732039 277.550539,84.7326234 C277.998756,81.7297403 279.943917,68.4959026 275.532694,65.571039 C271.121472,62.6461753 267.532269,63.0310714 265.664984,61.7238117 C263.795969,60.4148182 256.749088,60.7841104 254.02171,61.7238117" id="Fill-457" fill="#285173"></path>
                    <path d="M276.52258,135.759097 C252.637254,142.109883 233.630404,135.785104 233.630404,135.785104 C235.362705,132.215279 236.638135,128.655857 237.562259,125.205662 L237.56399,125.203929 C238.216415,122.767987 238.694052,120.390994 239.033244,118.10589 C240.974943,105.067968 238.443119,95.0866753 238.443119,95.0866753 C241.199917,72.3552662 275.532694,65.571039 278.28257,72.7765714 C281.032446,79.9838377 272.954145,110.948903 272.545731,113.603299 C272.135585,116.257695 276.52258,135.759097 276.52258,135.759097" id="Fill-458" fill="#285173"></path>
                    <path d="M263.576187,22.8683766 C259.60799,21.5056364 248.885378,20.054474 246.137233,36.5443247 C243.390819,53.0359091 249.37513,53.318513 255.520383,52.8486623 C261.667368,52.3805455 271.282415,41.2497662 272.017907,37.8671883 C272.75513,34.4811429 274.894114,26.7589481 263.576187,22.8683766" id="Fill-459" fill="#EEA886"></path>
                    <path d="M248.347171,29.2018247 C248.347171,29.2018247 251.62314,36.2218442 255.920145,38.6681883 C255.920145,38.6681883 258.611181,46.1285844 264.441472,49.1453377 C264.441472,49.1453377 279.909306,38.8797078 270.932839,26.6809286 C261.958104,14.4821494 249.361285,24.1981753 248.347171,29.2018247" id="Fill-460" fill="#FCCCA2"></path>
                    <path d="M255.54115,36.2357143 C255.888995,35.3775 258.206228,33.9818182 259.246301,36.3362727 C260.286373,38.6889935 256.551803,42.8361623 255.529036,42.6125065 C254.506269,42.3888506 254.218995,39.4917273 255.54115,36.2357143" id="Fill-461" fill="#EEA886"></path>
                    <path d="M270.408477,28.5655325 C270.747668,28.0384675 280.990912,23.2879481 283.121244,33.2137597 C285.249845,43.1413052 274.869886,54.682987 273.052788,59.6467597 C271.233959,64.6087987 273.873078,76.2423701 273.873078,76.2423701 C273.873078,76.2423701 267.629181,70.3267597 265.739399,64.1372143 C263.664446,57.3373831 262.967026,40.1939026 270.408477,28.5655325" id="Fill-462" fill="#FCCCA2"></path>
                    <path d="M270.925917,28.2274481 C270.925917,28.2274481 267.791855,30.7136688 267.386902,34.6337143 C267.386902,34.6337143 266.796777,31.5770844 268.063554,29.7063506 C269.32687,27.8373506 270.925917,28.2274481 270.925917,28.2274481" id="Fill-463" fill="#E54242"></path>
                    <path d="M237.56399,125.203929 C238.216415,122.767987 238.694052,120.390994 239.033244,118.10589 C239.033244,118.10589 240.608062,114.749318 241.139347,113.147318 C241.670632,111.545318 245.624984,91.8375974 245.624984,91.8375974 C245.624984,91.8375974 249.807772,110.345552 237.56399,125.203929" id="Fill-464" fill="#1D3B54"></path>
                    <path d="M219.981399,126.348214 C219.981399,126.348214 216.900984,129.411779 215.904176,129.72039 C214.909098,130.029 212.989896,128.329909 205.917057,127.804578 C205.295782,127.757766 204.203793,128.317773 204.461648,129.139578 C204.717772,129.961383 207.796456,132.197942 209.11342,132.539494 C210.432114,132.879312 216.646591,135.353396 219.675088,134.13976 C222.703585,132.926123 224.764694,129.063292 224.764694,129.063292 L219.981399,126.348214" id="Fill-465" fill="#EEA886"></path>
                    <path d="M243.904798,64.9191429 C243.904798,64.9191429 235.726124,68.166487 235.241565,79.5538636 C234.758736,90.942974 234.313979,96.8880584 233.869223,98.6460974 C233.426197,100.404136 232.576487,107.469234 230.518839,111.720429 C228.521762,115.845058 215.416155,128.896851 215.416155,128.896851 L221.758694,134.873143 C221.758694,134.873143 240.030052,116.505623 241.139347,113.147318 C242.248642,109.789013 246.815617,86.4195779 247.180767,82.480461 C247.473233,79.3042013 251.65429,65.1549351 243.904798,64.9191429" id="Fill-466" fill="#285173"></path>
                    <g id="Group-481" transform="translate(14.871693, 14.629345)">
                        <mask id="mask-14" fill="white">
                            <use xlink:href="#path-13"></use>
                        </mask>
                        <g id="Clip-480"></g>
                        <path d="M15.7905453,87.3802591 L0.838420956,87.3802591 C0.327902822,83.8156358 0.0631256196,80.1712591 0.0631256196,76.4662007 C0.0631256196,71.7867656 0.485384687,67.2044215 1.29183028,62.7590449 L34.7731671,31.1091423 C36.0935919,32.2430254 37.7982033,32.9035903 39.5945349,32.9035903 C40.1119754,32.9035903 40.6380686,32.8498436 41.1641619,32.735415 C43.8794261,32.1476682 45.9232292,30.1278306 46.6812189,27.6364085 L64.8954676,31.5911293 C56.543737,35.7382981 48.230079,41.2915513 40.5826904,48.7068695 L33.3592914,48.7068695 L33.3592914,53.6307656 L35.8582344,53.6307656 C27.9910634,62.4417656 21.0428251,73.5031942 15.7905453,87.3802591 M2.13288728,58.7436423 C8.53599609,31.8338565 29.1955401,10.4651877 55.6732603,3.09494745 L76.6391153,3.09494745 L76.6391153,0.326122773 C86.5812396,0.398940954 96.0664935,2.38410329 104.752224,5.93485654 L90.0094987,22.7783955 C83.1287526,24.324915 75.7634469,26.6100189 68.3652603,29.9475189 L46.9996438,25.3096942 C46.9892603,24.8485124 46.9338821,24.3821293 46.833509,23.9157461 C46.0824417,20.4447461 43.0072189,18.0660189 39.5979961,18.0660189 C39.0805557,18.0660189 38.556193,18.1214994 38.0300997,18.235928 C34.0394054,19.1010773 31.4954676,23.0575319 32.3607526,27.0555968 C32.5390013,27.877402 32.8470427,28.6385254 33.2589184,29.3216293 L2.13288728,58.7436423 M93.8132914,21.9860643 L107.014079,6.9022981 C114.45553,10.2311293 121.265323,14.7215838 127.211561,20.1448046 C127.211561,20.1448046 123.643126,19.7026942 117.729768,19.7026942 C111.740266,19.7026942 103.345271,20.156941 93.8132914,21.9860643" id="Fill-479" fill="url(#linearGradient-15)" mask="url(#mask-14)"></path>
                    </g>
                    <path d="M90.9327979,167.362188 C48.8903316,167.362188 14.808487,133.220864 14.808487,91.0955455 C14.808487,48.9771623 48.8903316,14.8306364 90.9327979,14.8306364 C132.975264,14.8306364 167.057109,48.9771623 167.057109,91.0955455 C167.057109,133.220864 132.975264,167.362188 90.9327979,167.362188 Z M90.9327979,-1.27897692e-13 C40.711658,-1.27897692e-13 -2.84217094e-14,40.7851169 -2.84217094e-14,91.0955455 C-2.84217094e-14,141.411175 40.711658,182.198026 90.9327979,182.198026 C141.153938,182.198026 181.863865,141.411175 181.863865,91.0955455 C181.863865,40.7851169 141.153938,-1.27897692e-13 90.9327979,-1.27897692e-13 L90.9327979,-1.27897692e-13 Z" id="Fill-487" fill="#3F444F"></path>
                </g>
                <g id="Group-4" transform="translate(0.000000, 273.000000)">
                    <path d="M8.81220039,116.53531 C8.81220039,116.53531 9.75289053,118.074475 9.86896096,119.328288 C9.96251025,120.322692 10.7992567,121.806516 11.1613272,122.626251 C11.52513,123.445985 12.689299,127.157274 12.7308764,128.122278 C12.7499328,128.51831 11.8664117,131.006914 11.9911441,131.802437 C12.1158764,132.59796 12.5715024,134.175171 11.8560173,134.280665 C11.1405384,134.384429 10.3280455,133.092568 10.3280455,133.092568 C10.3280455,133.092568 10.3973412,133.825833 9.79100321,134.104266 C8.61124265,134.650756 7.98758067,134.169983 7.98758067,134.169983 C7.98758067,134.169983 7.55448208,134.975883 7.00877786,135.084835 C5.80476377,135.323492 5.21574969,134.842719 5.21574969,134.842719 C5.21574969,134.842719 4.68736941,135.295821 3.85582011,135.280257 C2.79212997,135.257775 2.34517222,134.341194 2.34517222,134.341194 C2.34517222,134.341194 0.999101801,134.614439 0.609313069,133.986667 C0.217791942,133.360625 0.285355322,132.691348 0.124242646,132.122376 C-0.0386024244,131.555133 0.0843975756,126.42228 1.8306511,122.728285 C3.57690462,119.034291 1.38542574,115.430225 1.38542574,115.430225 L8.81220039,116.53531" id="Fill-397" fill="#EEA886"></path>
                    <path d="M10.5186088,132.611795 C10.5186088,132.611795 10.6381441,128.008138 9.4237356,127.027569 C8.20932715,126.047 8.072468,127.708952 8.072468,127.708952 C8.072468,127.708952 8.23704546,126.066024 6.91003138,125.844661 C5.58301729,125.623298 5.52758067,127.574059 5.52758067,127.574059 C5.52758067,127.574059 5.31103138,126.308139 3.91645391,126.567549 C2.52360884,126.826959 2.85622856,128.443946 2.85622856,128.443946 C2.85622856,128.443946 1.52574969,126.859817 0.6612849,128.381688 C-0.795658762,130.951573 0.609313069,133.986667 0.609313069,133.986667 C0.609313069,133.986667 1.01989053,134.681885 2.34517222,134.341194 C2.34517222,134.341194 3.23215814,136.125933 5.21574969,134.842719 C5.21574969,134.842719 7.24784828,135.95991 7.98758067,134.169983 C7.98758067,134.169983 10.2275666,135.233563 10.5186088,132.611795" id="Fill-398" fill="#DB9C7C"></path>
                    <path d="M24.4574539,50.2111619 C24.4574539,50.2111619 16.5629328,76.4807198 13.8950455,86.172267 C13.058299,89.2090902 11.03313,118.233579 10.6762567,119.400923 C10.3176511,120.569996 0.30441166,122.169689 0.30441166,122.169689 C0.30441166,122.169689 1.51708772,85.8627048 1.62969335,83.8825439 C1.74403138,81.902383 12.680637,41.3566434 15.8613131,39.912596 C18.2433553,38.8282633 19.502806,39.7240916 22.5050455,41.949827 C26.719961,45.07312 24.4574539,50.2111619 24.4574539,50.2111619" id="Fill-399" fill="#323657"></path>
                    <path d="M18.0510595,229.575691 C18.0510595,229.575691 17.3321159,234.563275 17.2420314,235.313834 C17.1519469,236.060934 9.23490462,234.871108 9.23490462,234.871108 L8.5939187,228.934084 C8.5939187,228.934084 17.0618624,228.873555 18.0510595,229.575691" id="Fill-402" fill="#424773"></path>
                    <path d="M17.3269187,234.679145 C17.3269187,234.679145 19.8336934,237.684839 22.2607779,238.993993 C24.68613,240.304877 28.49913,240.821967 29.9335525,242.179545 C30.9695243,243.156655 33.704975,247.369468 23.6293694,247.286457 C13.5537638,247.199987 8.69612997,247.879641 7.61684828,246.266112 C6.5358342,244.649125 9.1777356,234.340183 9.1777356,234.340183 C9.1777356,234.340183 11.564975,235.197964 17.3269187,234.679145" id="Fill-403" fill="#292C47"></path>
                    <path d="M74.7748483,229.575691 C74.7748483,229.575691 74.0541722,234.563275 73.9640877,235.313834 C73.8740032,236.060934 65.9586934,234.871108 65.9586934,234.871108 L65.3177074,228.934084 C65.3177074,228.934084 73.7856511,228.873555 74.7748483,229.575691" id="Fill-404" fill="#424773"></path>
                    <path d="M74.048975,234.679145 C74.048975,234.679145 76.5574821,237.684839 78.9828342,238.993993 C81.4081863,240.304877 90.3369469,241.380563 91.7713694,242.736411 C92.8073412,243.713521 94.5293412,247.654819 80.3514257,247.286457 C70.2792849,247.023589 65.4181863,247.879641 64.3389046,246.266112 C63.2596229,244.649125 65.9015243,234.340183 65.9015243,234.340183 C65.9015243,234.340183 68.1501722,235.256764 74.048975,234.679145" id="Fill-405" fill="#292C47"></path>
                    <path d="M24.6064398,101.432476 C24.6064398,101.432476 17.1692708,113.23043 17.723637,123.893899 C18.2797356,134.559098 15.026299,146.201406 13.9089046,157.342189 C12.6633131,169.762727 7.56487645,199.162495 7.37951025,205.806843 C7.19587645,212.45119 8.17121448,233.665717 8.17121448,233.665717 L18.3767497,233.897457 C18.3767497,233.897457 26.9469046,182.496285 29.1678342,177.25102 C31.3870314,172.005756 42.3946652,134.614439 42.7653976,130.418919 C43.1343976,126.223399 24.6064398,101.432476 24.6064398,101.432476" id="Fill-406" fill="#292C47"></path>
                    <path d="M63.7637497,103.03044 C63.7637497,103.03044 69.3715103,132.260728 70.1095103,138.785747 C70.850975,145.314225 71.342975,170.374933 71.7137074,174.452854 C72.0844398,178.532505 75.1698342,227.714858 76.1538342,233.897457 L63.1071722,233.897457 C63.1071722,233.897457 53.0922004,198.05568 53.0922004,181.097202 C53.0922004,164.140453 45.3535948,144.229892 40.3608342,133.040686 C35.3663412,121.85148 23.9342708,121.586882 20.864468,100.827187 C20.864468,100.827187 59.6077356,96.4466214 63.7637497,103.03044" id="Fill-407" fill="#292C47"></path>
                    <path d="M37.0190455,2.2411161 C37.0190455,2.2411161 47.0045666,-1.48054872 51.6075384,6.10632096 C56.2105103,13.6931906 55.7670173,28.8824946 50.7344117,30.7502446 C45.7035384,32.6179946 38.141637,31.6408846 35.5655666,26.8936867 C32.9894962,22.1464888 30.6628905,15.2825075 30.7737638,10.6961436 C30.8863694,6.10977976 34.3979328,3.56583508 37.0190455,2.2411161" id="Fill-408" fill="#EEA886"></path>
                    <path d="M49.6516652,31.0978536 C49.6516652,31.0978536 49.2358905,33.7887971 49.9219187,35.1135161 C50.6096793,36.4399645 36.9878624,36.4745524 36.9878624,36.4745524 C36.9878624,36.4745524 35.8808624,29.2629622 33.7846652,23.1720219 C31.688468,17.0793522 49.6516652,31.0978536 49.6516652,31.0978536" id="Fill-409" fill="#EEA886"></path>
                    <path d="M33.7846652,23.1720219 C33.7846652,23.1720219 34.7253553,24.7198332 38.5626088,24.1197321 C42.3998624,23.5196309 47.0825243,18.4213652 48.6849891,17.8627696 C50.2874539,17.3024446 50.3030455,16.361652 50.3030455,16.361652 L51.3061018,17.8264522 L53.0073131,17.9336749 C53.0073131,17.9336749 51.4550877,13.3749814 53.7972849,11.514149 C56.1377497,9.65504596 51.3667356,-3.24453483 39.059806,1.05129017 C39.059806,1.05129017 29.60613,3.65230499 29.9491441,9.01862744 C30.2938905,14.3866793 31.6694117,20.5001017 33.7846652,23.1720219" id="Fill-410" fill="#323657"></path>
                    <path d="M50.7309469,34.9544115 C50.7309469,34.9544115 50.687637,32.4208432 49.5373272,32.1787274 C48.3870173,31.9366117 36.8440736,30.8297969 35.4321722,31.3832043 L35.4321722,34.3335575 C35.4321722,34.3335575 38.1520314,36.0041561 50.7309469,34.9544115" id="Fill-411" fill="#E2D2CA"></path>
                    <path d="M50.0483835,14.4108909 C49.8318342,13.5116038 47.5398764,10.9399888 46.6615525,13.6914612 C45.7832286,16.4463925 47.9885666,20.1524927 49.2185666,19.8342835 C50.4468342,19.519533 50.5940877,16.6936964 50.0483835,14.4108909" id="Fill-412" fill="#EEA886"></path>
                    <path d="M120.929299,7.0038786 C120.523919,5.73104156 119.153595,5.35922096 119.153595,5.35922096 C118.581905,4.49798068 117.112834,4.04833716 117.112834,4.04833716 L117.026214,3.87539735 C117.928792,2.90693439 120.555102,1.09625453 120.70582,0.753833692 C120.891186,0.337048738 120.846144,0.290354988 120.33682,0.0136512844 C119.910651,-0.218088067 115.629905,2.56451355 114.200679,3.50703554 C113.849003,3.72839851 113.564891,3.93419689 113.507722,3.98089064 C113.112736,4.31466448 112.312369,4.55678022 111.638468,5.26410406 L111.423651,5.511408 C110.715102,6.41588323 109.045074,13.6620615 109.045074,13.6620615 L112.026524,14.9954274 L114.898834,17.43042 C114.898834,17.43042 118.25275,14.6581948 119.11375,13.7865781 C119.97475,12.9149615 120.368003,11.8998048 120.605341,11.470914 C120.66251,11.3688795 120.766454,11.2201513 120.889454,11.0523997 C121.279243,10.5266626 121.869989,9.82106818 121.869989,9.82106818 C122.162764,9.41293022 122.336003,8.39258531 122.336003,8.39258531 C122.277102,7.53826263 120.929299,7.0038786 120.929299,7.0038786" id="Fill-415" fill="#EFAA88"></path>
                    <path d="M69.8253976,38.7902166 C61.9100877,37.7491189 50.7309469,34.9544115 50.7309469,34.9544115 L35.4321722,34.3318281 C35.4321722,34.3318281 21.3911159,37.4170744 15.8613131,39.912596 C15.3363976,40.1460647 15.3346652,52.4161446 13.8950455,55.6328251 L18.478961,65.288055 C18.478961,65.288055 21.1277919,84.4151985 21.676961,92.9203786 C21.9298905,96.8253596 16.2147215,129.538655 16.2147215,129.538655 C16.2147215,129.538655 22.3387356,131.337229 32.7798764,132.487279 C43.2210173,133.635599 69.3108764,132.072223 69.4737215,130.840892 C69.638299,129.60956 64.4220595,84.9980057 64.1899187,82.6875298 C63.8365103,79.1422636 65.4147215,60.3004707 65.4147215,60.3004707 C67.8262145,58.4327207 88.9926088,48.6253038 94.7684117,43.5149323 C96.311975,42.1469784 102.836172,35.8052754 104.689834,33.6158573 C111.255609,25.8646948 116.638158,19.2168883 117.293003,17.7832173 C118.037933,16.9669413 110.159003,12.6918691 109.445257,12.4549416 C108.819862,12.2456844 99.9430736,23.7271587 96.5267919,27.4211531 C95.0040173,29.0675402 88.6721159,33.6660098 88.6721159,33.6660098 C88.6721159,33.6660098 74.7765807,39.0738379 69.8253976,38.7902166" id="Fill-416" fill="#323657"></path>
                </g>
            </g>
        </g>
    </g>
</svg>