<?xml version="1.0" encoding="UTF-8"?>
<svg width="36px" height="45px" viewBox="0 0 36 45" version="1.1" xmlns="http://www.w3.org/2000/svg" xmlns:xlink="http://www.w3.org/1999/xlink">
    <!-- Generator: Sketch 55.2 (78181) - https://sketchapp.com -->
    <title>csv</title>
    <desc>Created with Sketch.</desc>
    <g id="Final-Screens" stroke="none" stroke-width="1" fill="none" fill-rule="evenodd" fill-opacity="1">
        <g id="customer-master-import-file-error" transform="translate(-421.000000, -452.000000)" fill="#1F496A" fill-rule="nonzero">
            <g id="Group-2" transform="translate(400.000000, 434.000000)">
                <g id="csv" transform="translate(21.000000, 18.000000)">
                    <rect id="Rectangle" x="6.59482759" y="14.7413793" width="6.20689655" height="1.55172414"></rect>
                    <rect id="Rectangle" x="6.59482759" y="20.9482759" width="6.20689655" height="1.55172414"></rect>
                    <rect id="Rectangle" x="6.59482759" y="17.8448276" width="6.20689655" height="1.55172414"></rect>
                    <rect id="Rectangle" x="6.59482759" y="11.637931" width="6.20689655" height="1.55172414"></rect>
                    <rect id="Rectangle" x="14.3534483" y="14.7413793" width="14.7413793" height="1.55172414"></rect>
                    <rect id="Rectangle" x="14.3534483" y="20.9482759" width="14.7413793" height="1.55172414"></rect>
                    <rect id="Rectangle" x="14.3534483" y="17.8448276" width="14.7413793" height="1.55172414"></rect>
                    <rect id="Rectangle" x="6.59482759" y="24.0517241" width="6.20689655" height="1.55172414"></rect>
                    <path d="M35.3017241,30.2586207 L35.3017241,10.845 C35.3017241,10.2506897 35.2303448,9.81077586 34.875,9.45465517 L25.8462931,0.426724138 C25.5755172,0.155948276 25.2,0 24.8159483,0 L2.29887931,0 C1.3787069,0 0.387931034,0.710689655 0.387931034,2.27017241 L0.387931034,30.2586207 L35.3017241,30.2586207 Z M24.4396552,2.63094828 C24.4396552,2.27560345 24.8687069,2.09793103 25.1200862,2.34931034 L32.9524138,10.1816379 C33.2037931,10.4330172 33.0261207,10.862069 32.6707759,10.862069 L24.4396552,10.862069 L24.4396552,2.63094828 Z M5.04310345,24.0517241 L5.04310345,22.5 L5.04310345,20.9482759 L5.04310345,19.3965517 L5.04310345,17.8448276 L5.04310345,16.2931034 L5.04310345,14.7413793 L5.04310345,13.1896552 L5.04310345,10.0862069 L14.3534483,10.0862069 L14.3534483,13.1896552 L30.6465517,13.1896552 L30.6465517,16.2931034 L30.6465517,17.8448276 L30.6465517,19.3965517 L30.6465517,20.9482759 L30.6465517,22.5 L30.6465517,24.0517241 L30.6465517,27.1551724 L14.3534483,27.1551724 L12.8017241,27.1551724 L5.04310345,27.1551724 L5.04310345,24.0517241 Z" id="Shape"></path>
                    <path d="M0.387931034,31.8103448 L0.387931034,43.4482759 C0.387931034,44.2311207 1.33448276,45 2.29887931,45 L33.3907759,45 C34.3551724,45 35.3017241,44.2311207 35.3017241,43.4482759 L35.3017241,31.8103448 L0.387931034,31.8103448 Z M8.89137931,39.3082759 C8.9937931,39.6830172 9.135,39.9887069 9.31577586,40.2261207 C9.49655172,40.4635345 9.70137931,40.6357759 9.93103448,40.7459483 C10.1606897,40.8561207 10.4027586,40.910431 10.6580172,40.910431 C10.9132759,40.910431 11.1514655,40.8638793 11.3741379,40.7723276 C11.5968103,40.6807759 11.8000862,40.5318103 11.9839655,40.3269828 L12.864569,41.1012931 C12.5743966,41.3837069 12.245431,41.5962931 11.8784483,41.7375 C11.5106897,41.8794828 11.115,41.9493103 10.6906034,41.9493103 C10.2235345,41.9493103 9.79448276,41.8647414 9.40189655,41.6948276 C9.00931034,41.5249138 8.66637931,41.2743103 8.37310345,40.9414655 C8.07982759,40.6086207 7.84939655,40.1919828 7.68336207,39.69 C7.51732759,39.1880172 7.43431034,38.6076724 7.43431034,37.9505172 C7.43431034,37.2933621 7.51732759,36.714569 7.68336207,36.2164655 C7.84939655,35.7175862 8.07905172,35.3025 8.37310345,34.970431 C8.66637931,34.6375862 9.01086207,34.385431 9.40732759,34.2116379 C9.80301724,34.0378448 10.2312931,33.9517241 10.6906034,33.9517241 C11.115,33.9517241 11.5106897,34.0223276 11.8784483,34.1635345 C12.2462069,34.3055172 12.5743966,34.5173276 12.864569,34.7997414 L11.9839655,35.5849138 C11.807069,35.3793103 11.6107759,35.2311207 11.3950862,35.139569 C11.1793966,35.0480172 10.9551724,35.0014655 10.7216379,35.0014655 C10.4601724,35.0014655 10.2103448,35.0503448 9.9737069,35.1496552 C9.7362931,35.2489655 9.52448276,35.4165517 9.3375,35.6531897 C9.14974138,35.8906034 9.00310345,36.1955172 8.89758621,36.5710345 C8.79206897,36.9465517 8.73465517,37.4050862 8.72767241,37.9497414 C8.73387931,38.4812069 8.78896552,38.9335345 8.89137931,39.3082759 Z M18.9364655,40.5760345 C18.8200862,40.8413793 18.6556034,41.0749138 18.4430172,41.2758621 C18.230431,41.4768103 17.9689655,41.6381897 17.6578448,41.7584483 C17.3467241,41.8787069 16.992931,41.9384483 16.5972414,41.9384483 C16.4273276,41.9384483 16.2527586,41.9291379 16.0719828,41.912069 C15.8912069,41.895 15.7096552,41.8639655 15.5257759,41.822069 C15.3418966,41.7793966 15.1665517,41.7212069 15.0005172,41.6467241 C14.8344828,41.5722414 14.6909483,41.4822414 14.5706897,41.3759483 L14.7933621,40.4635345 C14.8918966,40.5201724 15.0175862,40.5752586 15.1696552,40.6280172 C15.3217241,40.6807759 15.4784483,40.730431 15.6413793,40.7762069 C15.8035345,40.8227586 15.9664655,40.8592241 16.1293966,40.887931 C16.2915517,40.9158621 16.4436207,40.9306034 16.5856034,40.9306034 C17.0169828,40.9306034 17.3475,40.8297414 17.5771552,40.6280172 C17.8068103,40.4262931 17.9216379,40.1275862 17.9216379,39.7318966 C17.9216379,39.4913793 17.8401724,39.2865517 17.6780172,39.1166379 C17.5150862,38.9467241 17.3118103,38.7931034 17.0681897,38.655 C16.824569,38.5168966 16.5607759,38.379569 16.2775862,38.2414655 C15.9943966,38.1033621 15.7290517,37.940431 15.4823276,37.7534483 C15.2348276,37.5664655 15.03,37.3453448 14.867069,37.0908621 C14.7041379,36.8363793 14.6234483,36.5182759 14.6234483,36.1365517 C14.6234483,35.7905172 14.687069,35.4825 14.8143103,35.2140517 C14.9415517,34.9456034 15.1130172,34.7167241 15.3287069,34.5297414 C15.5443966,34.3427586 15.7957759,34.1992241 16.082069,34.0999138 C16.3683621,34.0006034 16.6709483,33.9517241 16.9890517,33.9517241 C17.3141379,33.9517241 17.6431034,33.9819828 17.9751724,34.0417241 C18.3072414,34.1014655 18.5756897,34.1992241 18.7812931,34.3334483 C18.7386207,34.425 18.6889655,34.5258621 18.6331034,34.6360345 C18.5764655,34.7462069 18.522931,34.8478448 18.4740517,34.9432759 C18.4243966,35.0387069 18.3817241,35.1186207 18.3468103,35.1822414 C18.3111207,35.2458621 18.2901724,35.2815517 18.2831897,35.2885345 C18.2405172,35.2675862 18.1931897,35.2396552 18.1396552,35.2039655 C18.0861207,35.1682759 18.0100862,35.1333621 17.9115517,35.0976724 C17.8122414,35.0619828 17.6818966,35.037931 17.5189655,35.0231897 C17.3560345,35.0084483 17.1473276,35.0123276 16.8928448,35.0340517 C16.7508621,35.0487931 16.6174138,35.0883621 16.4893966,35.1558621 C16.3613793,35.2233621 16.2488793,35.3056034 16.149569,35.4049138 C16.0502586,35.5042241 15.9726724,35.6151724 15.9160345,35.7393103 C15.8593966,35.8626724 15.8314655,35.9821552 15.8314655,36.0946552 C15.8314655,36.377069 15.9121552,36.6051724 16.0750862,36.7789655 C16.2372414,36.9527586 16.4389655,37.1040517 16.6794828,37.2351724 C16.92,37.3662931 17.1814655,37.4935345 17.4646552,37.6168966 C17.747069,37.7402586 18.0108621,37.8915517 18.2552586,38.0676724 C18.4996552,38.2437931 18.7021552,38.4656897 18.8650862,38.7302586 C19.0272414,38.9956034 19.1087069,39.3362069 19.1087069,39.7536207 C19.1118103,40.0368103 19.0536207,40.3106897 18.9364655,40.5760345 Z M24.182069,41.9392241 L22.5271552,41.9392241 L20.097931,34.0789655 L21.5511207,34.0789655 L23.3650862,40.8250862 L25.2853448,34.0789655 L26.7276724,34.0789655 L24.182069,41.9392241 Z" id="Shape"></path>
                    <rect id="Rectangle" x="14.3534483" y="24.0517241" width="14.7413793" height="1.55172414"></rect>
                </g>
            </g>
        </g>
    </g>
</svg>