<?xml version="1.0" encoding="UTF-8"?>
<svg width="21px" height="30px" viewBox="0 0 21 30" version="1.1" xmlns="http://www.w3.org/2000/svg" xmlns:xlink="http://www.w3.org/1999/xlink">
    <!-- Generator: Sketch 56.3 (81716) - https://sketch.com -->
    <title>file(6)</title>
    <desc>Created with Sketch.</desc>
    <g id="Symbols" stroke="none" stroke-width="1" fill="none" fill-rule="evenodd">
        <g id="Element/Icon-Logo/csv" transform="translate(-5.000000, 0.000000)" fill-rule="nonzero">
            <g id="file(6)" transform="translate(5.000000, 0.000000)">
                <polygon id="Path" fill="#E3E4D8" points="20.6895446 28.4481812 0 28.4481812 0 0 16.0345459 0 20.6895446 4.65522768"></polygon>
                <polygon id="Path" fill="#D0CEBD" points="16.0345459 0 16.0345459 4.65522768 20.6895446 4.65522768"></polygon>
                <polygon id="Path" fill="#2F9171" points="0 20.6895446 20.6895446 20.6895446 20.6895446 30 0 30"></polygon>
                <g id="Group" transform="translate(2.578125, 6.679688)" fill="#A09893">
                    <path d="M4.14596555,3.14781187 L0.525283828,3.14781187 C0.239868164,3.14781187 0.00801087891,2.91618346 0.00801087891,2.63076785 L0.00801087891,0.561676055 C0.00801087891,0.276260391 0.239868164,0.0444030469 0.525283828,0.0444030469 L4.14596555,0.0444030469 C4.43161008,0.0444030469 4.66323855,0.276260391 4.66323855,0.561676055 L4.66323855,2.63076785 C4.66323855,2.91618346 4.43161008,3.14781187 4.14596555,3.14781187 Z M1.04255678,2.11349484 L3.62869266,2.11349484 L3.62869266,1.07894895 L1.04255678,1.07894895 L1.04255678,2.11349484 Z" id="Shape"></path>
                    <path d="M7.76664732,3.14781187 L4.14596555,3.14781187 C3.86054994,3.14781187 3.62869266,2.91618346 3.62869266,2.63076785 L3.62869266,0.561676055 C3.62869266,0.276260391 3.86054994,0.0444030469 4.14596555,0.0444030469 L7.76664732,0.0444030469 C8.05229186,0.0444030469 8.28392027,0.276260391 8.28392027,0.561676055 L8.28392027,2.63076785 C8.28392027,2.91618346 8.05229186,3.14781187 7.76664732,3.14781187 Z M4.66323855,2.11349484 L7.24937438,2.11349484 L7.24937438,1.07894895 L4.66323855,1.07894895 L4.66323855,2.11349484 Z" id="Shape"></path>
                    <path d="M11.3873291,3.14781187 L7.76664732,3.14781187 C7.48123172,3.14781187 7.24937438,2.91618346 7.24937438,2.63076785 L7.24937438,0.561676055 C7.24937438,0.276260391 7.48123172,0.0444030469 7.76664732,0.0444030469 L11.3873291,0.0444030469 C11.6729736,0.0444030469 11.9046021,0.276260391 11.9046021,0.561676055 L11.9046021,2.63076785 C11.9046021,2.91618346 11.6729736,3.14781187 11.3873291,3.14781187 Z M8.28392027,2.11349484 L10.8700562,2.11349484 L10.8700562,1.07894895 L8.28392027,1.07894895 L8.28392027,2.11349484 Z" id="Shape"></path>
                    <path d="M15.0080109,3.14781187 L11.3873291,3.14781187 C11.1019134,3.14781187 10.8700562,2.91618346 10.8700562,2.63076785 L10.8700562,0.561676055 C10.8700562,0.276260391 11.1019134,0.0444030469 11.3873291,0.0444030469 L15.0080109,0.0444030469 C15.2936554,0.0444030469 15.5252838,0.276260391 15.5252838,0.561676055 L15.5252838,2.63076785 C15.5252838,2.91618346 15.2936554,3.14781187 15.0080109,3.14781187 Z M11.9046021,2.11349484 L14.4907379,2.11349484 L14.4907379,1.07894895 L11.9046021,1.07894895 L11.9046021,2.11349484 Z" id="Shape"></path>
                    <path d="M4.14596555,5.21690367 L0.525283828,5.21690367 C0.239868164,5.21690367 0.00801087891,4.98504639 0.00801087891,4.69963072 L0.00801087891,2.63076785 C0.00801087891,2.34512332 0.239868164,2.11349484 0.525283828,2.11349484 L4.14596555,2.11349484 C4.43161008,2.11349484 4.66323855,2.34512332 4.66323855,2.63076785 L4.66323855,4.69963072 C4.66323855,4.98504639 4.43161008,5.21690367 4.14596555,5.21690367 Z M1.04255678,4.18235777 L3.62869266,4.18235777 L3.62869266,3.14781187 L1.04255678,3.14781187 L1.04255678,4.18235777 Z" id="Shape"></path>
                    <path d="M7.76664732,5.21690367 L4.14596555,5.21690367 C3.86054994,5.21690367 3.62869266,4.98504639 3.62869266,4.69963072 L3.62869266,2.63076785 C3.62869266,2.34512332 3.86054994,2.11349484 4.14596555,2.11349484 L7.76664732,2.11349484 C8.05229186,2.11349484 8.28392027,2.34512332 8.28392027,2.63076785 L8.28392027,4.69963072 C8.28392027,4.98504639 8.05229186,5.21690367 7.76664732,5.21690367 Z M4.66323855,4.18235777 L7.24937438,4.18235777 L7.24937438,3.14781187 L4.66323855,3.14781187 L4.66323855,4.18235777 Z" id="Shape"></path>
                    <path d="M11.3873291,5.21690367 L7.76664732,5.21690367 C7.48123172,5.21690367 7.24937438,4.98504639 7.24937438,4.69963072 L7.24937438,2.63076785 C7.24937438,2.34512332 7.48123172,2.11349484 7.76664732,2.11349484 L11.3873291,2.11349484 C11.6729736,2.11349484 11.9046021,2.34512332 11.9046021,2.63076785 L11.9046021,4.69963072 C11.9046021,4.98504639 11.6729736,5.21690367 11.3873291,5.21690367 Z M8.28392027,4.18235777 L10.8700562,4.18235777 L10.8700562,3.14781187 L8.28392027,3.14781187 L8.28392027,4.18235777 Z" id="Shape"></path>
                    <path d="M15.0080109,5.21690367 L11.3873291,5.21690367 C11.1019134,5.21690367 10.8700562,4.98504639 10.8700562,4.69963072 L10.8700562,2.63076785 C10.8700562,2.34512332 11.1019134,2.11349484 11.3873291,2.11349484 L15.0080109,2.11349484 C15.2936554,2.11349484 15.5252838,2.34512332 15.5252838,2.63076785 L15.5252838,4.69963072 C15.5252838,4.98504639 15.2936554,5.21690367 15.0080109,5.21690367 Z M11.9046021,4.18235777 L14.4907379,4.18235777 L14.4907379,3.14781187 L11.9046021,3.14781187 L11.9046021,4.18235777 Z" id="Shape"></path>
                    <path d="M4.14596555,7.2857666 L0.525283828,7.2857666 C0.239868164,7.2857666 0.00801087891,7.05413818 0.00801087891,6.76849365 L0.00801087891,4.69963072 C0.00801087891,4.41421512 0.239868164,4.18235777 0.525283828,4.18235777 L4.14596555,4.18235777 C4.43161008,4.18235777 4.66323855,4.41421512 4.66323855,4.69963072 L4.66323855,6.76849365 C4.66323855,7.05413818 4.43161008,7.2857666 4.14596555,7.2857666 Z M1.04255678,6.25144957 L3.62869266,6.25144957 L3.62869266,5.21690367 L1.04255678,5.21690367 L1.04255678,6.25144957 Z" id="Shape"></path>
                    <path d="M7.76664732,7.2857666 L4.14596555,7.2857666 C3.86054994,7.2857666 3.62869266,7.05413818 3.62869266,6.76849365 L3.62869266,4.69963072 C3.62869266,4.41421512 3.86054994,4.18235777 4.14596555,4.18235777 L7.76664732,4.18235777 C8.05229186,4.18235777 8.28392027,4.41421512 8.28392027,4.69963072 L8.28392027,6.76849365 C8.28392027,7.05413818 8.05229186,7.2857666 7.76664732,7.2857666 Z M4.66323855,6.25144957 L7.24937438,6.25144957 L7.24937438,5.21690367 L4.66323855,5.21690367 L4.66323855,6.25144957 Z" id="Shape"></path>
                    <path d="M11.3873291,7.2857666 L7.76664732,7.2857666 C7.48123172,7.2857666 7.24937438,7.05413818 7.24937438,6.76849365 L7.24937438,4.69963072 C7.24937438,4.41421512 7.48123172,4.18235777 7.76664732,4.18235777 L11.3873291,4.18235777 C11.6729736,4.18235777 11.9046021,4.41421512 11.9046021,4.69963072 L11.9046021,6.76849365 C11.9046021,7.05413818 11.6729736,7.2857666 11.3873291,7.2857666 Z M8.28392027,6.25144957 L10.8700562,6.25144957 L10.8700562,5.21690367 L8.28392027,5.21690367 L8.28392027,6.25144957 Z" id="Shape"></path>
                    <path d="M15.0080109,7.2857666 L11.3873291,7.2857666 C11.1019134,7.2857666 10.8700562,7.05413818 10.8700562,6.76849365 L10.8700562,4.69963072 C10.8700562,4.41421512 11.1019134,4.18235777 11.3873291,4.18235777 L15.0080109,4.18235777 C15.2936554,4.18235777 15.5252838,4.41421512 15.5252838,4.69963072 L15.5252838,6.76849365 C15.5252838,7.05413818 15.2936554,7.2857666 15.0080109,7.2857666 Z M11.9046021,6.25144957 L14.4907379,6.25144957 L14.4907379,5.21690367 L11.9046021,5.21690367 L11.9046021,6.25144957 Z" id="Shape"></path>
                    <path d="M4.14596555,9.3548584 L0.525283828,9.3548584 C0.239868164,9.3548584 0.00801087891,9.12300111 0.00801087891,8.83758545 L0.00801087891,6.76849365 C0.00801087891,6.48307799 0.239868164,6.25144957 0.525283828,6.25144957 L4.14596555,6.25144957 C4.43161008,6.25144957 4.66323855,6.48307799 4.66323855,6.76849365 L4.66323855,8.83758545 C4.66323855,9.12300111 4.43161008,9.3548584 4.14596555,9.3548584 Z M1.04255678,8.3203125 L3.62869266,8.3203125 L3.62869266,7.2857666 L1.04255678,7.2857666 L1.04255678,8.3203125 Z" id="Shape"></path>
                    <path d="M7.76664732,9.3548584 L4.14596555,9.3548584 C3.86054994,9.3548584 3.62869266,9.12300111 3.62869266,8.83758545 L3.62869266,6.76849365 C3.62869266,6.48307799 3.86054994,6.25144957 4.14596555,6.25144957 L7.76664732,6.25144957 C8.05229186,6.25144957 8.28392027,6.48307799 8.28392027,6.76849365 L8.28392027,8.83758545 C8.28392027,9.12300111 8.05229186,9.3548584 7.76664732,9.3548584 Z M4.66323855,8.3203125 L7.24937438,8.3203125 L7.24937438,7.2857666 L4.66323855,7.2857666 L4.66323855,8.3203125 Z" id="Shape"></path>
                    <path d="M11.3873291,9.3548584 L7.76664732,9.3548584 C7.48123172,9.3548584 7.24937438,9.12300111 7.24937438,8.83758545 L7.24937438,6.76849365 C7.24937438,6.48307799 7.48123172,6.25144957 7.76664732,6.25144957 L11.3873291,6.25144957 C11.6729736,6.25144957 11.9046021,6.48307799 11.9046021,6.76849365 L11.9046021,8.83758545 C11.9046021,9.12300111 11.6729736,9.3548584 11.3873291,9.3548584 Z M8.28392027,8.3203125 L10.8700562,8.3203125 L10.8700562,7.2857666 L8.28392027,7.2857666 L8.28392027,8.3203125 Z" id="Shape"></path>
                    <path d="M15.0080109,9.3548584 L11.3873291,9.3548584 C11.1019134,9.3548584 10.8700562,9.12300111 10.8700562,8.83758545 L10.8700562,6.76849365 C10.8700562,6.48307799 11.1019134,6.25144957 11.3873291,6.25144957 L15.0080109,6.25144957 C15.2936554,6.25144957 15.5252838,6.48307799 15.5252838,6.76849365 L15.5252838,8.83758545 C15.5252838,9.12300111 15.2936554,9.3548584 15.0080109,9.3548584 Z M11.9046021,8.3203125 L14.4907379,8.3203125 L14.4907379,7.2857666 L11.9046021,7.2857666 L11.9046021,8.3203125 Z" id="Shape"></path>
                    <path d="M4.14596555,11.4237213 L0.525283828,11.4237213 C0.239868164,11.4237213 0.00801087891,11.1920929 0.00801087891,10.9064484 L0.00801087891,8.83758545 C0.00801087891,8.55194092 0.239868164,8.3203125 0.525283828,8.3203125 L4.14596555,8.3203125 C4.43161008,8.3203125 4.66323855,8.55194092 4.66323855,8.83758545 L4.66323855,10.9064484 C4.66323855,11.1920929 4.43161008,11.4237213 4.14596555,11.4237213 L4.14596555,11.4237213 Z M1.04255678,10.3891754 L3.62869266,10.3891754 L3.62869266,9.3548584 L1.04255678,9.3548584 L1.04255678,10.3891754 Z" id="Shape"></path>
                    <path d="M7.76664732,11.4237213 L4.14596555,11.4237213 C3.86054994,11.4237213 3.62869266,11.1920929 3.62869266,10.9064484 L3.62869266,8.83758545 C3.62869266,8.55194092 3.86054994,8.3203125 4.14596555,8.3203125 L7.76664732,8.3203125 C8.05229186,8.3203125 8.28392027,8.55194092 8.28392027,8.83758545 L8.28392027,10.9064484 C8.28392027,11.1920929 8.05229186,11.4237213 7.76664732,11.4237213 L7.76664732,11.4237213 Z M4.66323855,10.3891754 L7.24937438,10.3891754 L7.24937438,9.3548584 L4.66323855,9.3548584 L4.66323855,10.3891754 Z" id="Shape"></path>
                    <path d="M11.3873291,11.4237213 L7.76664732,11.4237213 C7.48123172,11.4237213 7.24937438,11.1920929 7.24937438,10.9064484 L7.24937438,8.83758545 C7.24937438,8.55194092 7.48123172,8.3203125 7.76664732,8.3203125 L11.3873291,8.3203125 C11.6729736,8.3203125 11.9046021,8.55194092 11.9046021,8.83758545 L11.9046021,10.9064484 C11.9046021,11.1920929 11.6729736,11.4237213 11.3873291,11.4237213 L11.3873291,11.4237213 Z M8.28392027,10.3891754 L10.8700562,10.3891754 L10.8700562,9.3548584 L8.28392027,9.3548584 L8.28392027,10.3891754 Z" id="Shape"></path>
                    <path d="M15.0080109,11.4237213 L11.3873291,11.4237213 C11.1019134,11.4237213 10.8700562,11.1920929 10.8700562,10.9064484 L10.8700562,8.83758545 C10.8700562,8.55194092 11.1019134,8.3203125 11.3873291,8.3203125 L15.0080109,8.3203125 C15.2936554,8.3203125 15.5252838,8.55194092 15.5252838,8.83758545 L15.5252838,10.9064484 C15.5252838,11.1920929 15.2936554,11.4237213 15.0080109,11.4237213 L15.0080109,11.4237213 Z M11.9046021,10.3891754 L14.4907379,10.3891754 L14.4907379,9.3548584 L11.9046021,9.3548584 L11.9046021,10.3891754 Z" id="Shape"></path>
                </g>
                <path d="M6.20681766,28.4481812 L4.14253236,28.4481812 C3.28445438,28.4481812 2.58613588,27.7500915 2.58613588,26.8917847 L2.58613588,23.79776 C2.58613588,22.939682 3.28445438,22.2413636 4.14253236,22.2413636 L6.20681766,22.2413636 C6.49246219,22.2413636 6.72409055,22.4729919 6.72409055,22.7586364 C6.72409055,23.0440521 6.49246219,23.2759095 6.20681766,23.2759095 L4.14253236,23.2759095 C3.85437012,23.2759095 3.62068178,23.5102845 3.62068178,23.79776 L3.62068178,26.8917847 C3.62068178,27.1794891 3.85437012,27.4138641 4.14253236,27.4138641 L6.20681766,27.4138641 C6.49246219,27.4138641 6.72409055,27.6454925 6.72409055,27.9311371 C6.72409055,28.2165527 6.49246219,28.4481812 6.20681766,28.4481812 Z" id="Path" fill="#FFFFFF"></path>
                <path d="M10.0861359,28.4481812 L8.27590945,28.4481812 C7.99026492,28.4481812 7.75863645,28.2165527 7.75863645,27.9311371 C7.75863645,27.6454925 7.99026492,27.4138641 8.27590945,27.4138641 L10.0861359,27.4138641 C10.513916,27.4138641 10.8620453,27.0657349 10.8620453,26.6379547 C10.8620453,26.2101745 10.513916,25.8620453 10.0861359,25.8620453 L9.56886293,25.8620453 C8.57070926,25.8620453 7.75863645,25.0499725 7.75863645,24.0518188 C7.75863645,23.0534363 8.57070926,22.2413636 9.56886293,22.2413636 L11.3793182,22.2413636 C11.6647339,22.2413636 11.8965912,22.4729919 11.8965912,22.7586364 C11.8965912,23.0440521 11.6647339,23.2759095 11.3793182,23.2759095 L9.56886293,23.2759095 C9.14131166,23.2759095 8.79318234,23.6240387 8.79318234,24.0518188 C8.79318234,24.4793701 9.14131166,24.8274994 9.56886293,24.8274994 L10.0861359,24.8274994 C11.0845184,24.8274994 11.8965912,25.6395721 11.8965912,26.6379547 C11.8965912,27.6361084 11.0845184,28.4481812 10.0861359,28.4481812 Z" id="Path" fill="#FFFFFF"></path>
                <path d="M15.5172729,28.4481812 C15.3057861,28.4481812 15.1158142,28.3195495 15.0366211,28.1233978 L12.9677582,22.9511261 C12.8617859,22.6856232 12.9904175,22.3846436 13.2559204,22.2786712 C13.5216522,22.1731567 13.8221741,22.3017884 13.9283753,22.5668335 L15.5172729,26.53862 L17.1057129,22.5668335 C17.2121429,22.3017884 17.512207,22.1720123 17.7781677,22.2786712 C18.0434418,22.3851013 18.1723022,22.6856232 18.0661011,22.9511261 L15.9972381,28.1233978 C15.9187317,28.3195495 15.7287598,28.4481812 15.5172729,28.4481812 Z" id="Path" fill="#FFFFFF"></path>
            </g>
        </g>
    </g>
</svg>