<?xml version="1.0" encoding="UTF-8"?>
<svg width="58px" height="65px" viewBox="0 0 58 65" version="1.1" xmlns="http://www.w3.org/2000/svg" xmlns:xlink="http://www.w3.org/1999/xlink">
    <!-- Generator: Sketch 55.2 (78181) - https://sketchapp.com -->
    <title>csv-file-format-extension-1</title>
    <desc>Created with Sketch.</desc>
    <g id="Final-Screens" stroke="none" stroke-width="1" fill="none" fill-rule="evenodd">
        <g id="customer-master-v1.2-copy-2" transform="translate(-484.000000, -224.000000)" fill="#9B9B9B" fill-rule="nonzero">
            <g id="Group-6" transform="translate(270.000000, 184.000000)">
                <g id="csv-file-format-extension-1" transform="translate(214.000000, 40.000000)">
                    <path d="M53.8559068,23.250181 L52.2986838,23.250181 L52.2986838,15.7185692 C52.2986838,15.6712676 52.291113,15.6243218 52.2849617,15.5763089 C52.2824776,15.2775625 52.1874874,14.983558 51.9831936,14.7511996 L39.4779737,0.435909034 C39.4743066,0.431878327 39.4704029,0.430692826 39.4679187,0.42701777 C39.3935118,0.343202788 39.3065656,0.27385093 39.2146511,0.214101636 C39.1873252,0.195489257 39.1599993,0.180196283 39.1313721,0.164429108 C39.0518785,0.12115829 38.9674166,0.0847633829 38.8804704,0.0585637919 C38.8569299,0.0523991822 38.8358736,0.0426780669 38.8123331,0.0362763569 C38.7176978,0.0139889219 38.619632,0 38.5205016,0 L7.78711361,0 C6.3836729,0 5.24367305,1.14389074 5.24367305,2.5490661 L5.24367305,23.2494697 L3.68656835,23.2494697 C1.67888158,23.2494697 0.051037037,24.8802461 0.051037037,26.8925169 L0.051037037,45.8380221 C0.051037037,47.8493446 1.67888158,49.4817807 3.68656835,49.4817807 L5.24367305,49.4817807 L5.24367305,62.4510525 C5.24367305,63.8563464 6.3836729,65 7.78711361,65 L49.755125,65 C51.1572645,65 52.2986838,63.8563464 52.2986838,62.4510525 L52.2986838,49.4818992 L53.8559068,49.4818992 C55.8628838,49.4818992 57.490965,47.8501745 57.490965,45.8387334 L57.490965,26.8932282 C57.490965,24.8803646 55.8628838,23.250181 53.8559068,23.250181 Z M7.78711361,2.5490661 L37.2486039,2.5490661 L37.2486039,15.5902979 C37.2486039,16.294486 37.8185447,16.8648309 38.5203833,16.8648309 L49.755125,16.8648309 L49.755125,23.2500625 L7.78711361,23.2500625 L7.78711361,2.5490661 Z M26.9343083,37.1275472 C23.7782228,36.0260975 21.7219172,34.2760596 21.7219172,31.5095725 C21.7219172,28.2608232 24.4262377,25.7755371 28.9062703,25.7755371 C31.0482208,25.7755371 32.6262635,26.2273318 33.7525413,26.7366234 L32.7955423,30.2101439 C32.0349115,29.8418085 30.6825738,29.3053689 28.8220449,29.3053689 C26.9628172,29.3053689 26.0611798,30.1528841 26.0611798,31.1411185 C26.0611798,32.3559022 27.1313862,32.8919862 29.5839769,33.8241463 C32.9365488,35.0664337 34.5145916,36.8162344 34.5145916,39.4996179 C34.5145916,42.6896849 32.0634204,45.4017575 26.8500829,45.4017575 C24.6808065,45.4017575 22.5383828,44.8355618 21.4680581,44.2435221 L22.3410683,40.6851198 C23.4970378,41.2795304 25.2718036,41.8713329 27.1040603,41.8713329 C29.0761405,41.8713329 30.1191392,41.0523882 30.1191392,39.8090339 C30.1185478,38.6223465 29.216319,37.9453064 26.9343083,37.1275472 Z M4.5596968,35.8841929 C4.5596968,29.3898951 9.18191886,25.7755371 14.9286442,25.7755371 C17.155175,25.7755371 18.8457154,26.2273318 19.607056,26.6230524 L18.7326263,30.0391945 C17.8596161,29.6735857 16.6468655,29.335125 15.1257222,29.335125 C11.7162508,29.335125 9.06835657,31.3949344 9.06835657,35.6300213 C9.06835657,39.4423582 11.3219767,41.842051 15.1552957,41.842051 C16.4502607,41.842051 17.8875335,41.5601387 18.7326263,41.2210852 L19.3812326,44.5815087 C18.5919747,44.9774663 16.8173272,45.4017575 14.506571,45.4017575 C7.94125077,45.4017575 4.5596968,41.30573 4.5596968,35.8841929 Z M49.755125,61.760142 L7.78711361,61.760142 L7.78711361,49.4818992 L49.755125,49.4818992 L49.755125,61.760142 Z M46.9141749,45.1181854 L41.8986251,45.1181854 L35.8123957,26.0866128 L40.5189614,26.0866128 L42.8287712,34.1354591 C43.4769044,36.3933659 44.0683747,38.5675763 44.520258,40.9398841 L44.6041285,40.9398841 C45.0829828,38.6521026 45.6740982,36.3932474 46.322468,34.2189184 L48.7459584,26.0866128 L53.3119907,26.0866128 L46.9141749,45.1181854 Z" id="Shape"></path>
                </g>
            </g>
        </g>
    </g>
</svg>