<svg xmlns="http://www.w3.org/2000/svg" width="1258.755" height="1382.818" viewBox="0 0 1258.755 1382.818">
  <g id="noun_User_3908100" transform="translate(-4.5 -0.3)">
    <path id="Path_86" data-name="Path 86" d="M395.19,744.68c204.914,0,372.19-165.882,372.19-372.19C767.38,167.576,601.5.3,395.19.3S23,167.576,23,372.49,188.882,744.68,395.19,744.68ZM570.83,520.251c-16.728,55.759-89.214,97.578-175.64,97.578S236.277,576.01,219.55,520.251Z" transform="translate(239.384 0)" fill="#414141"/>
    <path id="Path_87" data-name="Path 87" d="M1263.255,415.144v122.67c0,18.122-13.94,39.031-30.667,46-52.971,23.7-182.61,68.3-429.343,82.244H773.971c-43.213,1.394-90.608,2.788-140.791,2.788-358.25,0-533.89-58.547-598.013-87.82-16.728-6.97-30.667-27.879-30.667-46V412.356c0-184,139.4-335.947,317.825-356.856,5.576,0,13.94,1.394,18.122,5.576,82.244,59.941,182.61,94.79,292.734,94.79,108.73,0,210.49-36.243,292.734-94.79C930.1,58.288,938.46,55.5,944.036,55.5h0C1123.858,79.2,1263.255,231.14,1263.255,415.144Z" transform="translate(0 714.272)" fill="#414141"/>
  </g>
</svg>
