<?xml version="1.0" encoding="UTF-8"?>
<svg version="1.1" viewBox="0 0 24 22" xmlns="http://www.w3.org/2000/svg">
<title>export(2)</title>
<desc>Created with Sketch.</desc>
<g fill="none" fill-rule="evenodd">
<g transform="translate(0 -1)" fill="#fff">
<g transform="translate(0 1)">
<path d="m11.413 15.294c-0.54033 0-0.97826-0.438-0.97826-0.97826s0.438-0.97826 0.97826-0.97826l4.2391 6.53e-5h1.9565v-1.0435-3.1306h-1.9565-1.3835-4.8122c-0.5402 0-0.97826-0.438-0.97826-0.97826v-4.8122-1.3835-1.9565h-7.5c-0.5402 0-0.97826 0.438-0.97826 0.97826v19.565c0 0.54026 0.43807 0.97826 0.97826 0.97826h15.652c0.54033 0 0.97826-0.438 0.97826-0.97826v-3.2825-2h-1.9565l-4.2391-6.52e-5z"/>
<path d="m23.93 14.219c-0.0014348-0.014674-0.0041739-0.028826-0.0062609-0.043304-0.0024782-0.017152-0.0044347-0.034304-0.0078261-0.051261-0.003326-0.016565-0.0077608-0.032544-0.01187-0.048717-0.0037826-0.014739-0.0069783-0.029544-0.011413-0.044152-0.0047608-0.015783-0.010696-0.031109-0.016239-0.0465-0.0052826-0.014674-0.010109-0.029478-0.016044-0.043956-6e-3 -0.014413-0.012978-0.028174-0.01963-0.04213-0.0069783-0.015-0.01363-0.03-0.021456-0.044609-0.0071739-0.01337-0.015326-0.026087-0.023152-0.03913-0.0086087-0.014413-0.016761-0.028891-0.026087-0.042913-0.0095217-0.014283-0.020217-0.027717-0.030456-0.041413-0.0088695-0.01187-0.017087-0.024-0.026478-0.035478-0.019565-0.023804-0.040174-0.046565-0.061826-0.068413-0.0010435-0.0010434-0.0018261-0.0021521-0.0029348-0.0032608l-2.4456-2.4457c-0.38198-0.38198-1.0014-0.38198-1.3835 0-0.38204 0.38198-0.38204 1.0014-6.52e-5 1.3835l0.77563 0.77576h-1.2809-1.7051v1.9565h0.83563 2.1505l-0.77563 0.77563c-0.38204 0.38204-0.38204 1.0014 0 1.3835 0.19096 0.19109 0.44139 0.28657 0.6917 0.28657 0.25043 0 0.50074-0.095478 0.69176-0.28657l2.4455-2.4456c5.217e-4 -5.217e-4 9.13e-4 -0.0011087 0.0014348-0.0015 0.022304-0.02237 0.04337-0.045717 0.063391-0.070109 0.0095217-0.011544 0.017739-0.023739 0.026674-0.035674 0.010174-0.01363 0.020739-0.027 0.030326-0.041217 0.0094565-0.014087 0.017609-0.028761 0.026217-0.043174 0.0076304-0.012913 0.015783-0.025565 0.022956-0.03887 0.0078913-0.014674 0.014544-0.02987 0.021652-0.04487 0.006587-0.013891 0.0135-0.027587 0.019435-0.041935 0.0060652-0.014544 0.010891-0.029413 0.016174-0.044217 0.0055435-0.015261 0.011413-0.030456 0.016109-0.046174 0.0044348-0.014674 0.0077609-0.029609 0.011478-0.044544 0.0041087-0.016044 0.0086087-0.031956 0.01187-0.048326 0.0033913-0.017022 0.0053478-0.034174 0.0078261-0.051391 0.0020869-0.014413 0.0047608-0.028565 0.0062608-0.043239 0.0031305-0.03163 0.0047609-0.063456 0.0047609-0.095217 0-4.565e-4 1.304e-4 -9.131e-4 1.304e-4 -0.0013044 0-5.217e-4 -1.304e-4 -0.0011087-1.304e-4 -0.0016304-6.52e-5 -0.031761-0.0016957-0.063391-0.0048261-0.094891z"/>
<polygon points="17.036 7.2065 10.435 0.60567 10.435 3.3726 10.435 7.2065 14.269 7.2065"/>
</g>
</g>
</g>
</svg>
