<?xml version="1.0" encoding="UTF-8"?>
<svg width="117px" height="128px" viewBox="0 0 117 128" version="1.1" xmlns="http://www.w3.org/2000/svg" xmlns:xlink="http://www.w3.org/1999/xlink">
    <!-- Generator: Sketch 55.2 (78181) - https://sketchapp.com -->
    <title>file</title>
    <desc>Created with Sketch.</desc>
    <g id="oman-changes" stroke="none" stroke-width="1" fill="none" fill-rule="evenodd" opacity="0.400000006">
        <g id="customer-master-import-file" transform="translate(-909.000000, -291.000000)" fill-rule="nonzero">
            <g id="Group-2" transform="translate(776.000000, 291.000000)">
                <g id="file" transform="translate(133.000000, 0.000000)">
                    <path d="M87.236328,55.4101562 L87.236328,31.1865235 C87.236328,30.493164 86.9160155,29.852539 86.4628905,29.345703 L59.3046875,0.8271485 C58.7978515,0.29394525 58.0771485,0 57.357422,0 L14.298828,0 C6.3496095,0 0,6.482422 0,14.4326172 L0,95.8535155 C0,103.803711 6.3496095,110.179688 14.298828,110.179688 L48.2871095,110.179688 C54.7158202,120.850586 66.4013672,128 79.7128905,128 C99.9345702,128 116.448286,111.566406 116.448286,91.3183595 C116.475586,73.6308595 103.776367,58.8515625 87.236328,55.4101562 Z M60.0253905,9.36425775 L78.2460938,28.544922 L66.4277345,28.544922 C62.90625,28.544922 60.0253905,25.6376952 60.0253905,22.116211 L60.0253905,9.36425775 Z M14.298828,104.84375 C9.310547,104.84375 5.3359375,100.841797 5.3359375,95.8535155 L5.3359375,14.4326172 C5.3359375,9.41699225 9.310547,5.3359375 14.298828,5.3359375 L54.689453,5.3359375 L54.689453,22.116211 C54.689453,28.5986328 59.9453125,33.8808595 66.4277345,33.8808595 L81.9003905,33.8808595 L81.9003905,54.7158203 C81.100586,54.689453 80.459961,54.609375 79.7666015,54.609375 C70.4560547,54.609375 61.892578,58.1845703 55.4365235,63.7871095 L21.555664,63.7871095 C20.0878905,63.7871095 18.8876952,64.9873048 18.8876952,66.4541015 C18.8876952,67.921875 20.0878905,69.1220703 21.555664,69.1220703 L50.4746095,69.1220703 C48.580078,71.790039 47.0058595,74.4580077 45.779297,77.392578 L21.555664,77.392578 C20.0878905,77.392578 18.8876952,78.5927735 18.8876952,80.060547 C18.8876952,81.5273438 20.0878905,82.7285155 21.555664,82.7285155 L44.044922,82.7285155 C43.3779297,85.3964845 43.03125,88.357422 43.03125,91.3183595 C43.03125,96.1201173 43.9648437,100.869141 45.6455077,104.871094 L14.298828,104.871094 L14.298828,104.84375 Z M79.7402345,122.691406 C62.453125,122.691406 48.3935547,108.631836 48.3935547,91.3447265 C48.3935547,74.0576172 62.4257812,59.998047 79.7402345,59.998047 C97.053711,59.998047 111.085938,74.0576172 111.085938,91.3447265 C111.085938,108.631836 97.0273438,122.691406 79.7402345,122.691406 Z" id="Shape" fill="#333333"></path>
                    <path d="M21.555664,55.756836 L48.580078,55.756836 C50.0478515,55.756836 51.248047,54.555664 51.248047,53.0888672 C51.248047,51.6210938 50.0478515,50.4208985 48.580078,50.4208985 L21.555664,50.4208985 C20.0878905,50.4208985 18.8876952,51.6210938 18.8876952,53.0888672 C18.8876952,54.555664 20.0878905,55.756836 21.555664,55.756836 Z" id="Path" fill="#000000"></path>
                    <path d="M81.633789,71.65625 C81.126953,71.123047 80.4335937,70.8027345 79.6865235,70.8027345 C78.939453,70.8027345 78.2460937,71.123047 77.7392577,71.65625 L62.1054687,88.4365235 C61.091797,89.5039062 61.171875,91.2109375 62.2392577,92.1982422 C63.3066405,93.211914 65.040039,93.131836 66.053711,92.0654297 L77.0986327,80.2470702 L77.0986327,109.378906 C77.0986327,110.84668 78.298828,112.046875 79.7666015,112.046875 C81.2333985,112.046875 82.4345702,110.84668 82.4345702,109.378906 L82.4345702,80.2470702 L93.3984375,92.0654297 C93.9326172,92.625 94.6259765,92.9189452 95.3466797,92.9189452 C95.986328,92.9189452 96.626953,92.678711 97.1601562,92.1982422 C98.227539,91.1845702 98.3076172,89.5039062 97.2939452,88.4365235 L81.633789,71.65625 Z" id="Path" fill="#000000"></path>
                </g>
            </g>
        </g>
    </g>
</svg>