<?xml version="1.0" encoding="UTF-8"?>
<svg version="1.1" viewBox="0 0 24 22" xmlns="http://www.w3.org/2000/svg">
<title>spreadsheet-cell-row(1)</title>
<desc>Created with Sketch.</desc>
<g fill="none" fill-rule="evenodd">
<g transform="translate(0 -1)" fill="#fff">
<g transform="translate(0 1)">
<path d="m23.102 0.046228h-22.205c-0.49493 0-0.89654 0.40247-0.89654 0.89654v19.643c0 0.30357 0.15216 0.57111 0.38416 0.73358v0.14132h0.3214c0.06153 0.01353 0.12521 0.02153 0.19098 0.02153h22.205c0.065181 0 0.12864-8e-3 0.19034-0.02153h0.04408v-0.013476c0.38024-0.10405 0.66234-0.44897 0.66234-0.86142v-19.643c0-0.49434-0.40258-0.89681-0.89675-0.89681zm-13.089 20.646h-5.7009v-2.4338h5.7009v2.4338zm0-3.2024h-5.7009v-2.524h5.7009v2.524zm0-3.2923h-5.7009v-2.6648h5.7009v2.6648zm0-3.4333h-5.7009v-2.8825h5.7009v2.8825zm0-3.6511h-5.7009v-2.8184h5.7009v2.8184zm0-3.5871h-5.7009v-2.7119h5.7009v2.7119zm6.5341 17.166h-5.7655v-2.4338h5.7655v2.4338zm0-3.2024h-5.7655v-2.524h5.7655v2.524zm0-3.2923h-5.7655v-2.6648h5.7655v2.6648zm0-3.4333h-5.7655v-2.8825h5.7655v2.8825zm0-3.6511h-5.7655v-2.8184h5.7655v2.8184zm0-3.5871h-5.7655v-2.7119h5.7655v2.7119zm6.6827 17.06c0 0.045369-0.025772 0.083758-0.061691 0.10631h-5.8523v-2.4338h5.914v2.3275zm0-3.0961h-5.914v-2.524h5.914v2.524zm0-3.2923h-5.914v-2.6648h5.914v2.6648zm0-3.4333h-5.914v-2.8825h5.914v2.8825zm0-3.6511h-5.914v-2.8184h5.914v2.8184zm5.37e-5 -3.5871h-5.9141v-2.7119h5.786c0.070443 0 0.12811 0.057611 0.12811 0.12827v2.5837zm-13.788 10.071h-4.6129v-1.6043h4.6129v1.6043h5.369e-5zm-0.028886 3.607h-4.6129v-1.6043h4.6129v1.6043h5.369e-5zm0-7.2h-4.6129v-1.6043h4.6129v1.6043h5.369e-5zm0-3.6h-4.6129v-1.6043h4.6129v1.6043h5.369e-5zm0-3.6h-4.6129v-1.6043h4.6129v1.6043h5.369e-5zm6.5474 10.854h-4.6129v-1.6045h4.6129v1.6045zm-0.028886 3.607h-4.6129v-1.6045h4.6129v1.6045zm0-7.2h-4.6129v-1.6045h4.6129v1.6045zm0-3.6h-4.6129v-1.6045h4.6129v1.6045zm0-3.6h-4.6129v-1.6045h4.6129v1.6045zm6.7081 10.758h-4.6128v-1.6045h4.6128v1.6045zm-0.028886 3.607h-4.6128v-1.6045h4.6128v1.6045zm0-7.2h-4.6128v-1.6045h4.6128v1.6045zm0-3.6h-4.6128v-1.6045h4.6128v1.6045zm0-3.6h-4.6128v-1.6045h4.6128v1.6045z"/>
</g>
</g>
</g>
</svg>
