<?xml version="1.0" encoding="UTF-8"?>
<svg width="25px" height="25px" viewBox="0 0 25 25" version="1.1" xmlns="http://www.w3.org/2000/svg" xmlns:xlink="http://www.w3.org/1999/xlink">
    <!-- Generator: Sketch 63.1 (92452) - https://sketch.com -->
    <title>Group 2</title>
    <desc>Created with Sketch.</desc>
    <g id="MDM" stroke="none" stroke-width="1" fill="none" fill-rule="evenodd">
        <g id="customer-master-Job-Types-Updated" transform="translate(-1394.000000, -69.000000)" fill-rule="nonzero">
            <g id="Group-2" transform="translate(1394.000000, 69.000000)">
                <g id="Button/S/Ghost/Default" fill="#FFFFFF" stroke="#0095E6">
                    <rect id="Frame" x="0.5" y="0.5" width="24" height="24" rx="12"></rect>
                </g>
                <g id="noun_help_2808859" transform="translate(1.000000, 1.000000)" fill="#0095E6">
                    <path d="M12.888,5.704 C11.7559475,5.43192405 10.5616426,5.69383194 9.64733335,6.41466958 C8.73302415,7.13550721 8.19962854,8.23571134 8.19999981,9.4 L9.8,9.4 C9.79526213,8.28905929 10.6195258,7.34891301 11.7215431,7.20830859 C12.8235604,7.06770417 13.8574783,7.77076837 14.1318372,8.84730861 C14.4061962,9.92384886 13.8348923,11.0360078 12.8,11.44 C11.8118551,11.8772067 11.1815647,12.8636111 11.1999998,13.944 L11.1999998,16 L12.8,16 L12.8,13.944 C12.7802905,13.513977 13.0197226,13.1138733 13.408,12.928 C15.1618205,12.2288096 16.1362987,10.3479985 15.696,8.512 C15.3778865,7.1138836 14.2861164,6.02211354 12.888,5.704 Z" id="Path"></path>
                    <rect id="Rectangle" x="11.2" y="16.8" width="1.6" height="1.6"></rect>
                </g>
            </g>
        </g>
    </g>
</svg>