<?xml version="1.0" encoding="UTF-8"?>
<svg version="1.1" viewBox="0 0 24 21" xmlns="http://www.w3.org/2000/svg">
<title>home-page</title>
<desc>Created with Sketch.</desc>
<g fill="none" fill-rule="evenodd">
<g transform="translate(0 -1)" fill="#fff">
<g transform="translate(0 1)">
<path d="m3.149 20.465s-0.020455 0.51771 0.48526 0.51771c0.62914 0 5.838-0.0068571 5.838-0.0068571l0.0085714-4.7837s-0.082286-0.78857 0.68314-0.78857h2.4223c0.90514 0 0.84943 0.78857 0.84943 0.78857l-0.010286 4.7683h5.7146c0.642 0 0.61286-0.64457 0.61286-0.64457v-8.8191l-8.0537-7.164-8.5501 7.164v8.9683z"/>
<path d="m0 10.83s0.726 1.338 2.3091 0l9.4611-8.004 8.8706 7.9543c1.8326 1.3217 2.5191 0 2.5191 0l-11.39-10.317-11.77 10.367z"/>
<polygon points="20.426 2.8071 18.144 2.8071 18.153 5.574 20.426 7.5017"/>
</g>
</g>
</g>
</svg>
