<?xml version="1.0" encoding="UTF-8"?>
<svg version="1.1" viewBox="0 0 22 24" xmlns="http://www.w3.org/2000/svg">
<title>import(1)</title>
<desc>Created with Sketch.</desc>
<g fill="none" fill-rule="evenodd">
<g transform="translate(-1)" fill="#fff">
<g transform="translate(1)">
<path d="m15.534 16.286h1.1807c0.23668 0 0.42857 0.19189 0.42857 0.42857v7.2857h2.5714v-7.2857c0-0.23668 0.19189-0.42857 0.42857-0.42857h1.1807l-2.8949-3.2164-2.8949 3.2164z"/>
<path d="m4.7143 3.8571v-3.3068l-4.0465 3.7354h3.618c0.23668 0 0.42857-0.19189 0.42857-0.42857z"/>
<path d="m18.857 10.286v-9.8571c0-0.23668-0.19189-0.42857-0.42857-0.42857h-12.857v3.8571c0 0.71003-0.57568 1.2857-1.2857 1.2857h-4.2857v15.857c0 0.23668 0.19189 0.42857 0.42857 0.42857h15.857v-4.2857h-1.7143c-0.16929 0-0.32268-0.099609-0.39132-0.25426-0.068848-0.15465-0.040388-0.33524 0.072824-0.46101l3.8571-4.2857c0.083287-0.086635 0.19838-0.13581 0.3185-0.13581s0.23521 0.049177 0.3185 0.13581l0.11007 0.12221v-1.9784zm-15.857-2.5714h1.7143c0.23668 0 0.42857 0.19189 0.42857 0.42857s-0.19189 0.42857-0.42857 0.42857h-1.7143c-0.23668 0-0.42857-0.19189-0.42857-0.42857s0.19189-0.42857 0.42857-0.42857zm12 10.286c0.23668 0 0.42857 0.19189 0.42857 0.42857s-0.19189 0.42857-0.42857 0.42857h-12c-0.23668 0-0.42857-0.19189-0.42857-0.42857s0.19189-0.42857 0.42857-0.42857h12zm-12.429-2.1429c0-0.23668 0.19189-0.42857 0.42857-0.42857h10.286c0.23668 0 0.42857 0.19189 0.42857 0.42857 0 0.23668-0.19189 0.42857-0.42857 0.42857h-10.286c-0.23668 0-0.42857-0.19189-0.42857-0.42857zm12.429-2.1429h-12c-0.23668 0-0.42857-0.19189-0.42857-0.42857s0.19189-0.42857 0.42857-0.42857h12c0.23668 0 0.42857 0.19189 0.42857 0.42857s-0.19189 0.42857-0.42857 0.42857zm0.85714-2.5714h-12.857c-0.23668 0-0.42857-0.19189-0.42857-0.42857s0.19189-0.42857 0.42857-0.42857h12.857c0.23668 0 0.42857 0.19189 0.42857 0.42857s-0.19189 0.42857-0.42857 0.42857zm0-2.5714h-9.4286c-0.23668 0-0.42857-0.19189-0.42857-0.42857s0.19189-0.42857 0.42857-0.42857h9.4286c0.23668 0 0.42857 0.19189 0.42857 0.42857s-0.19189 0.42857-0.42857 0.42857z"/>
</g>
</g>
</g>
</svg>
