<?xml version="1.0" encoding="UTF-8"?>
<svg width="18px" height="16px" viewBox="0 0 18 16" version="1.1" xmlns="http://www.w3.org/2000/svg" xmlns:xlink="http://www.w3.org/1999/xlink">
    <!-- Generator: Sketch 63.1 (92452) - https://sketch.com -->
    <title>noun_Error_1582584</title>
    <desc>Created with Sketch.</desc>
    <g id="MDM" stroke="none" stroke-width="1" fill="none" fill-rule="evenodd">
        <g id="customer-master-aside-copy" transform="translate(-923.000000, -406.000000)" fill="#DB5454" fill-rule="nonzero">
            <g id="noun_Error_1582584" transform="translate(923.000000, 406.000000)">
                <path d="M2.63381839,15.7592723 C1.72544296,15.7592723 0.887718956,15.2568622 0.413345123,14.4673606 C-0.121587072,13.5753263 -0.121587072,12.5089865 0.32250758,11.5759391 L6.20676173,1.79432183 C6.8729037,0.799754872 7.74090689,0 9.00253942,0 C10.264172,0 11.1321751,0.799754872 11.7983171,1.79432183 L17.6522921,11.5246728 C18.136759,12.4372136 18.1165729,13.5855796 17.5816407,14.4673606 C17.1072668,15.2568622 16.2796359,15.7592723 15.3611674,15.7592723 L2.63381839,15.7592723 Z M9.00253942,10.653145 C9.53747162,10.653145 9.96138015,11.0940355 9.96138015,11.6374587 C9.96138015,12.1808819 9.53747162,12.6115191 9.00253942,12.6115191 C8.46760723,12.6115191 8.03360564,12.1808819 8.03360564,11.6374587 C8.03360564,11.0940355 8.46760723,10.653145 9.00253942,10.653145 Z M9.00253942,9.67908461 C8.64928231,9.67908461 8.39695581,9.38173985 8.35658357,9.02287548 L8.03360564,6.08018768 C7.98314034,5.57777757 8.50797947,5.10612726 9.00253942,5.10612726 C9.49709938,5.10612726 10.0219385,5.57777757 9.96138015,6.08018768 L9.63840222,9.02287548 C9.60812304,9.37148658 9.36588959,9.67908461 9.00253942,9.67908461 Z M2.63381839,14.4571073 L15.3611674,14.4571073 C15.8355412,14.4571073 16.2392636,14.1905223 16.4915902,13.7803916 C16.7842889,13.2882348 16.7741958,12.6935453 16.5420555,12.1808819 L10.7284527,2.52230383 C10.3146373,1.90710777 9.79989119,1.30216498 9.00253942,1.30216498 C8.20518766,1.30216498 7.68034853,1.90710777 7.26653306,2.52230383 L1.46302339,12.1808819 C1.22078995,12.7037985 1.21069689,13.2882348 1.51348869,13.7803916 C1.75572214,14.1905223 2.15944455,14.4571073 2.63381839,14.4571073 Z" id="Shape"></path>
            </g>
        </g>
    </g>
</svg>