<?xml version="1.0" encoding="UTF-8"?>
<svg version="1.1" viewBox="0 0 24 24" xmlns="http://www.w3.org/2000/svg">
<title>logout</title>
<desc>Created with Sketch.</desc>
<g fill="none" fill-rule="evenodd">
<g fill="#fff">
<path d="m23.877 10.597c-0.0509-0.12178-0.12374-0.23256-0.21656-0.32538l-2.9932-2.9932c-0.39022-0.38924-1.021-0.38924-1.4112 0-0.39022 0.39022-0.39022 1.022 0 1.4112l1.2905 1.2905h-5.5752c-0.55191 0-0.99804 0.44711-0.99804 0.99804s0.44613 0.99804 0.99804 0.99804h5.5751l-1.2905 1.2905c-0.39022 0.39022-0.39022 1.022 0 1.4112 0.19462 0.1956 0.45011 0.29244 0.70564 0.29244 0.25553 0 0.51102-0.096795 0.70564-0.29244l2.9932-2.9932c0.092819-0.091836 0.16566-0.20262 0.21656-0.32538 0.10077-0.24342 0.10077-0.51888 0-0.76239z"/>
<path d="m16.967 13.973c-0.55191 0-0.99804 0.44711-0.99804 0.99804v4.9903h-3.9922v-15.969c0-0.44014-0.28945-0.82938-0.71163-0.95612l-3.4662-1.04h8.1701v4.9903c0 0.55092 0.44613 0.99804 0.99804 0.99804 0.55191 0 0.99804-0.44711 0.99804-0.99804v-5.9883c0-0.55097-0.44613-0.99808-0.99804-0.99808h-15.969c-0.03593 0-0.067883 0.014971-0.10278 0.018947-0.046924 0.0050058-0.089825 0.012959-0.13474 0.023953-0.1048 0.026947-0.19963 0.067883-0.28842 0.12374-0.021942 0.013988-0.048889 0.014971-0.069848 0.030924-0.0080468 0.0060351-0.011041 0.017029-0.019041 0.023018-0.10877 0.085801-0.19958 0.1906-0.26545 0.31537-0.013988 0.026947-0.016982 0.055906-0.02793 0.083836-0.031953 0.075836-0.066854 0.14971-0.07883 0.23354-0.0050058 0.029942 0.0039766 0.057871 0.0029942 0.08683-9.8246e-4 0.019977-0.013988 0.037942-0.013988 0.057871v19.961c0 0.47607 0.33633 0.88529 0.80243 0.97811l9.9805 1.9961c0.064889 0.013988 0.13076 0.019977 0.1956 0.019977 0.22854 0 0.4531-0.07883 0.63275-0.22657 0.23055-0.18961 0.36529-0.47209 0.36529-0.77151v-0.99804h4.9903c0.55191 0 0.99804-0.44711 0.99804-0.99804v-5.9884c0-0.55092-0.44613-0.99804-0.99804-0.99804z"/>
</g>
</g>
</svg>
