<?xml version="1.0" encoding="UTF-8"?>
<svg width="26px" height="26px" viewBox="0 0 26 26" version="1.1" xmlns="http://www.w3.org/2000/svg" xmlns:xlink="http://www.w3.org/1999/xlink">
    <!-- Generator: Sketch 58 (84663) - https://sketch.com -->
    <title>logout(2)</title>
    <desc>Created with Sketch.</desc>
    <g id="New-UX" stroke="none" stroke-width="1" fill="none" fill-rule="evenodd">
        <g id="customer-master-top-nav-2" transform="translate(-1141.000000, -112.000000)">
            <g id="Group-3" transform="translate(1131.000000, 60.000000)">
                <g id="logout(2)" transform="translate(10.000000, 52.000000)">
                    <circle id="Oval" fill="#666666" fill-rule="nonzero" cx="13" cy="13" r="13"></circle>
                    <path d="M21.4697856,12.4856238 L15.1487573,12.4856238 C14.8732943,12.4856238 14.649732,12.2620614 14.649732,11.9865984 C14.649732,11.7111355 14.8732943,11.4875731 15.1487573,11.4875731 L21.4697856,11.4875731 C21.7452485,11.4875731 21.9688109,11.7111355 21.9688109,11.9865984 C21.9688109,12.2620614 21.7452485,12.4856238 21.4697856,12.4856238 Z" id="Path" fill="#FFFFFF"></path>
                    <path d="M18.9746589,14.9807505 C18.8468567,14.9807505 18.7191764,14.9321394 18.6219542,14.8344298 C18.4270224,14.6393762 18.4270224,14.3233431 18.6219542,14.1284113 L20.7644981,11.9859893 L18.6219542,9.84344543 C18.4270224,9.64851365 18.4270224,9.3324805 18.6219542,9.13754873 C18.8170078,8.94249513 19.1330409,8.94249513 19.3279727,9.13754873 L21.8230994,11.6326754 C22.0180312,11.8276072 22.0180312,12.1436404 21.8230994,12.3385721 L19.3279727,14.8336988 C19.2301413,14.9321394 19.102461,14.9807505 18.9746589,14.9807505 L18.9746589,14.9807505 Z" id="Path" fill="#FFFFFF"></path>
                    <path d="M11.3229776,20.9690546 C11.1805555,20.9690546 11.0454435,20.9490741 10.9104532,20.9071638 L6.9061891,19.5730994 C6.36135479,19.3827973 6,18.8751218 6,18.3076267 L6,6.33101851 C6,5.59710038 6.59685673,5.00024366 7.33077486,5.00024366 C7.47307506,5.00024366 7.60818713,5.02022419 7.74329921,5.06213452 L11.7474415,6.39619883 C12.2923977,6.58650099 12.6536306,7.09417641 12.6536306,7.66167155 L12.6536306,19.6382797 C12.6536306,20.3721979 12.0568957,20.9690546 11.3229776,20.9690546 Z M7.33077486,5.99829433 C7.14778264,5.99829433 6.99805068,6.14802632 6.99805068,6.33101851 L6.99805068,18.3076267 C6.99805068,18.4493177 7.09320175,18.5810185 7.22892301,18.6282895 L11.214425,19.956384 C11.2430556,19.9656433 11.2803362,19.9710039 11.3229776,19.9710039 C11.5059698,19.9710039 11.6555799,19.8212719 11.6555799,19.6382797 L11.6555799,7.66167155 C11.6555799,7.51998051 11.5604288,7.38827973 11.4247076,7.34100878 L7.43920565,6.01291421 C7.41057503,6.00365499 7.37329435,5.99829433 7.33077486,5.99829433 Z" id="Shape" fill="#FFFFFF"></path>
                    <path d="M16.146808,10.3232212 C15.871345,10.3232212 15.6477826,10.0996589 15.6477826,9.8241959 L15.6477826,6.83004385 C15.6477826,6.37158868 15.2746102,5.99829433 14.816155,5.99829433 L7.33077486,5.99829433 C7.05531191,5.99829433 6.83174952,5.77473198 6.83174952,5.49926899 C6.83174952,5.22380604 7.05531191,5.00024366 7.33077486,5.00024366 L14.816155,5.00024366 C15.8255361,5.00024366 16.6458333,5.82066277 16.6458333,6.83004385 L16.6458333,9.8241959 C16.6458333,10.0996589 16.4222709,10.3232212 16.146808,10.3232212 Z" id="Path" fill="#FFFFFF"></path>
                    <path d="M14.816155,18.9729532 L12.1546053,18.9729532 C11.8791423,18.9729532 11.6555799,18.7493908 11.6555799,18.4739279 C11.6555799,18.1984649 11.8791423,17.9749025 12.1546053,17.9749025 L14.816155,17.9749025 C15.2746102,17.9749025 15.6477826,17.6016082 15.6477826,17.143153 L15.6477826,14.149001 C15.6477826,13.873538 15.871345,13.6499756 16.146808,13.6499756 C16.4222709,13.6499756 16.6458333,13.873538 16.6458333,14.149001 L16.6458333,17.143153 C16.6458333,18.1525341 15.8255361,18.9729532 14.816155,18.9729532 L14.816155,18.9729532 Z" id="Path" fill="#FFFFFF"></path>
                </g>
            </g>
        </g>
    </g>
</svg>