<?xml version="1.0" encoding="UTF-8"?>
<svg version="1.1" viewBox="0 0 24 20" xmlns="http://www.w3.org/2000/svg">
<title>data-table</title>
<desc>Created with Sketch.</desc>
<g fill="none" fill-rule="evenodd">
<g transform="translate(0 -2)">
<g transform="translate(0 2)">
<path d="m23.274 0h-22.572c-0.38793 0-0.70244 0.31451-0.70244 0.70244v17.795c0 0.38793 0.31451 0.70244 0.70244 0.70244h22.572c0.38793 0 0.70244-0.31451 0.70244-0.70244v-17.795c0-0.38793-0.31451-0.70244-0.70244-0.70244zm-21.869 1.4049h3.7932v1.4049h-3.7932v-1.4049zm1.8732 16.39h-1.8732v-8.4293h1.8732v8.4293zm0-9.8341h-1.8732v-0.93659h1.8732v0.93659zm6.4312 9.8341h-5.0263v-8.4293h5.0263v8.4293zm0-9.8341h-5.0263v-0.93659h5.0263v0.93659zm6.4313 9.8341h-5.0264v-8.4293h5.0264v8.4293zm0-9.8341h-5.0264v-0.93659h5.0264v0.93659zm6.4312 9.8341h-5.0263v-8.4293h5.0263v8.4293zm0-9.8341h-5.0263v-0.93659h5.0263v0.93659z" fill="#fff"/>
<path d="m13.417 4.2146h2.3415c0.38793 0 0.70244-0.31451 0.70244-0.70244s-0.31451-0.70244-0.70244-0.70244h-2.3415c-0.38793 0-0.70244 0.31451-0.70244 0.70244s0.31451 0.70244 0.70244 0.70244z" fill="#1F496A" fill-rule="nonzero"/>
<path d="m18.591 4.2146h2.3415c0.38793 0 0.70244-0.31451 0.70244-0.70244s-0.31451-0.70244-0.70244-0.70244h-2.3415c-0.38793 0-0.70244 0.31451-0.70244 0.70244s0.31451 0.70244 0.70244 0.70244z" fill="#1F496A" fill-rule="nonzero"/>
<path d="m8.242 4.2146h2.3415c0.38793 0 0.70244-0.31451 0.70244-0.70244s-0.31451-0.70244-0.70244-0.70244h-2.3415c-0.38793 0-0.70244 0.31451-0.70244 0.70244s0.31451 0.70244 0.70244 0.70244z" fill="#1F496A" fill-rule="nonzero"/>
</g>
</g>
</g>
</svg>
