<?xml version="1.0" encoding="UTF-8"?>
<svg width="64px" height="64px" viewBox="0 0 64 64" version="1.1" xmlns="http://www.w3.org/2000/svg" xmlns:xlink="http://www.w3.org/1999/xlink">
    <title>B198D60F-EC86-441B-9E1E-8C3822DDF09B</title>
    <defs>
        <linearGradient x1="50%" y1="0%" x2="50%" y2="100%" id="linearGradient-1">
            <stop stop-color="#656869" offset="0%"></stop>
            <stop stop-color="#353738" offset="100%"></stop>
        </linearGradient>
        <rect id="path-2" x="0" y="-9.09494702e-13" width="64" height="64" rx="4"></rect>
        <rect id="path-4" x="0.371544385" y="0" width="64" height="64" rx="4"></rect>
        <path d="M77.7225273,1.99660366 L79.5483313,3.55430705 L60.9663384,25.3344975 C60.0364882,26.4243868 58.7011229,27.0793075 57.2781802,27.1525858 L57.0104298,27.1594735 L50.6523399,27.1594735 C49.9847789,27.1594735 49.3415059,27.3978767 48.8366312,27.8279875 L48.6894348,27.9627252 L38.0563239,38.4144655 C39.3969058,38.353948 40.758454,38.5860794 42.0422988,39.1274548 L42.322393,39.2510645 L58.6289598,46.7718838 C58.9353639,46.9132018 59.2642719,46.9977399 59.5997182,47.0219937 L59.8016428,47.0292839 L80.8517082,47.0292839 L80.8517082,49.4292839 L66.91,49.429 L66.9103057,56.5746441 C66.9103057,57.2704795 67.1692694,57.9387387 67.6324265,58.4514652 L67.7774447,58.6004892 L72.9565913,63.5419187 C73.4253299,63.9891427 74.0328806,64.258429 74.6744716,64.307814 L74.8894523,64.3160736 L82.075708,64.3160736 L82.075708,66.7160736 L74.8894523,66.7160736 C73.6417181,66.7160736 72.4387203,66.267562 71.4974654,65.4574547 L71.2998533,65.2783574 L66.1207067,60.3369279 C65.1565137,59.4169903 64.5847911,58.1645994 64.5170921,56.8403705 L64.5103057,56.5746441 L64.51,49.429 L59.8016428,49.4292839 C59.1436681,49.4292839 58.4925425,49.3044169 57.8825901,49.0622169 L57.6238029,48.9512552 L41.3172361,41.4304359 C38.8606661,40.2974311 35.9755921,40.7311332 33.963093,42.5127134 L33.753645,42.7060648 L32.8883202,43.5374569 L32.868,43.516 L26.8913837,49.3913178 C26.4045775,49.869873 26.1110595,50.5079526 26.0617158,51.1841761 L26.0542888,51.3880661 L26.0542888,78.9222928 L23.6542888,78.9222928 L23.6542888,51.3880661 C23.6542888,50.0806915 24.14659,48.8246793 25.0275502,47.8672507 L25.2088936,47.6798193 L47.0069447,26.2512267 C47.914621,25.3589348 49.1155507,24.8327717 50.3804048,24.7665823 L50.6523399,24.7594735 L57.0104298,24.7594735 C57.7617663,24.7594735 58.4785198,24.4576987 59.0025224,23.9271165 L59.1405344,23.7767941 L77.7225273,1.99660366 Z M28.6964278,4.26325641e-13 L43.8406759,18.5711589 C45.4668874,20.5653571 45.3838696,23.4363267 43.6798897,25.3317243 L43.5099312,25.5120422 L23.0541441,46.2173959 C21.8665484,47.4194806 21.1715901,49.0178733 21.0980379,50.6990135 L21.0915349,50.9964805 L21.0915349,76.9222928 L18.6915349,76.9222928 L18.6915349,50.9964805 C18.6915349,48.6810586 19.5644121,46.4548737 21.1291806,44.7586387 L21.3468297,44.5306601 L29.61,36.165 L29.589806,36.1459939 L35.9946705,29.5846004 C38.0183472,27.5114669 38.1941284,24.2761438 36.4443031,22.0004218 L36.2799212,21.7962406 L29.4492119,13.6883293 C27.3853537,11.2385721 23.7263456,10.9257392 21.2765885,12.9895974 L21.0908854,13.1529424 L20.9123149,13.3240557 L1.69705627,32.5393143 L3.83693077e-13,30.842258 L19.2152586,11.6269994 C19.3801271,11.4621309 19.5519524,11.3043693 19.7302661,11.1541445 C23.1230332,8.29582444 28.1563622,8.66190435 31.1032356,11.9337367 L31.2846647,12.1420069 L38.115374,20.2499182 C39.4228161,21.801825 40.0612139,23.7090465 40.0439282,25.6067914 L41.8026168,23.8253065 C42.7641144,22.8520783 42.8761768,21.3353526 42.0930527,20.2352493 L41.9807101,20.0879078 L26.836462,1.51674885 L28.6964278,4.26325641e-13 Z" id="path-6"></path>
        <rect id="path-8" x="0" y="0" width="64" height="64" rx="4"></rect>
    </defs>
    <g id="📄-Asset-Sheet" stroke="none" stroke-width="1" fill="none" fill-rule="evenodd">
        <g id="App.MotiveH&amp;S.A.1" transform="translate(-972.000000, -918.000000)">
            <g id="mapThumbnail" transform="translate(972.000000, 918.000000)">
                <mask id="mask-3" fill="white">
                    <use xlink:href="#path-2"></use>
                </mask>
                <use id="Rectangle" fill="url(#linearGradient-1)" opacity="0.049999997" xlink:href="#path-2"></use>
                <g id="map" mask="url(#mask-3)">
                    <g transform="translate(-0.371544, 0.000000)">
                        <mask id="mask-5" fill="white">
                            <use xlink:href="#path-4"></use>
                        </mask>
                        <use id="Rectangle" stroke="none" fill="#EBECED" fill-rule="evenodd" xlink:href="#path-4"></use>
                        <g id="Group-12" stroke="none" stroke-width="1" fill="none" fill-rule="evenodd" mask="url(#mask-5)">
                            <g transform="translate(-12.000000, -21.000000)">
                                <g id="Line-3-+-Line-3-+-Line-3-+-Line-3-+-Line-3-+-Line-3-+-Line-3-+-Line-3-+-Line-3-Mask" stroke-width="1" fill="none" transform="translate(0.302944, 14.770716)">
                                    <mask id="mask-7" fill="white">
                                        <use xlink:href="#path-6"></use>
                                    </mask>
                                    <use id="Combined-Shape" fill="#FFFFFF" fill-rule="nonzero" xlink:href="#path-6"></use>
                                </g>
                                <path d="M29.3715444,73 L38.3715444,73 C38.9238291,73 39.3715444,73.4477153 39.3715444,74 L39.3715444,86 C39.3715444,87.1045695 38.4761139,88 37.3715444,88 L30.3715444,88 C29.2669749,88 28.3715444,87.1045695 28.3715444,86 L28.3715444,74 C28.3715444,73.4477153 28.8192596,73 29.3715444,73 Z" id="Rectangle" fill="#F5EEE6"></path>
                                <path d="M65.8635301,40.4352568 L77.6706374,26.8820503 C78.3961918,26.049197 79.6595309,25.962214 80.4923842,26.6877684 C80.9283836,27.0675968 81.1786517,27.6175395 81.1786517,28.1957827 L81.1786517,54 C81.1786517,55.1045695 80.2832212,56 79.1786517,56 L67.3715444,56 C66.2669749,56 65.3715444,55.1045695 65.3715444,54 L65.3715444,41.7489892 C65.3715444,41.2660406 65.5462975,40.7994035 65.8635301,40.4352568 Z" id="Rectangle" fill="#F5EEE6"></path>
                                <path d="M26.5616348,30.1770093 L34.141488,37.9912214 C34.9105568,38.7840688 34.8912804,40.050252 34.0984331,40.8193208 C34.0959947,40.821686 34.0935503,40.8240451 34.0910999,40.8263978 L18.2484519,56.0379877 C17.4583276,56.7966391 16.2049434,56.7785569 15.4370332,55.9974281 L8.01458967,48.4472179 C7.24122257,47.6605384 7.25087014,46.3962134 8.03615217,45.6214273 L23.7213905,30.1458356 C24.5076761,29.3700593 25.7739774,29.3785789 26.5497536,30.1648645 C26.5537312,30.1688959 26.5576916,30.1729442 26.5616348,30.1770093 Z" id="Rectangle" fill="#F5EEE6"></path>
                                <path d="M58.2997277,1.09042509 L71.0761446,11.1423574 L71.0761446,11.1423574 L72.3735107,12.1630689 C73.2416142,12.8460552 73.3916813,14.1034618 72.7086951,14.9715652 C72.6547332,15.040153 72.5963399,15.1051353 72.5338896,15.1660953 L54.3263873,32.9391268 C53.535965,33.7106879 52.2697274,33.6953979 51.4981663,32.9049756 C51.4788571,32.8851943 51.45996,32.8650149 51.4414874,32.8444502 L39.6469116,19.7141746 C38.9330931,18.9195183 38.9697254,17.7041901 39.7301096,16.9539691 L55.6584046,1.2385694 C56.3757798,0.530782528 57.5077052,0.46729605 58.2997277,1.09042509 Z" id="Rectangle" fill="#EBF4FF"></path>
                                <path d="M28.7246739,64.7004601 L36.8495437,57.8085906 C37.1395342,57.562608 37.5439443,57.5023861 37.8930235,57.653203 L49.0407047,62.469471 C49.5476952,62.6885123 49.7811241,63.2770773 49.5620829,63.7840678 C49.5240881,63.8720101 49.4736537,63.9540364 49.4123257,64.0276321 L47.483156,66.3427021 C47.3333991,66.5224155 47.2513863,66.748944 47.2513863,66.9828757 L47.2513863,77.3476151 C47.2513863,77.8998998 47.6991015,78.3476151 48.2513863,78.3476151 L63.3265808,78.3476151 C63.5965813,78.3476151 63.8551083,78.4567958 64.0433754,78.6503307 L72.165778,87 L72.165778,87 L42.5916591,87 C42.0393743,87 41.5916591,86.5522847 41.5916591,86 L41.5916591,72.6433949 C41.5916591,72.0911101 41.1439438,71.6433949 40.5916591,71.6433949 L29.3715444,71.6433949 C28.8192596,71.6433949 28.3715444,71.1956796 28.3715444,70.6433949 L28.3715444,65.46306 C28.3715444,65.1693347 28.500679,64.8904624 28.7246739,64.7004601 Z" id="Rectangle" fill="#D9E3CC"></path>
                                <path d="M56.6666667,56 C58.4444444,56 60.2222222,56 62,56 C62.5522847,56 63,55.5522847 63,55 L63,46 C63,45.4477153 62.5522847,45 62,45 C60.2222222,45 58.4444444,45 56.6666667,45 C53.5370531,45 51,47.4624339 51,50.5 C51,53.5375661 53.5370531,56 56.6666667,56 Z" id="Oval" fill="#D9E3CC"></path>
                                <path d="M53.0160486,64.1405217 L57.5947218,66 L57.5947218,66 L62.3715444,66 C62.9238291,66 63.3715444,66.4477153 63.3715444,67 L63.3715444,75.7181787 C63.3715444,76.2704634 62.9238291,76.7181787 62.3715444,76.7181787 L49.8715444,76.7181787 C49.3192596,76.7181787 48.8715444,76.2704634 48.8715444,75.7181787 L48.8715444,68.4811303 C48.8715444,67.9814033 49.0586241,67.4997807 49.3959513,67.1310839 L51.9019806,64.392008 C52.1842358,64.0835046 52.6286366,63.9831869 53.0160486,64.1405217 Z" id="Rectangle" fill="#F5EEE6"></path>
                            </g>
                        </g>
                    </g>
                </g>
                <mask id="mask-9" fill="white">
                    <use xlink:href="#path-8"></use>
                </mask>
                <use id="overlay" fill="#000000" opacity="0.05" xlink:href="#path-8"></use>
                <g id="locationpinIcon" mask="url(#mask-9)">
                    <g transform="translate(24.000000, 22.000000)" id="Icon/Outline-1pt/map-pin/map_pin_consumer">
                        <path d="M15.7142857,7.5862069 C15.7142857,14.4827586 7.85714286,20 7.85714286,20 C7.85714286,20 3.19744231e-14,14.4827586 3.19744231e-14,7.5862069 C3.19744231e-14,3.39655172 3.70642857,0 7.85714286,0 C12.0078571,0 15.7142857,3.39655172 15.7142857,7.5862069 L15.7142857,7.5862069 Z" id="Line" stroke="#719E19" stroke-width="0.714285714" fill="#719E19" stroke-linecap="round" stroke-linejoin="round"></path>
                        <path d="M12.5,7.5 C12.5,10.0642857 10.4214286,12.1428571 7.85714286,12.1428571 C5.29285714,12.1428571 3.21428571,10.0642857 3.21428571,7.5 C3.21428571,4.93571429 5.29285714,2.85714286 7.85714286,2.85714286 C10.4214286,2.85714286 12.5,4.93571429 12.5,7.5 L12.5,7.5 Z" id="Line" fill="#F7F8F4"></path>
                    </g>
                </g>
            </g>
        </g>
    </g>
</svg>