<?xml version="1.0" encoding="UTF-8"?>
<svg width="24px" height="24px" viewBox="0 0 24 24" version="1.1" xmlns="http://www.w3.org/2000/svg" xmlns:xlink="http://www.w3.org/1999/xlink">
    <!-- Generator: Sketch 56.3 (81716) - https://sketch.com -->
    <title>merge(1)</title>
    <desc>Created with Sketch.</desc>
    <g id="Symbols" stroke="none" stroke-width="1" fill="none" fill-rule="evenodd">
        <g id="Icons/24px/Home-Copy-15" fill="#FFFFFF">
            <g id="merge(1)">
                <path d="M21.249939,24 L2.75006105,24 C1.23303225,24 -2.84217094e-14,22.7669677 -2.84217094e-14,21.249939 L-2.84217094e-14,2.75006105 C-2.84217094e-14,1.23303225 1.23303225,0 2.75006105,0 L21.249939,0 C22.7669677,0 24,1.23303225 24,2.75006105 L24,21.249939 C24,22.7669678 22.7669677,24 21.249939,24 Z M2.75006105,1.5 C2.06103516,1.5 1.5,2.06103516 1.5,2.75006105 L1.5,21.249939 C1.5,21.9389648 2.06103516,22.5 2.75006105,22.5 L21.249939,22.5 C21.9389648,22.5 22.5,21.9389648 22.5,21.249939 L22.5,2.75006105 C22.5,2.06103516 21.9389648,1.5 21.249939,1.5 L2.75006105,1.5 Z" id="Shape"></path>
                <path d="M23.25,18.500061 L0.75,18.500061 C0.335998547,18.500061 0,18.1640625 0,17.750061 C0,17.3360596 0.335998547,17.000061 0.75,17.000061 L23.25,17.000061 C23.6640015,17.000061 24,17.3360596 24,17.750061 C24,18.1640625 23.6640015,18.500061 23.25,18.500061 Z" id="Path"></path>
                <path d="M23.25,6.99993895 L0.75,6.99993895 C0.335998547,6.99993895 0,6.66394041 0,6.24993895 C0,5.8359375 0.335998547,5.49993895 0.75,5.49993895 L23.25,5.49993895 C23.6640015,5.49993895 24,5.8359375 24,6.24993895 C24,6.66394041 23.6640015,6.99993895 23.25,6.99993895 Z" id="Path"></path>
                <path d="M19.250061,12.75 L4.74993895,12.75 C4.3359375,12.75 3.99993895,12.4140015 3.99993895,12 C3.99993895,11.5859985 4.3359375,11.25 4.74993895,11.25 L19.250061,11.25 C19.6640625,11.25 20.000061,11.5859985 20.000061,12 C20.000061,12.4140015 19.6640625,12.75 19.250061,12.75 Z" id="Path"></path>
                <path d="M16.5,15.500061 C16.3079224,15.500061 16.1160278,15.427002 15.9699097,15.2799683 C15.6769409,14.9869995 15.6769409,14.5120239 15.9699097,14.2190552 L18.1900635,11.9990845 L15.9699097,9.77893069 C15.6769409,9.48596194 15.6769409,9.01098633 15.9699097,8.71801758 C16.2630615,8.42504883 16.7380371,8.42504883 17.0310059,8.71801758 L19.7810669,11.4680786 C20.0740357,11.7610474 20.0740357,12.2360229 19.7810669,12.5289917 L17.0310059,15.2790527 C16.8839722,15.427002 16.6920776,15.500061 16.5,15.500061 Z" id="Path"></path>
                <path d="M7.5,15.500061 C7.30792238,15.500061 7.11602784,15.427002 6.96990966,15.2799682 L4.22003175,12.5300903 C3.927063,12.2369385 3.927063,11.7619629 4.22003175,11.4689941 L6.96990966,8.71893309 C7.2630615,8.42596434 7.73803711,8.42596434 8.03100586,8.71893309 C8.32397461,9.01208494 8.32397461,9.48706055 8.03100586,9.7800293 L5.81103516,12 L8.03100586,14.2199707 C8.32397461,14.5129395 8.32397461,14.9879151 8.03100586,15.2810669 C7.88397216,15.427002 7.69207762,15.500061 7.5,15.500061 L7.5,15.500061 Z" id="Path"></path>
                <path d="M12,6.99993895 C11.5859985,6.99993895 11.25,6.66394041 11.25,6.24993895 L11.25,0.75 C11.25,0.335998547 11.5859985,0 12,0 C12.4140015,0 12.75,0.335998547 12.75,0.75 L12.75,6.24993895 C12.75,6.66394041 12.4140015,6.99993895 12,6.99993895 Z" id="Path"></path>
                <path d="M12,24 C11.5859985,24 11.25,23.6640015 11.25,23.25 L11.25,17.750061 C11.25,17.3360596 11.5859985,17.000061 12,17.000061 C12.4140015,17.000061 12.75,17.3360596 12.75,17.750061 L12.75,23.25 C12.75,23.6640015 12.4140015,24 12,24 Z" id="Path"></path>
            </g>
        </g>
    </g>
</svg>