<?xml version="1.0" encoding="UTF-8"?>
<svg version="1.1" viewBox="0 0 24 25" xmlns="http://www.w3.org/2000/svg">
<title>move</title>
<desc>Created with Sketch.</desc>
<g fill="none" fill-rule="evenodd">
<g transform="translate(-260 -323)" fill="#52575A" fill-rule="nonzero">
<g transform="translate(260 323)">
<path d="m23.205 13.628h-22.456c-0.41319 0-0.74854-0.5376-0.74854-1.2 0-0.6624 0.33534-1.2 0.74854-1.2h22.456c0.41319 0 0.74854 0.5376 0.74854 1.2 0 0.6624-0.33534 1.2-0.74854 1.2z"/>
<path d="m15.22 19.367h-14.472c-0.41319 0-0.74854-0.5376-0.74854-1.2s0.33534-1.2 0.74854-1.2h14.472c0.41319 0 0.74854 0.5376 0.74854 1.2s-0.33534 1.2-0.74854 1.2z"/>
<path d="m15.22 24.857h-14.472c-0.41319 0-0.74854-0.5376-0.74854-1.2 0-0.6624 0.33534-1.2 0.74854-1.2h14.472c0.41319 0 0.74854 0.5376 0.74854 1.2 0 0.6624-0.33534 1.2-0.74854 1.2z"/>
<path d="m15.22 7.8896h-14.472c-0.41319 0-0.74854-0.5376-0.74854-1.2 0-0.6624 0.33534-1.2 0.74854-1.2h14.472c0.41319 0 0.74854 0.5376 0.74854 1.2 0 0.6624-0.33534 1.2-0.74854 1.2z"/>
<path d="m15.22 2.4004h-14.472c-0.41319 0-0.74854-0.5376-0.74854-1.2 0-0.6624 0.33534-1.2 0.74854-1.2h14.472c0.41319 0 0.74854 0.5376 0.74854 1.2 0 0.6624-0.33534 1.2-0.74854 1.2z"/>
<path d="m19.213 16.718c-0.1917 0-0.38322-0.072734-0.52906-0.21948-0.2924-0.2924-0.2924-0.76645 0-1.059l3.4633-3.4631-3.4633-3.4633c-0.2924-0.2924-0.2924-0.76663 0-1.059 0.2924-0.2924 0.76645-0.2924 1.059 0l3.9921 3.9923c0.2924 0.2924 0.2924 0.76645 0 1.0588l-3.9921 3.9921c-0.14675 0.14784-0.33845 0.22058-0.52997 0.22058z"/>
<path d="m23.205 13.628h-22.456c-0.41319 0-0.74854-0.5376-0.74854-1.2 0-0.6624 0.33534-1.2 0.74854-1.2h22.456c0.41319 0 0.74854 0.5376 0.74854 1.2 0 0.6624-0.33534 1.2-0.74854 1.2z"/>
<path d="m15.22 19.367h-14.472c-0.41319 0-0.74854-0.5376-0.74854-1.2s0.33534-1.2 0.74854-1.2h14.472c0.41319 0 0.74854 0.5376 0.74854 1.2s-0.33534 1.2-0.74854 1.2z"/>
<path d="m15.22 24.857h-14.472c-0.41319 0-0.74854-0.5376-0.74854-1.2 0-0.6624 0.33534-1.2 0.74854-1.2h14.472c0.41319 0 0.74854 0.5376 0.74854 1.2 0 0.6624-0.33534 1.2-0.74854 1.2z"/>
<path d="m15.22 7.8896h-14.472c-0.41319 0-0.74854-0.5376-0.74854-1.2 0-0.6624 0.33534-1.2 0.74854-1.2h14.472c0.41319 0 0.74854 0.5376 0.74854 1.2 0 0.6624-0.33534 1.2-0.74854 1.2z"/>
<path d="m15.22 2.4004h-14.472c-0.41319 0-0.74854-0.5376-0.74854-1.2 0-0.6624 0.33534-1.2 0.74854-1.2h14.472c0.41319 0 0.74854 0.5376 0.74854 1.2 0 0.6624-0.33534 1.2-0.74854 1.2z"/>
<path d="m19.213 16.718c-0.1917 0-0.38322-0.072734-0.52906-0.21948-0.2924-0.2924-0.2924-0.76645 0-1.059l3.4633-3.4631-3.4633-3.4633c-0.2924-0.2924-0.2924-0.76663 0-1.059 0.2924-0.2924 0.76645-0.2924 1.059 0l3.9921 3.9923c0.2924 0.2924 0.2924 0.76645 0 1.0588l-3.9921 3.9921c-0.14675 0.14784-0.33845 0.22058-0.52997 0.22058z"/>
</g>
</g>
</g>
</svg>
