<?xml version="1.0" encoding="UTF-8"?>
<svg width="26px" height="26px" viewBox="0 0 26 26" version="1.1" xmlns="http://www.w3.org/2000/svg" xmlns:xlink="http://www.w3.org/1999/xlink">
    <!-- Generator: Sketch 63.1 (92452) - https://sketch.com -->
    <title>restoredata</title>
    <desc>Created with Sketch.</desc>
    <g id="Symbols" stroke="none" stroke-width="1" fill="none" fill-rule="evenodd">
        <g id="Header" transform="translate(-1087.000000, -17.000000)" fill="#666666" fill-rule="nonzero">
            <g id="restoredata" transform="translate(1087.000000, 17.000000)">
                <path d="M14.1102813,20.2548125 C14.6806055,20.0472695 15.224168,19.7725938 15.7295938,19.436625 L14.8309688,18.083 C14.43325,18.3476719 14.0052656,18.5636953 13.5561563,18.7265 L14.1102813,20.2548125 Z" id="Path"></path>
                <path d="M11.4737188,5.28125 C7.21078516,5.28155469 3.75522266,8.73757422 3.75547656,13.0005078 C3.75567969,16.2219688 5.7565625,19.1045156 8.77459375,20.23125 L9.34334375,18.7094375 C6.18805078,17.5386758 4.57930078,14.0317227 5.7500625,10.8764297 C6.92082422,7.72113672 10.4277773,6.11238672 13.5830703,7.28314844 C15.8693945,8.1315 17.4298008,10.2612148 17.5495938,12.6969375 L15.3769688,10.5243125 L14.2280938,11.6731875 L18.3799688,15.822625 L22.5294063,11.6731875 L21.3805313,10.5243125 L19.1786563,12.7261875 C19.0313398,8.57588672 15.6266094,5.28607422 11.4737188,5.28125 Z" id="Path"></path>
                <path d="M10.7327187,19.04825 L10.5369062,20.6626875 C10.8529687,20.7000625 11.1869062,20.7130625 11.4932187,20.71875 C11.7788633,20.7186484 12.0642539,20.7020938 12.3479687,20.6691875 L12.1635312,19.0555625 C11.9401445,19.0806484 11.7155898,19.0933945 11.4907812,19.09375 C11.2421562,19.0880625 10.9805312,19.079125 10.7327187,19.04825 Z" id="Path"></path>
                <path d="M21.6666667,0 L26,4.33333333 L26,22.75 C26,24.5449254 24.5449254,26 22.75,26 L3.25,26 C1.45507456,26 0,24.5449254 0,22.75 L0,3.25 C0,1.45507456 1.45507456,0 3.25,0 L21.6666667,0 Z M20.583,1.625 L3.25,1.625 C2.35253728,1.625 1.625,2.35253728 1.625,3.25 L1.625,22.75 C1.625,23.6474627 2.35253728,24.375 3.25,24.375 L22.75,24.375 C23.6474627,24.375 24.375,23.6474627 24.375,22.75 L24.375,5.416 L20.5833333,5.41666667 L20.583,1.625 Z" id="Combined-Shape" transform="translate(13.000000, 13.000000) scale(-1, 1) translate(-13.000000, -13.000000) "></path>
            </g>
        </g>
    </g>
</svg>