<?xml version="1.0" encoding="UTF-8"?>
<svg width="25px" height="25px" viewBox="0 0 25 25" version="1.1" xmlns="http://www.w3.org/2000/svg" xmlns:xlink="http://www.w3.org/1999/xlink">
    <!-- Generator: Sketch 56.3 (81716) - https://sketch.com -->
    <title>icon/rules</title>
    <desc>Created with Sketch.</desc>
    <g id="Symbols" stroke="none" stroke-width="1" fill="none" fill-rule="evenodd" fill-opacity="0.75">
        <g id="Header" transform="translate(-1149.000000, -18.000000)" fill="#333333" fill-rule="nonzero">
            <g id="icon/rules" transform="translate(1149.000000, 18.000000)">
                <path d="M24.9558015,13.7050448 L25,13.7050448 L25,22.6541374 C25,23.7857415 24.0829929,24.7030879 22.9518072,24.7030879 L2.04819277,24.7030879 C0.917007139,24.7030879 0,23.7857415 0,22.6541374 L0,13.7050448 L0.0441985333,13.7050448 L0.00529443102,13.6923928 L2.74096386,5.27412264 L2.74096386,1.5017367 C2.74096386,0.852728457 3.26689442,0.326603325 3.91566265,0.326603325 L21.0843373,0.326603325 C21.7331056,0.326603325 22.2590361,0.852728457 22.2590361,1.5017367 L22.2590361,5.27412264 L24.9947056,13.6923928 L24.9558015,13.7050448 Z M23.4785553,13.7050448 L22.2590361,9.9523099 L22.2590361,13.7050448 L23.4785553,13.7050448 Z M1.52144466,13.7050448 L2.74096386,13.7050448 L2.74096386,9.9523099 L1.52144466,13.7050448 Z M20.813253,13.7050448 L20.813253,1.77292132 L4.18674699,1.77292132 L4.18674699,13.7050448 L7.89872077,13.7050448 C8.46431359,13.7050448 8.92281716,14.163718 8.92281716,14.72952 L8.92281716,17.723692 L16.0820479,17.723692 L16.0820479,14.72952 C16.0820479,14.163718 16.5405515,13.7050448 17.1061443,13.7050448 L20.813253,13.7050448 Z M1.44578313,15.1513628 L1.44578313,22.6541374 C1.44578313,22.9869621 1.71549111,23.2567699 2.04819277,23.2567699 L22.9518072,23.2567699 C23.2845089,23.2567699 23.5542169,22.9869621 23.5542169,22.6541374 L23.5542169,15.1513628 L17.527831,15.1513628 L17.527831,18.1455348 C17.527831,18.7113368 17.0693275,19.17001 16.5037347,19.17001 L8.50113041,19.17001 C7.9355376,19.17001 7.47703403,18.7113368 7.47703403,18.1455348 L7.47703403,15.1513628 L1.44578313,15.1513628 Z M6.62114014,4.51306413 L14.608076,4.51306413 L14.608076,5.37410926 L6.62114014,5.37410926 L6.62114014,4.51306413 Z M6.62114014,6.47268409 L18.2897862,6.47268409 L18.2897862,7.33372922 L6.62114014,7.33372922 L6.62114014,6.47268409 Z M6.62114014,8.43230404 L18.2897862,8.43230404 L18.2897862,9.29334917 L6.62114014,9.29334917 L6.62114014,8.43230404 Z M6.62114014,10.391924 L18.2897862,10.391924 L18.2897862,11.2529691 L6.62114014,11.2529691 L6.62114014,10.391924 Z" id="Combined-Shape"></path>
            </g>
        </g>
    </g>
</svg>