<?xml version="1.0" encoding="UTF-8"?>
<svg width="842px" height="842px" viewBox="0 0 842 842" version="1.1" xmlns="http://www.w3.org/2000/svg" xmlns:xlink="http://www.w3.org/1999/xlink">
    <!-- Generator: Sketch 55.2 (78181) - https://sketchapp.com -->
    <title>icon/rule-settings</title>
    <desc>Created with Sketch.</desc>
    <g id="icon/rule-settings" stroke="none" stroke-width="1" fill="none" fill-rule="evenodd">
        <g id="e05406abc5258b69ec6fc467c9e490af" transform="translate(0.000000, 1.000000)" fill="#333333" fill-rule="nonzero">
            <path d="M842,706.43175 L842,643.668671 L794.973136,635.735418 C793.092062,629.810583 790.715967,624.08659 788.042861,618.56344 L815.76396,579.098016 L772.202234,534.812387 L733.491699,562.930247 C728.145487,560.118461 722.40326,557.708358 716.562028,555.800361 L708.740718,508 L647.160278,508 L639.338968,555.800361 C633.497736,557.708358 627.854513,560.118461 622.409297,562.930247 L583.698762,534.711966 L540.23604,578.997595 L567.957139,618.463019 C565.284033,623.98617 562.907938,629.609741 561.026864,635.634997 L514,643.668671 L514,706.43175 L561.125868,714.365003 C563.006942,720.289838 565.383037,725.91341 568.056142,731.33614 L540.23604,771.002405 L583.698762,815.288034 L622.706308,786.868912 C627.953516,789.580277 633.59674,791.889958 639.239964,793.898376 L647.160278,842 L708.740718,842 L716.661032,793.898376 C722.40326,791.990379 727.94748,789.680698 733.194688,786.868912 L772.202234,815.288034 L815.76396,771.002405 L787.943858,731.33614 C790.616963,725.91341 792.993058,720.189417 794.874132,714.365003 L842,706.43175 L842,706.43175 L842,706.43175 Z M678,725 C650.975758,725 629,702.565392 629,675 C629,647.434608 650.876768,625 678,625 C705.024242,625 727,647.434608 727,675 C727,702.565392 705.024242,725 678,725 L678,725 L678,725 Z" id="Shape"></path>
            <path d="M674.559515,220.368555 C674.559515,173.364736 660.731646,159.41184 614.610121,159.41184 L527.520314,159.41184 L527.520314,272.60471 L182.167142,272.60471 L182.167142,159.324634 L132.266572,159.324634 L108.561654,159.324634 C62.4401283,159.324634 48.6122594,173.364736 48.6122594,220.281349 L48.6122594,711.510503 C48.6122594,758.427116 62.4401283,772.467218 108.561654,772.467218 L483.838917,772.467218 L483.838917,822 L108.475766,822 C35.557377,822 0,785.72247 0,711.510503 L0,220.368555 C0,146.156588 35.557377,109.879058 108.475766,109.879058 L182.081254,109.879058 L182.081254,82.4092934 L252.337135,82.4092934 C263.33072,35.231063 305.071989,0 354.714897,0 C404.357805,0 446.099073,35.231063 457.092659,82.4092934 L527.434426,82.4092934 L527.434426,109.879058 L614.524234,109.879058 C687.442623,109.879058 723,146.156588 723,220.368555 L723,442.681731 L674.559515,442.681731 L674.559515,220.368555 Z M411.486458,131.85487 L411.486458,107.088479 C411.486458,75.2584341 386.063792,49.4455761 354.800784,49.4455761 C323.537776,49.4455761 298.11511,75.2584341 298.11511,107.088479 L298.11511,131.85487 L230.607627,131.85487 L230.607627,223.071929 L478.822167,223.071929 L478.822167,131.85487 L411.486458,131.85487 L411.486458,131.85487 Z" id="Shape"></path>
            <polygon id="Path" points="159 607 481 607 481 657 159 657"></polygon>
            <polygon id="Path" points="159 360 564 360 564 410 159 410"></polygon>
            <path d="M533.914067,523.299824 C530.390834,526.121693 527.21133,529.38448 524.461489,533 L159,533 L159,483 L534,483 L534,523.299824 L533.914067,523.299824 Z" id="Path"></path>
        </g>
    </g>
</svg>