<?xml version="1.0" encoding="UTF-8"?>
<svg width="18px" height="18px" viewBox="0 0 18 18" version="1.1" xmlns="http://www.w3.org/2000/svg" xmlns:xlink="http://www.w3.org/1999/xlink">
    <!-- Generator: Sketch 59 (86127) - https://sketch.com -->
    <title>save-file-option(2)</title>
    <desc>Created with Sketch.</desc>
    <g id="New-UX" stroke="none" stroke-width="1" fill="none" fill-rule="evenodd">
        <g id="customer-master-user-settings" transform="translate(-1234.000000, -780.000000)" fill="#FFFFFF">
            <g id="Group-5" transform="translate(1234.000000, 778.000000)">
                <g id="save-file-option(2)" transform="translate(0.000000, 2.000000)">
                    <path d="M17.7467289,4.96328474 C17.5906743,4.58885194 17.4032528,4.29220046 17.1846287,4.07374032 L13.9068656,0.795936219 C13.6885285,0.577599089 13.391877,0.390218679 13.0172802,0.234041002 C12.6428884,0.0780273349 12.2994123,0 11.987303,0 L1.12383144,0 C0.811763098,0 0.546355353,0.109189066 0.327813212,0.327731207 C0.109271071,0.546150342 0.000123006834,0.811517084 0.000123006834,1.12374943 L0.000123006834,16.8571025 C0.000123006834,17.1694169 0.109271071,17.4347836 0.327813212,17.6532437 C0.546355353,17.8715809 0.811763098,17.9808929 1.12383144,17.9808929 L16.8571435,17.9808929 C17.1694989,17.9808929 17.4348246,17.8715809 17.6532847,17.6532437 C17.8716219,17.4347836 17.9807699,17.1694169 17.9807699,16.8571025 L17.9807699,5.99363098 C17.9807699,5.68135763 17.9027836,5.33800456 17.7467289,4.96328474 Z M7.49214123,1.87286105 C7.49214123,1.77142141 7.52924829,1.68379954 7.60342141,1.60950342 C7.67751253,1.53553531 7.76533941,1.49846925 7.86677904,1.49846925 L10.1144829,1.49846925 C10.2156765,1.49846925 10.3034624,1.5354533 10.3775945,1.60950342 C10.4519317,1.68379954 10.4889977,1.77142141 10.4889977,1.87286105 L10.4889977,5.61891116 C10.4889977,5.72051481 10.4516856,5.80825968 10.3775945,5.8824328 C10.3034624,5.95635991 10.2156765,5.99346697 10.1144829,5.99346697 L7.86677904,5.99346697 C7.76533941,5.99346697 7.67747153,5.95648292 7.60342141,5.8824328 C7.52924829,5.80813667 7.49214123,5.72051481 7.49214123,5.61891116 L7.49214123,1.87286105 Z M13.4858952,16.4825467 L4.49520273,16.4825467 L4.49520273,11.987221 L13.4858952,11.987221 L13.4858952,16.4825467 Z M16.4829157,16.4825467 L14.9842005,16.4825467 L14.9839134,16.4825467 L14.9839134,11.6125831 C14.9839134,11.3002688 14.8747244,11.0350661 14.6562642,10.8164419 C14.4378041,10.5979818 14.1724374,10.4886697 13.86041,10.4886697 L4.12064692,10.4886697 C3.80845558,10.4886697 3.54304784,10.5979818 3.32450569,10.8164419 C3.10608656,11.0349021 2.99681549,11.3002688 2.99681549,11.6125831 L2.99681549,16.4825467 L1.49838724,16.4825467 L1.49838724,1.49830524 L2.99677449,1.49830524 L2.99677449,6.36818679 C2.99677449,6.68041913 3.10592255,6.94566287 3.32446469,7.16420501 C3.54300683,7.38262415 3.80841458,7.49193622 4.12060592,7.49193622 L10.8636765,7.49193622 C11.1757039,7.49193622 11.4413576,7.38262415 11.6595308,7.16420501 C11.8778679,6.94578588 11.987303,6.68041913 11.987303,6.36818679 L11.987303,1.49830524 C12.1043235,1.49830524 12.2564009,1.5372574 12.4439043,1.61528474 C12.6313667,1.69327107 12.7639681,1.77129841 12.8419954,1.84932574 L16.1316902,5.1389385 C16.2096765,5.21696583 16.2877449,5.35174032 16.3657312,5.54285194 C16.4440046,5.73412756 16.4829157,5.88440091 16.4829157,5.99363098 L16.4829157,16.4825467 L16.4829157,16.4825467 Z" id="Shape"></path>
                </g>
            </g>
        </g>
    </g>
</svg>