<?xml version="1.0" encoding="UTF-8"?>
<svg width="13px" height="16px" viewBox="0 0 13 16" version="1.1" xmlns="http://www.w3.org/2000/svg" xmlns:xlink="http://www.w3.org/1999/xlink">
    <!-- Generator: Sketch 55.2 (78181) - https://sketchapp.com -->
    <title>drop-down(1)</title>
    <desc>Created with Sketch.</desc>
    <g id="Final-Screens" stroke="none" stroke-width="1" fill="none" fill-rule="evenodd">
        <g id="customer-master-v1.2-copy-9" transform="translate(-436.000000, -222.000000)" fill-rule="nonzero">
            <g id="Group-15" transform="translate(40.000000, 145.000000)">
                <g id="drop-down(1)" transform="translate(396.000000, 77.000000)">
                    <path d="M1.13435203,6.7418696 L11.5349611,6.7418696 C11.9559027,6.7418696 12.3419992,6.58320704 12.5384145,6.33017714 C12.7345586,6.07662453 12.7087526,5.77076861 12.4708939,5.53394321 L7.20650359,0.300476983 C7.01804254,0.113156761 6.70601975,0.00101676705 6.37225841,0 C6.03885862,-0.000551409457 5.72584155,0.1102049 5.53584389,0.296971647 L0.202034797,5.53053012 C-0.0383547215,5.76631007 -0.0663301138,6.07367267 0.129407244,6.32817849 C0.325144601,6.58225383 0.712280644,6.7418696 1.13435203,6.7418696 Z" id="XMLID_623_" fill="#01B8AA"></path>
                    <path d="M11.5349598,9.2581304 L1.13433856,9.2581304 C0.712266679,9.2581304 0.325130184,9.41780695 0.129392598,9.6718504 C-0.0663449879,9.92635508 -0.0383243684,10.2337163 0.202020236,10.4694337 L5.53583556,15.7029686 C5.72583344,15.8897345 6.03885087,16.0004903 6.37225105,16 C6.70601279,15.9990452 7.01803594,15.8867827 7.20649721,15.6995248 L12.4708937,10.4659899 C12.7087526,10.2292578 12.7345587,9.92334173 12.5384144,9.66975951 C12.3419989,9.41679225 11.9559018,9.2581304 11.5349598,9.2581304 Z" id="XMLID_622_" fill="#FFFFFF"></path>
                </g>
            </g>
        </g>
    </g>
</svg>