<?xml version="1.0" encoding="UTF-8"?>
<svg version="1.1" viewBox="0 0 13 16" xmlns="http://www.w3.org/2000/svg">
<title>drop-down(1)</title>
<desc>Created with Sketch.</desc>
<g fill="none" fill-rule="evenodd">
<g transform="translate(-215 -222)" fill="#fff" fill-rule="nonzero">
<g transform="translate(40 145)">
<g transform="translate(175 77)">
<path d="m1.1344 6.7419h10.401c0.42094 0 0.80704-0.15866 1.0035-0.41169 0.19614-0.25355 0.17034-0.55941-0.067521-0.79623l-5.2644-5.2335c-0.18846-0.18732-0.50048-0.29946-0.83425-0.30048-0.3334-5.5141e-4 -0.64642 0.1102-0.83641 0.29697l-5.3338 5.2336c-0.24039 0.23578-0.26836 0.54314-0.072628 0.79765 0.19574 0.25408 0.58287 0.41369 1.0049 0.41369z"/>
<path d="m11.535 9.2581h-10.401c-0.42207 0-0.80921 0.15968-1.0049 0.41372-0.19574 0.2545-0.16772 0.56187 0.072628 0.79758l5.3338 5.2335c0.19 0.18677 0.50302 0.29752 0.83642 0.29703 0.33376-9.548e-4 0.64578-0.11322 0.83425-0.30048l5.2644-5.2335c0.23786-0.23673 0.26366-0.54265 0.067521-0.79623-0.19642-0.25297-0.58251-0.41163-1.0035-0.41163z"/>
</g>
</g>
</g>
</g>
</svg>
