<?xml version="1.0" encoding="UTF-8"?>
<svg width="9px" height="10px" viewBox="0 0 9 10" version="1.1" xmlns="http://www.w3.org/2000/svg" xmlns:xlink="http://www.w3.org/1999/xlink">
    <!-- Generator: Sketch 59 (86127) - https://sketch.com -->
    <title>schedule</title>
    <desc>Created with Sketch.</desc>
    <g id="Symbols" stroke="none" stroke-width="1" fill="none" fill-rule="evenodd">
        <g id="Button/S/Ghost/StatusCompleted" transform="translate(-6.000000, -4.000000)" fill="#FFFFFF" fill-rule="nonzero">
            <g id="Group" transform="translate(6.000000, 3.000000)">
                <g id="schedule" transform="translate(0.000000, 1.000000)">
                    <path d="M6.11328125,4.7265625 C4.65942383,4.7265625 3.4765625,5.90942383 3.4765625,7.36328125 C3.4765625,8.81713867 4.65942383,10 6.11328125,10 C7.56713867,10 8.75,8.81713867 8.75,7.36328125 C8.75,5.90942383 7.56713867,4.7265625 6.11328125,4.7265625 Z M3.24409484,9.21875 L1.171875,9.21875 C0.956497187,9.21875 0.78125,9.04350281 0.78125,8.828125 L0.78125,1.953125 C0.78125,1.73774719 0.956497187,1.5625 1.171875,1.5625 L1.81640625,1.5625 L1.81640625,3.10546875 L5.72265625,3.10546875 L5.72265625,1.5625 L6.34765625,1.5625 C6.56303406,1.5625 6.73828125,1.73774719 6.73828125,1.953125 L6.73828125,4.00276184 C7.01133729,4.05342102 7.27325439,4.13650512 7.51953125,4.24812316 L7.51953125,1.953125 C7.51953125,1.30691527 6.99386598,0.78125 6.34765625,0.78125 L4.87449646,0.78125 C4.71321105,0.326538086 4.27879334,0 3.76953125,0 C3.26026916,0 2.82585145,0.326538086 2.66456604,0.78125 L1.171875,0.78125 C0.525665273,0.78125 0,1.30691527 0,1.953125 L0,8.828125 C0,9.47433473 0.525665273,10 1.171875,10 L3.94065857,10 C3.67057801,9.7770691 3.43536377,9.51347352 3.24409484,9.21875 Z M7.15000501,6.66963301 L7.5,7 L6.04968415,8.39634513 L5,7.5 L5.33164544,7.15120826 L6.0312594,7.7147047 L7.15000501,6.66963301 Z M3.76953125,0.78125 C3.98490906,0.78125 4.16015625,0.956497188 4.16015625,1.171875 L4.16015625,1.5625 L4.94140625,1.5625 L4.94140625,2.32421875 L2.59765625,2.32421875 L2.59765625,1.5625 L3.37890625,1.5625 L3.37890625,1.171875 C3.37890625,0.956497188 3.55415344,0.78125 3.76953125,0.78125 Z" id="Shape"></path>
                </g>
            </g>
        </g>
    </g>
</svg>