<?xml version="1.0" encoding="UTF-8"?>
<svg version="1.1" viewBox="0 0 70 64" xmlns="http://www.w3.org/2000/svg">
<title>upload</title>
<desc>Created with Sketch.</desc>
<g fill="none" fill-rule="evenodd">
<g transform="translate(-1036 -273)" fill="#9B9B9B" fill-rule="nonzero">
<g transform="translate(270 184)">
<g transform="translate(742 89)">
<g transform="translate(24)">
<path d="m56.395 16.712c-0.74148-4.3836-2.9231-8.3842-6.2598-11.42-3.7074-3.3764-8.527-5.2348-13.546-5.2348-3.8785 0-7.6572 1.1065-10.894 3.192-2.695 1.7308-4.9337 4.0715-6.5165 6.8237-0.68444-0.12768-1.3974-0.19861-2.1104-0.19861-6.0602 0-10.994 4.9085-10.994 10.938 0 0.78026 0.085556 1.5321 0.22815 2.2698-3.9213 2.8373-6.3026 7.4054-6.3026 12.271 0 3.9297 1.4687 7.7458 4.1494 10.768 2.752 3.0927 6.3881 4.9227 10.267 5.1355h0.11407 12.263c1.0694 0 1.925-0.85119 1.925-1.9152s-0.85556-1.9152-1.925-1.9152h-12.206c-5.832-0.35466-10.737-5.8732-10.737-12.087 0-4.0148 2.1674-7.76 5.6609-9.7887 0.81278-0.46815 1.155-1.447 0.8413-2.3266-0.28519-0.76607-0.42778-1.5747-0.42778-2.4401 0-3.9155 3.2083-7.1074 7.1439-7.1074 0.8413 0 1.6683 0.14186 2.4383 0.4256 0.94111 0.34048 1.982-0.085119 2.4098-0.97887 2.6665-5.632 8.4272-9.2638 14.687-9.2638 8.413 0 15.357 6.2704 16.156 14.584 0.085556 0.86538 0.74148 1.5605 1.597 1.7024 6.3454 1.0782 11.136 6.9088 11.136 13.562 0 7.0507-5.5754 13.179-12.448 13.704h-10.509c-1.0694 0-1.925 0.85119-1.925 1.9152s0.85556 1.9152 1.925 1.9152h10.58 0.14259c4.3491-0.3121 8.413-2.2982 11.436-5.6179 3.0087-3.2913 4.6485-7.5188 4.6485-11.917-0.014259-7.9586-5.4756-15.038-12.947-16.995z"/>
<path d="m46.229 37.169c0.75574-0.75188 0.75574-1.9577 0-2.7096l-10.195-10.143c-0.35648-0.35466-0.85556-0.56746-1.3546-0.56746s-0.99815 0.19861-1.3546 0.56746l-10.195 10.143c-0.75574 0.75188-0.75574 1.9577 0 2.7096 0.37074 0.36885 0.86981 0.56746 1.3546 0.56746 0.48481 0 0.98389-0.18442 1.3546-0.56746l6.9157-6.8805v31.622c0 1.064 0.85556 1.9152 1.925 1.9152 1.0694 0 1.925-0.85119 1.925-1.9152v-31.622l6.9157 6.8805c0.74148 0.75188 1.9535 0.75188 2.7093 0z"/>
</g>
</g>
</g>
</g>
</g>
</svg>
