<?xml version="1.0" encoding="UTF-8"?>
<svg width="80px" height="88px" viewBox="0 0 80 88" version="1.1" xmlns="http://www.w3.org/2000/svg" xmlns:xlink="http://www.w3.org/1999/xlink">
    <!-- Generator: Sketch 63.1 (92452) - https://sketch.com -->
    <title>Upload_file</title>
    <desc>Created with Sketch.</desc>
    <g id="Page-1" stroke="none" stroke-width="1" fill="none" fill-rule="evenodd">
        <g id="Customer-Master---Upload-File" transform="translate(-680.000000, -392.000000)" fill="#0095E6" fill-rule="nonzero">
            <g id="Group-2" transform="translate(548.000000, 392.000000)">
                <g id="Upload_file" transform="translate(132.000000, 0.000000)">
                    <path d="M59.6487713,37.8872863 L59.6487713,21.3241186 C59.6487713,20.8500267 59.4297542,20.4119925 59.1199251,20.0654379 L40.5502137,0.565571624 C40.2036591,0.200988205 39.7108708,0 39.2187501,0 L9.77697641,0 C4.34161333,0 0,4.4324253 0,9.86845624 L0,65.5408653 C0,70.9768964 4.34161333,75.3365385 9.77697641,75.3365385 L33.016827,75.3365385 C37.4125267,82.6328793 45.4026443,87.5213675 54.5045405,87.5213675 C68.3313301,87.5213675 79.6227599,76.2847222 79.6227599,62.4399039 C79.6414263,50.3458868 70.9581998,40.2403846 59.6487713,37.8872863 Z M41.0430021,6.40291128 L53.5016026,19.5178954 L45.4206732,19.5178954 C43.0128205,19.5178954 41.0430021,17.530048 41.0430021,15.1221956 L41.0430021,6.40291128 Z M9.77697641,71.6880342 C6.36618598,71.6880342 3.64850427,68.9516561 3.64850427,65.5408653 L3.64850427,9.86845624 C3.64850427,6.43896906 6.36618598,3.64850427 9.77697641,3.64850427 L37.3944978,3.64850427 L37.3944978,15.1221956 C37.3944978,19.5546207 40.9882479,23.1663997 45.4206732,23.1663997 L56.000267,23.1663997 L56.000267,37.4125267 C55.4533921,37.3944978 55.0153579,37.3397436 54.541266,37.3397436 C48.1750802,37.3397436 42.3197115,39.7843215 37.9053152,43.6151176 L14.7389156,43.6151176 C13.7353097,43.6151176 12.9146634,44.4357639 12.9146634,45.4387019 C12.9146634,46.4423077 13.7353097,47.262954 14.7389156,47.262954 L34.5125535,47.262954 C33.2171474,49.0872062 32.1407586,50.9114583 31.3020834,52.9180021 L14.7389156,52.9180021 C13.7353097,52.9180021 12.9146634,53.7386485 12.9146634,54.7422544 C12.9146634,55.7451923 13.7353097,56.5665063 14.7389156,56.5665063 L30.116186,56.5665063 C29.6601229,58.3907586 29.4230769,60.4153313 29.4230769,62.4399039 C29.4230769,65.7231571 30.0614316,68.9703525 31.2106036,71.7067308 L9.77697641,71.7067308 L9.77697641,71.6880342 Z M54.5232373,83.8915598 C42.7029915,83.8915598 33.0896101,74.2781785 33.0896101,62.4579326 C33.0896101,50.637687 42.6842949,41.0243056 54.5232373,41.0243056 C66.3615118,41.0243056 75.9561966,50.637687 75.9561966,62.4579326 C75.9561966,74.2781785 66.3434829,83.8915598 54.5232373,83.8915598 Z" id="Shape"></path>
                    <path d="M14.7389156,38.1243323 L33.2171474,38.1243323 C34.2207532,38.1243323 35.0413997,37.3030181 35.0413997,36.3000802 C35.0413997,35.2964744 34.2207532,34.475828 33.2171474,34.475828 L14.7389156,34.475828 C13.7353097,34.475828 12.9146634,35.2964744 12.9146634,36.3000802 C12.9146634,37.3030181 13.7353097,38.1243323 14.7389156,38.1243323 Z" id="Path"></path>
                    <path d="M55.8179754,48.9957265 C55.4714209,48.6311432 54.9973291,48.4121262 54.4865118,48.4121262 C53.9756944,48.4121262 53.5016026,48.6311432 53.155048,48.9957265 L42.4652778,60.4694178 C41.7721689,61.1992521 41.8269231,62.366453 42.5567574,63.0415332 C43.2865918,63.7346421 44.4718215,63.6798879 45.1649306,62.9507212 L52.7170138,54.8697916 L52.7170138,74.7889957 C52.7170138,75.7926015 53.5376602,76.6132479 54.541266,76.6132479 C55.5442041,76.6132479 56.3655181,75.7926015 56.3655181,74.7889957 L56.3655181,54.8697916 L63.8621795,62.9507212 C64.2274306,63.3333333 64.7015224,63.5343215 65.1943109,63.5343215 C65.6316773,63.5343215 66.0697115,63.3700588 66.4342949,63.0415332 C67.1641292,62.3484241 67.2188836,61.1992521 66.5257745,60.4694178 L55.8179754,48.9957265 Z" id="Path"></path>
                </g>
            </g>
        </g>
    </g>
</svg>