<?xml version="1.0" encoding="UTF-8"?>
<svg width="17px" height="18px" viewBox="0 0 17 18" version="1.1" xmlns="http://www.w3.org/2000/svg" xmlns:xlink="http://www.w3.org/1999/xlink">
    <!-- Generator: Sketch 63.1 (92452) - https://sketch.com -->
    <title>Group 9</title>
    <desc>Created with Sketch.</desc>
    <g id="Page-1" stroke="none" stroke-width="1" fill="none" fill-rule="evenodd">
        <g id="Customer-Master---Upload-File" transform="translate(-659.000000, -599.000000)" fill="#1F496A" fill-rule="nonzero">
            <g id="Group-2" transform="translate(548.000000, 392.000000)">
                <g id="Buttons-/-Button" transform="translate(87.000000, 196.000000)">
                    <g id="Group" transform="translate(24.000000, 10.000000)">
                        <g id="Group-9" transform="translate(0.373264, 1.000000)">
                            <path d="M7.93935849,-8.8817842e-16 L4.36550943,3.57418868 C4.00958491,3.92196226 4.08871698,4.16716981 4.58592453,4.16716981 L6.5805283,4.16716981 L6.58018868,8.51026415 C6.58018868,9.26015094 7.18811321,9.86875472 7.93867925,9.86875472 L7.93867925,9.86875472 C8.68890566,9.86875472 9.29716981,9.26049057 9.29716981,8.51026415 L9.29750943,4.16683019 L11.2931321,4.16683019 C11.7896604,4.16716981 11.8681132,3.92128302 11.5125283,3.57350943 L7.93935849,-8.8817842e-16 Z" id="Path"></path>
                            <path d="M15.7231698,8.75207547 L13.6687925,8.75207547 C13.4806415,8.75207547 13.3291698,8.90388679 13.3291698,9.09169811 L13.3291698,15.1841887 L2.73362264,15.1841887 L2.73362264,9.09169811 C2.73362264,8.90388679 2.58181132,8.75207547 2.394,8.75207547 L0.339622642,8.75207547 C0.151811321,8.75207547 3.32178729e-13,8.90388679 3.32178729e-13,9.09169811 L3.32178729e-13,16.0417358 C3.32178729e-13,17.0758868 0.841924528,17.9171321 1.87607547,17.9171321 L14.186717,17.9171321 C15.2212075,17.9171321 16.0624534,17.0752075 16.0624534,16.0417358 L16.0624534,9.09169811 C16.0627925,8.90388679 15.9113208,8.75207547 15.7231698,8.75207547 Z" id="Path"></path>
                        </g>
                    </g>
                </g>
            </g>
        </g>
    </g>
</svg>