<?xml version="1.0" encoding="UTF-8"?>
<svg width="134px" height="138px" viewBox="0 0 134 138" version="1.1" xmlns="http://www.w3.org/2000/svg" xmlns:xlink="http://www.w3.org/1999/xlink">
    <title>F05FB206-4D5A-4D79-A5D4-D46EB68677B2</title>
    <defs>
        <linearGradient x1="35.9074556%" y1="70.2553868%" x2="77.6759265%" y2="5.09310634%" id="linearGradient-1">
            <stop stop-color="#719E19" offset="0%"></stop>
            <stop stop-color="#FFFFFF" offset="100%"></stop>
        </linearGradient>
    </defs>
    <g id="📄-Asset-Sheet" stroke="none" stroke-width="1" fill="none" fill-rule="evenodd" opacity="0.100000001">
        <g id="App.MotiveH&amp;S.A.1" transform="translate(-972.000000, -1141.000000)" fill="url(#linearGradient-1)">
            <path d="M1049.03433,1252.93417 C1052.50857,1254.83079 1055.9056,1256.87461 1059.45705,1258.6297 C1072.07715,1264.90271 1085.36241,1269.36402 1099.42567,1271.63997 C1101.62899,1271.99665 1103.80856,1272.49486 1106,1272.93081 L1106,1279 C1096.9254,1277.20528 1087.5301,1276.28245 1078.85935,1273.38939 C1068.35942,1269.89621 1058.4712,1264.73852 1048.33354,1260.26589 C1047.27642,1259.79598 1046.30838,1259.11093 1045.3641,1258.44287 C1043.51711,1257.14637 1042.09772,1255.53282 1043.68934,1253.34746 C1045.1503,1251.33761 1047.15764,1251.90376 1049.03433,1252.93417 Z M982.414779,1141 C988.455118,1147.80653 994.775049,1154.39697 1000.47755,1161.47075 C1009.28468,1172.40555 1016.48998,1184.37525 1022.53614,1196.97614 C1038.00687,1229.24032 1065.12141,1246.66889 1099.58687,1254.76621 C1101.71876,1255.2666 1103.86229,1255.73857 1106,1256.22191 L1106,1263 C1102.73633,1262.04124 1099.43974,1261.16095 1096.14227,1260.28317 L1093.31639,1259.52962 C1086.72565,1257.76449 1080.16793,1255.92251 1073.89941,1253.39581 C1049.33614,1243.49024 1030.27733,1227.18756 1018.38887,1203.66893 C1010.94475,1188.94137 1003.08707,1174.45262 992.305325,1161.80056 C986.043643,1154.45383 978.803391,1147.90888 972,1141 L982.414779,1141 Z M1006.91379,1141 C1019.3954,1155.61836 1029.43132,1171.76655 1037.95956,1188.87796 C1048.19114,1209.40033 1064.66064,1223.33876 1085.87765,1231.99079 C1092.06378,1234.51218 1098.61821,1236.18932 1105,1238.25176 L1105,1245 C1092.57594,1241.88935 1080.52592,1237.86647 1069.46569,1231.28254 C1053.88814,1222.00725 1041.32021,1209.83095 1033.10272,1193.77908 C1024.7126,1177.38725 1015.5341,1161.52803 1003.6337,1147.31762 C1001.82102,1145.1532 999.875981,1143.1021 998,1141 L1006.91379,1141 Z M1030.22979,1141 C1034.05693,1146.62098 1038.00492,1152.16954 1041.67667,1157.88523 C1047.4663,1166.88771 1052.5423,1176.36929 1058.85564,1184.99852 C1069.9342,1200.14565 1085.44994,1209.97262 1103.00298,1216.94174 C1103.35486,1217.08499 1103.73869,1217.1573 1104.12762,1217.21791 L1104.71149,1217.30747 C1104.80832,1217.3234 1104.90463,1217.34045 1105,1217.35955 L1105,1224 C1102.56477,1222.8922 1100.09478,1221.83942 1097.62197,1220.791 L1095.1494,1219.74215 C1089.79526,1217.46466 1084.47787,1215.1283 1079.52219,1212.21767 C1063.77049,1202.96449 1052.52503,1189.57219 1043.6219,1173.95154 C1037.14166,1162.58145 1029.25718,1151.95785 1022,1141 L1030.22979,1141 Z M1050.79112,1141 C1052.3714,1143.62066 1053.88956,1146.28076 1055.39516,1148.94893 L1057.39953,1152.50852 C1062.58073,1161.70227 1067.87415,1170.8264 1075.30465,1178.59893 C1082.21095,1185.81306 1090.08521,1191.81507 1098.79084,1196.7455 C1101.12461,1198.06301 1103.59497,1199.14045 1106,1200.32914 L1106,1208 C1092.70996,1201.80475 1080.74418,1193.80012 1070.5599,1183.23073 C1062.3531,1174.72837 1056.59289,1164.67427 1050.90989,1154.52648 C1048.36233,1149.96495 1045.64257,1145.50883 1043,1141 L1050.79112,1141 Z M978.920682,1165.38026 C988.296655,1175.46827 995.537562,1186.94657 1001.39898,1199.30651 C1001.63939,1199.80384 1001.7138,1200.37465 1002,1201.38628 C1001.43904,1202.12098 1000.90098,1203.4943 999.973691,1203.85035 C999.029225,1204.2064 997.409322,1203.89556 996.607957,1203.25129 C995.526114,1202.3753 994.787713,1200.97371 994.169517,1199.67386 C989.000712,1188.84549 982.423793,1178.93267 974.358625,1169.99192 C972.893271,1168.35862 972.332315,1166.65751 974.112491,1164.96769 C975.78391,1163.37396 977.564085,1163.91651 978.920682,1165.38026 Z M1071.83429,1141 C1079.97581,1156.44426 1091.04713,1169.24012 1106,1178.50095 L1106,1186 C1097.27367,1181.38388 1089.71696,1175.20046 1083.00308,1168.0675 C1075.48651,1160.09368 1069.3173,1151.13029 1065,1141 L1071.83429,1141 Z M1090.90587,1141 C1095.94127,1146.03883 1100.97063,1151.07215 1106,1156.11098 L1106,1164 C1099.656,1158.14525 1093.24567,1152.34564 1087.01023,1146.39166 C1085.39407,1144.84252 1084.32066,1142.80825 1083,1141 L1090.90587,1141 Z" id="wave-graphic"></path>
        </g>
    </g>
</svg>