<?xml version="1.0" encoding="UTF-8"?>
<svg width="24px" height="24px" viewBox="0 0 24 24" version="1.1" xmlns="http://www.w3.org/2000/svg" xmlns:xlink="http://www.w3.org/1999/xlink">
    <title>C9F19359-6F96-4BF5-8F4E-7E7FA0A31B67</title>
    <g id="📄-Asset-Sheet" stroke="none" stroke-width="1" fill="none" fill-rule="evenodd">
        <g id="App.MotiveH&amp;S.A.1" transform="translate(-120.000000, -1525.000000)">
            <g id="icon_calendar" transform="translate(120.000000, 1525.000000)">
                <rect id="Rectangle" fill="#719E19" opacity="0.149999991" x="0" y="0" width="24" height="24" rx="4"></rect>
                <g id="Icon/Outline-1pt/calendar/calendar_consumer" transform="translate(4.000000, 4.000000)" stroke="#719E19" stroke-linejoin="round">
                    <path d="M5.27839581,2.25 L10.75,2.25 M12.7772413,2.25 L14.5,2.25 C14.7761424,2.25 15,2.47385763 15,2.75 L15,14.5 C15,14.7761424 14.7761424,15 14.5,15 L1.5,15 C1.22385763,15 1,14.7761424 1,14.5 L1,2.75 C1,2.47385763 1.22385763,2.25 1.5,2.25 L3.26230364,2.25" id="Rectangle"></path>
                    <line x1="1.125" y1="5" x2="14.875" y2="5" id="Line" stroke-linecap="round"></line>
                    <polygon id="Line" stroke-linecap="round" points="3.25 3.5 5.25 3.5 5.25 1 3.25 1"></polygon>
                    <polygon id="Line" stroke-linecap="round" points="10.75 3.5 12.75 3.5 12.75 1 10.75 1"></polygon>
                </g>
            </g>
        </g>
    </g>
</svg>