<svg width="120" height="120" viewBox="0 0 120 120" fill="none" xmlns="http://www.w3.org/2000/svg">
<path fill-rule="evenodd" clip-rule="evenodd" d="M120 59.9997C120 26.8624 93.1375 0 60 0V0C26.8631 0 0 26.8624 0 59.9997V59.9997C0 93.1365 26.8631 120.137 60 119.999V119.999C93.4009 119.86 120 92.26 120 59.9997V59.9997Z" fill="url(#paint0_linear_5_4225)"/>
<mask id="mask0_5_4225" style="mask-type:alpha" maskUnits="userSpaceOnUse" x="0" y="0" width="120" height="120">
<path fill-rule="evenodd" clip-rule="evenodd" d="M59.9997 0C26.8624 0 0 26.8625 0 60V60C0 93.1369 26.8624 120 59.9997 120V120C93.1365 120 120.137 93.1369 119.999 60V60C119.86 26.5991 92.26 0 59.9997 0V0Z" fill="white"/>
</mask>
<g mask="url(#mask0_5_4225)">
<path d="M-20.4816 49.4025C-24.0313 49.4025 -27.0639 46.2193 -27.0639 42.5648C-27.0639 38.9099 -24.0314 35.7266 -20.4816 35.7266H2.4975C3.29279 35.7266 3.9375 36.3713 3.9375 37.1666C3.9375 37.9619 3.29279 38.6066 2.4975 38.6066H-20.4816C-22.4087 38.6066 -24.1839 40.47 -24.1839 42.5648C-24.1839 44.6591 -22.4087 46.5225 -20.4816 46.5225H-17.6006C-16.8053 46.5225 -16.1606 47.1672 -16.1606 47.9625C-16.1606 48.7578 -16.8053 49.4025 -17.6006 49.4025H-20.4816Z" fill="#6C6C6C"/>
<path d="M10.7323 13.2266C10.7323 16.813 7.51977 19.8735 3.83123 19.8735C0.14227 19.8735 -3.07031 16.8131 -3.07031 13.2266H-0.0636588C-0.0636588 15.1171 1.77051 16.8643 3.83123 16.8643C5.89149 16.8643 7.7256 15.117 7.7256 13.2266H10.7323Z" fill="#6C6C6C"/>
<path d="M-25.9846 100.507C-26.978 100.507 -27.7833 99.8336 -27.7833 99.0033C-27.7833 98.1731 -26.978 97.5 -25.9846 97.5H1.95126C2.94467 97.5 3.75 98.1731 3.75 99.0033C3.75 99.8336 2.94467 100.507 1.95126 100.507H-25.9846Z" fill="#6C6C6C"/>
<path d="M80.8904 108.944C79.897 108.944 79.0917 108.271 79.0917 107.441C79.0917 106.611 79.897 105.938 80.8904 105.938H108.826C109.82 105.938 110.625 106.611 110.625 107.441C110.625 108.271 109.82 108.944 108.826 108.944H80.8904Z" fill="#6C6C6C"/>
<path d="M109.072 60.48C110.133 60.48 110.992 61.3396 110.992 62.4C110.992 63.4604 110.133 64.32 109.072 64.32H104.752C103.692 64.32 102.832 63.4604 102.832 62.4C102.832 61.3396 103.692 60.48 104.752 60.48H109.072Z" fill="#6C6C6C"/>
<path d="M71.3844 102.525C70.5891 102.525 69.9444 101.88 69.9444 101.085C69.9444 100.29 70.5891 99.645 71.3844 99.645H76.3432C77.1385 99.645 77.7832 100.29 77.7832 101.085C77.7832 101.88 77.1385 102.525 76.3432 102.525H71.3844Z" fill="#6C6C6C"/>
<path d="M28.8676 40.8C29.6629 40.8 30.3076 41.4448 30.3076 42.24C30.3076 43.0353 29.6629 43.68 28.8676 43.68H18.848C18.0527 43.68 17.408 43.0353 17.408 42.24C17.408 41.4448 18.0527 40.8 18.848 40.8H28.8676Z" fill="#6C6C6C"/>
<path d="M37.7904 10.05C33.9244 10.05 30.585 13.3871 30.585 17.25C30.585 21.113 33.9244 24.45 37.7904 24.45H52.7941C53.6045 24.45 54.2615 23.7936 54.2615 22.9839C54.2615 22.1742 53.6045 21.5177 52.7941 21.5177H37.7904C35.5453 21.5177 33.5197 19.4936 33.5197 17.25C33.5197 15.0065 35.5453 12.9824 37.7904 12.9824H42.1791C42.9895 12.9824 43.6465 12.3259 43.6465 11.5162C43.6465 10.7065 42.9895 10.05 42.1791 10.05H37.7904Z" fill="#6C6C6C"/>
<path d="M-7.62653 88.5133C-9.28845 88.5133 -10.6357 87.1672 -10.6357 85.5067C-10.6357 83.8461 -9.28845 82.5 -7.62653 82.5H15.7408C17.4027 82.5 18.75 83.8461 18.75 85.5067C18.75 87.1672 17.4027 88.5133 15.7408 88.5133H-7.62653Z" fill="#6C6C6C"/>
<path fill-rule="evenodd" clip-rule="evenodd" d="M16.2305 63.3802C16.2305 57.0071 11.0597 51.8401 4.68066 51.8401C-1.69785 51.8401 -6.86914 57.0071 -6.86914 63.3802" fill="#6C6C6C"/>
<path fill-rule="evenodd" clip-rule="evenodd" d="M51.7449 11.6264C51.7449 12.3523 52.3335 12.9404 53.06 12.9404C53.7864 12.9404 54.375 12.3523 54.375 11.6264C54.375 10.9006 53.7864 10.3125 53.06 10.3125C52.3335 10.3125 51.7449 10.9006 51.7449 11.6264" fill="#6C6C6C"/>
<g filter="url(#filter0_d_5_4225)">
<path fill-rule="evenodd" clip-rule="evenodd" d="M96.4688 54.3375C96.4688 52.1111 94.6639 50.3062 92.4375 50.3062H71.025L72.7312 43.05V35.55C72.7312 33.0026 70.6662 30.9375 68.1187 30.9375C65.5713 30.9375 63.5062 33.0026 63.5062 35.55L62.5687 43.05L51.5625 58.3688H47.8125V82.5656H84.8719C87.0983 82.5656 88.9031 80.7608 88.9031 78.5344C88.9031 76.308 87.0983 74.5031 84.8719 74.5031H87.4031C89.6295 74.5031 91.4344 72.6983 91.4344 70.4719C91.4344 68.2455 89.6295 66.4406 87.4031 66.4406H89.9344C92.1608 66.4406 93.9656 64.6358 93.9656 62.4094C93.9656 60.183 92.1608 58.3781 89.9344 58.3781H92.4656C94.6847 58.3626 96.474 56.5566 96.4688 54.3375V54.3375Z" fill="white"/>
<path opacity="0.150338" fill-rule="evenodd" clip-rule="evenodd" d="M96.4688 54.3375C96.4688 52.1111 94.6639 50.3062 92.4375 50.3062H71.025L72.7312 43.05V35.55C72.7312 33.0026 70.6662 30.9375 68.1187 30.9375C65.5713 30.9375 63.5062 33.0026 63.5062 35.55L62.5687 43.05L51.5625 58.3688H47.8125V82.5656H84.8719C87.0983 82.5656 88.9031 80.7608 88.9031 78.5344C88.9031 76.308 87.0983 74.5031 84.8719 74.5031H87.4031C89.6295 74.5031 91.4344 72.6983 91.4344 70.4719C91.4344 68.2455 89.6295 66.4406 87.4031 66.4406H89.9344C92.1608 66.4406 93.9656 64.6358 93.9656 62.4094C93.9656 60.183 92.1608 58.3781 89.9344 58.3781H92.4656C94.6847 58.3626 96.474 56.5566 96.4688 54.3375V54.3375Z" fill="url(#paint1_linear_5_4225)"/>
<path fill-rule="evenodd" clip-rule="evenodd" d="M23.4375 56.25H44.0625V85.3125H23.4375V56.25Z" fill="white"/>
<path opacity="0.150338" fill-rule="evenodd" clip-rule="evenodd" d="M23.4375 56.25H44.0625V85.3125H23.4375V56.25Z" fill="url(#paint2_linear_5_4225)"/>
<circle cx="28.5938" cy="80.1562" r="2.34375" fill="#E00800"/>
</g>
</g>
<defs>
<filter id="filter0_d_5_4225" x="19.4375" y="28.9375" width="81.0312" height="62.375" filterUnits="userSpaceOnUse" color-interpolation-filters="sRGB">
<feFlood flood-opacity="0" result="BackgroundImageFix"/>
<feColorMatrix in="SourceAlpha" type="matrix" values="0 0 0 0 0 0 0 0 0 0 0 0 0 0 0 0 0 0 127 0" result="hardAlpha"/>
<feOffset dy="2"/>
<feGaussianBlur stdDeviation="2"/>
<feColorMatrix type="matrix" values="0 0 0 0 0 0 0 0 0 0 0 0 0 0 0 0 0 0 0.15 0"/>
<feBlend mode="normal" in2="BackgroundImageFix" result="effect1_dropShadow_5_4225"/>
<feBlend mode="normal" in="SourceGraphic" in2="effect1_dropShadow_5_4225" result="shape"/>
</filter>
<linearGradient id="paint0_linear_5_4225" x1="75.2" y1="16.6181" x2="85.0023" y2="162.9" gradientUnits="userSpaceOnUse">
<stop stop-color="#0A0A0A"/>
<stop offset="1" stop-color="#E9E9DF"/>
</linearGradient>
<linearGradient id="paint1_linear_5_4225" x1="83.953" y1="103.849" x2="83.953" y2="64.8918" gradientUnits="userSpaceOnUse">
<stop/>
<stop offset="1" stop-opacity="0.01"/>
</linearGradient>
<linearGradient id="paint2_linear_5_4225" x1="43.6227" y1="100.68" x2="43.6227" y2="65.0384" gradientUnits="userSpaceOnUse">
<stop/>
<stop offset="1" stop-opacity="0.01"/>
</linearGradient>
</defs>
</svg>
