<svg xmlns="http://www.w3.org/2000/svg" xmlns:xlink="http://www.w3.org/1999/xlink" width="120" height="120" viewBox="0 0 120 120">
    <defs>
        <linearGradient id="dib36o70fe" x1="36.549%" x2="36.549%" y1="141.224%" y2="65.767%">
            <stop offset="0%"/>
            <stop offset="100%" stop-opacity="0"/>
        </linearGradient>
        <linearGradient id="p4yep5opff" x1="36.549%" x2="36.549%" y1="152.878%" y2="30.24%">
            <stop offset="0%"/>
            <stop offset="100%" stop-opacity="0"/>
        </linearGradient>
        <radialGradient id="6n7zqmm1mb" cx="50%" cy="100%" r="100%" fx="50%" fy="100%">
            <stop offset="0%" stop-color="#BEE70D"/>
            <stop offset="100%" stop-color="#719E19"/>
        </radialGradient>
        <filter id="ofmijuhdad" width="132.8%" height="144.1%" x="-16.4%" y="-22.1%" filterUnits="objectBoundingBox">
            <feOffset dy="2" in="SourceAlpha" result="shadowOffsetOuter1"/>
            <feGaussianBlur in="shadowOffsetOuter1" result="shadowBlurOuter1" stdDeviation="2"/>
            <feColorMatrix in="shadowBlurOuter1" result="shadowMatrixOuter1" values="0 0 0 0 0 0 0 0 0 0 0 0 0 0 0 0 0 0 0.15 0"/>
            <feMerge>
                <feMergeNode in="shadowMatrixOuter1"/>
                <feMergeNode in="SourceGraphic"/>
            </feMerge>
        </filter>
        <path id="7ei6ezljba" d="M60 0C26.862 0 0 26.863 0 60s26.862 60 60 60c33.137 0 60.137-26.863 60-60-.14-33.4-27.74-60-60-60z"/>
    </defs>
    <g fill="none" fill-rule="evenodd">
        <g>
            <g>
                <g transform="translate(-128.000000, -108.000000) translate(48.000000, 108.000000) translate(80.000000, 0.000000)">
                    <mask id="dnq42c0z6c" fill="#fff">
                        <use xlink:href="#7ei6ezljba"/>
                    </mask>
                    <use fill="url(#6n7zqmm1mb)" xlink:href="#7ei6ezljba"/>
                    <g mask="url(#dnq42c0z6c)">
                        <g>
                            <path fill="#719E19" fill-rule="nonzero" d="M185.482 40.027c3.55 0 6.582-3.183 6.582-6.837 0-3.655-3.032-6.839-6.582-6.839h-22.98c-.794 0-1.44.645-1.44 1.44 0 .796.646 1.44 1.44 1.44h22.98c1.927 0 3.702 1.864 3.702 3.959 0 2.094-1.775 3.957-3.702 3.957H182.6c-.795 0-1.44.645-1.44 1.44 0 .796.645 1.44 1.44 1.44h2.88z" transform="translate(60.937500, 59.531250) scale(-1, 1) translate(-60.937500, -59.531250) translate(-43.125000, 9.375000)"/>
                            <path fill="#719E19" fill-rule="nonzero" d="M157.845 14.076c3.587 0 6.647-3.212 6.647-6.9 0-3.69-3.06-6.902-6.647-6.902V3.28c1.89 0 3.638 1.835 3.638 3.895s-1.747 3.895-3.638 3.895v3.006z" transform="translate(60.937500, 59.531250) scale(-1, 1) translate(-60.937500, -59.531250) translate(-43.125000, 9.375000) translate(161.168605, 7.174968) rotate(90.000000) translate(-161.168605, -7.174968)"/>
                            <path fill="#E2E1DA" fill-rule="nonzero" d="M190.985 91.132c.993 0 1.798-.673 1.798-1.504 0-.83-.805-1.503-1.798-1.503h-27.936c-.994 0-1.799.673-1.799 1.503 0 .83.805 1.504 1.799 1.504h27.936z" transform="translate(60.937500, 59.531250) scale(-1, 1) translate(-60.937500, -59.531250) translate(-43.125000, 9.375000)"/>
                            <path fill="#719E19" fill-rule="nonzero" d="M84.11 99.57c.993 0 1.798-.674 1.798-1.504s-.805-1.504-1.798-1.504H56.174c-.994 0-1.799.674-1.799 1.504s.805 1.503 1.799 1.503H84.11z" transform="translate(60.937500, 59.531250) scale(-1, 1) translate(-60.937500, -59.531250) translate(-43.125000, 9.375000)"/>
                            <path fill="#BEE70D" fill-rule="nonzero" d="M55.928 51.105c-1.06 0-1.92.86-1.92 1.92s.86 1.92 1.92 1.92h4.32c1.06 0 1.92-.86 1.92-1.92s-.86-1.92-1.92-1.92h-4.32z" transform="translate(60.937500, 59.531250) scale(-1, 1) translate(-60.937500, -59.531250) translate(-43.125000, 9.375000)"/>
                            <path fill="#719E19" fill-rule="nonzero" d="M93.615 93.15c.796 0 1.44-.645 1.44-1.44 0-.795-.644-1.44-1.44-1.44h-4.959c-.795 0-1.44.645-1.44 1.44 0 .795.645 1.44 1.44 1.44h4.96zM136.132 31.425c-.795 0-1.44.645-1.44 1.44 0 .795.645 1.44 1.44 1.44h10.02c.795 0 1.44-.645 1.44-1.44 0-.795-.645-1.44-1.44-1.44h-10.02z" transform="translate(60.937500, 59.531250) scale(-1, 1) translate(-60.937500, -59.531250) translate(-43.125000, 9.375000)"/>
                            <path fill="#BEE70D" fill-rule="nonzero" d="M117.944.675c-3.866 0-7.205 3.337-7.205 7.2s3.339 7.2 7.205 7.2h15.004c.81 0 1.467-.656 1.467-1.466 0-.81-.657-1.466-1.467-1.466h-15.004c-2.245 0-4.27-2.024-4.27-4.268 0-2.244 2.025-4.268 4.27-4.268h4.389c.81 0 1.467-.656 1.467-1.466 0-.81-.657-1.466-1.467-1.466h-4.389z" transform="translate(60.937500, 59.531250) scale(-1, 1) translate(-60.937500, -59.531250) translate(-43.125000, 9.375000) translate(122.576783, 7.875000) scale(-1, 1) translate(-122.576783, -7.875000)"/>
                            <path fill="#BEE70D" fill-rule="nonzero" d="M172.627 79.138c1.661 0 3.009-1.346 3.009-3.006 0-1.66-1.348-3.007-3.01-3.007H149.26c-1.662 0-3.009 1.346-3.009 3.007 0 1.66 1.347 3.006 3.01 3.006h23.367z" transform="translate(60.937500, 59.531250) scale(-1, 1) translate(-60.937500, -59.531250) translate(-43.125000, 9.375000)"/>
                            <path fill="#A9D30F" d="M148.77 54.005c0-6.373 5.17-11.54 11.55-11.54 6.378 0 11.55 5.167 11.55 11.54" transform="translate(60.937500, 59.531250) scale(-1, 1) translate(-60.937500, -59.531250) translate(-43.125000, 9.375000)"/>
                            <path fill="#BEE70D" d="M113.255 2.251c0 .726-.589 1.314-1.315 1.314s-1.315-.588-1.315-1.314c0-.725.589-1.313 1.315-1.313s1.315.588 1.315 1.313" transform="translate(60.937500, 59.531250) scale(-1, 1) translate(-60.937500, -59.531250) translate(-43.125000, 9.375000)"/>
                        </g>
                    </g>
                    <g filter="url(#ofmijuhdad)" mask="url(#dnq42c0z6c)">
                        <g transform="translate(23.437500, 30.937500)">
                            <path fill="#FFF" d="M73.031 23.4c0-2.226-1.805-4.031-4.031-4.031H47.587l1.707-7.256v-7.5C49.294 2.064 47.229 0 44.68 0c-2.547 0-4.612 2.065-4.612 4.612l-.938 7.5-11.006 15.32h-3.75v24.196h37.06c2.226 0 4.03-1.805 4.03-4.031 0-2.227-1.804-4.031-4.03-4.031h2.53c2.227 0 4.032-1.805 4.032-4.032 0-2.226-1.805-4.03-4.031-4.03h2.53c2.227 0 4.032-1.806 4.032-4.032 0-2.227-1.805-4.031-4.031-4.031h2.531c2.22-.016 4.008-1.822 4.003-4.041z"/>
                            <path fill="url(#dib36o70fe)" d="M73.031 23.4c0-2.226-1.805-4.031-4.031-4.031H47.587l1.707-7.256v-7.5C49.294 2.064 47.229 0 44.68 0c-2.547 0-4.612 2.065-4.612 4.612l-.938 7.5-11.006 15.32h-3.75v24.196h37.06c2.226 0 4.03-1.805 4.03-4.031 0-2.227-1.804-4.031-4.03-4.031h2.53c2.227 0 4.032-1.805 4.032-4.032 0-2.226-1.805-4.03-4.031-4.03h2.53c2.227 0 4.032-1.806 4.032-4.032 0-2.227-1.805-4.031-4.031-4.031h2.531c2.22-.016 4.008-1.822 4.003-4.041z" opacity=".15"/>
                            <path fill="#FFF" d="M0 25.313L20.625 25.313 20.625 54.375 0 54.375z"/>
                            <path fill="url(#p4yep5opff)" d="M0 25.313L20.625 25.313 20.625 54.375 0 54.375z" opacity=".15"/>
                            <circle cx="5.156" cy="49.219" r="2.344" fill="#FC0"/>
                        </g>
                    </g>
                </g>
            </g>
        </g>
    </g>
</svg>
