<svg width="32" height="32" viewBox="0 0 32 32" fill="none" xmlns="http://www.w3.org/2000/svg">
    <path d="M20.975 27.18c1.239-1.704 1.436-3.883 1.47-4.992-1.414-1.236-3.834-2.142-5.711-2.122-.562.414-1.672 1.582-2.068 2.143-1.062-.357-2.216-1.496-3.239-2.72-1.024-1.224-1.935-2.559-2.088-3.652.639-.276 2.017-1.121 2.539-1.583.381-1.808-.052-4.321-1.012-5.924-1.112-.181-3.796-.128-5.735.739-.795 2.327-1.061 7.573 3.373 13.09 1.819 2.094 3.744 3.366 5.564 4.12" stroke="#0A0A0A" stroke-linecap="round" stroke-linejoin="round"/>
    <path d="M16.647 4.667V10M27.314 15.333H21.98M25.884 10l-4.619 2.666M21.98 6.096l-2.666 4.619" stroke="#E00800" stroke-linecap="round" stroke-linejoin="round"/>
</svg>
