<svg width="32" height="32" viewBox="0 0 32 32" fill="none" xmlns="http://www.w3.org/2000/svg">
    <path d="m14.224 21.613 7.39-7.389a.458.458 0 0 1 .468-.105 4.494 4.494 0 0 0 4.56-1.102 4.493 4.493 0 0 0 1.231-4.057.453.453 0 0 0-.763-.232l-2.06 2.06a.449.449 0 0 1-.637 0l-1.91-1.91a.449.449 0 0 1 0-.637l2.06-2.06a.452.452 0 0 0-.231-.762 4.496 4.496 0 0 0-5.159 5.79.458.458 0 0 1-.105.468l-7.39 7.39a.455.455 0 0 1-.468.105 4.502 4.502 0 0 0-5.791 5.159c.07.354.508.486.764.232l2.06-2.06a.449.449 0 0 1 .636 0l1.91 1.91a.449.449 0 0 1 0 .636l-2.06 2.06a.452.452 0 0 0 .232.763 4.494 4.494 0 0 0 4.656-1.972" stroke="#0A0A0A" stroke-linecap="round" stroke-linejoin="round"/>
</svg>
