<svg xmlns="http://www.w3.org/2000/svg" width="40" height="40" viewBox="0 0 40 40">
    <g fill="none" fill-rule="evenodd">
        <g>
            <g transform="translate(-960.000000, -454.000000) translate(960.000000, 454.000000)">
                <rect width="40" height="40" fill="#F7F8F4" rx="8"/>
                <g>
                    <path d="M0 0H24V24H0z" transform="translate(8.000000, 8.000000)"/>
                    <g stroke-linecap="round" stroke-linejoin="round">
                        <path stroke="#777E86" d="M2.793 8.349c1.436-.217 3.175-1.153 4.094-2.212.033-.507-.11-1.67-.248-2.156.739-.426 1.988-.545 3.222-.55 1.237-.003 2.482.106 3.207.53-.154.484-.335 1.65-.318 2.155.884 1.053 2.593 1.979 4.021 2.185.661-.538 1.96-2.064 2.407-3.554C18.188 3.22 15.203.636 9.724.556 4.242.673 1.594 3.673.555 5.206c.4 1.486 1.596 2.61 2.238 3.143zM18.935 19.407c0-4.247-2.768-7.998-6.826-9.251l-2.245.01-2.258-.007C3.545 11.41.775 15.162.775 19.41H14.49v-.003M7.605 10.159L7.605 8.549M12.111 10.159L12.111 8.549" transform="translate(8.000000, 8.000000) translate(2.000000, 2.000000)"/>
                        <path stroke="#8BBD29" d="M11.855 14.987c0 1.105-.896 2-2 2-1.105 0-2-.895-2-2 0-1.104.895-2 2-2 1.104 0 2 .896 2 2zM8.695 13.825L10.997 16.127" transform="translate(8.000000, 8.000000) translate(2.000000, 2.000000)"/>
                    </g>
                </g>
            </g>
        </g>
    </g>
</svg>
