<svg width="32" height="32" viewBox="0 0 32 32" fill="none" xmlns="http://www.w3.org/2000/svg">
    <path clip-rule="evenodd" d="M20.646 15.98a4.665 4.665 0 0 0-4.667-4.667 4.667 4.667 0 1 0 4.667 4.667z" stroke="#E00800" stroke-linecap="round" stroke-linejoin="round"/>
    <path d="m18.2 24.541-.147 1.028c-.136.955-.932 1.707-1.894 1.723h-.358c-.963-.016-1.758-.768-1.895-1.723l-.147-1.028a8.772 8.772 0 0 1-2.264-.937l-.828.621c-.773.579-1.868.547-2.56-.125a10.799 10.799 0 0 1-.248-.248c-.672-.692-.704-1.787-.125-2.56l.621-.828a8.762 8.762 0 0 1-.937-2.266l-1.028-.145c-.955-.137-1.707-.93-1.721-1.895-.002-.06-.002-.118-.002-.178s0-.12.002-.179c.014-.963.766-1.759 1.72-1.895l1.029-.146a8.8 8.8 0 0 1 .937-2.266l-.621-.828c-.579-.77-.547-1.866.125-2.558.082-.086.164-.167.248-.25.692-.67 1.787-.702 2.56-.124l.828.62a8.809 8.809 0 0 1 2.266-.937l.145-1.027c.137-.954.932-1.708 1.895-1.72.06-.002.118-.004.178-.004l.18.003c.962.013 1.758.767 1.894 1.721l.146 1.027a8.847 8.847 0 0 1 2.266.937l.828-.62c.77-.578 1.868-.546 2.558.124.086.083.167.164.25.25.67.692.702 1.788.125 2.558l-.621.828c.41.7.729 1.46.937 2.266l1.027.146c.954.136 1.708.932 1.722 1.895l.002.179-.002.178c-.014.964-.768 1.758-1.721 1.895l-1.028.147a8.822 8.822 0 0 1-.937 2.264l.62.828c.578.773.546 1.868-.124 2.56-.083.084-.164.166-.25.248" stroke="#0A0A0A" stroke-linecap="round" stroke-linejoin="round"/>
</svg>
