<svg xmlns="http://www.w3.org/2000/svg" width="40" height="40" viewBox="0 0 40 40">
    <g fill="none" fill-rule="evenodd">
        <g>
            <g transform="translate(-960.000000, -534.000000) translate(960.000000, 534.000000)">
                <rect width="40" height="40" fill="#F7F8F4" rx="8"/>
                <g>
                    <path d="M0 0H24V24H0z" transform="translate(8.000000, 8.000000)"/>
                    <g stroke-linecap="round" stroke-linejoin="round">
                        <path stroke="#777E86" d="M7.859 14.391l3.145-3.144m1.57-1.57l1.818-1.818c.109-.108.268-.14.414-.093 1.374.44 2.94.118 4.03-.974.975-.974 1.336-2.328 1.089-3.586-.062-.314-.45-.43-.675-.205l-1.822 1.82c-.155.156-.408.156-.562 0l-1.689-1.688c-.156-.156-.156-.407 0-.562L16.999.75c.224-.225.109-.613-.205-.675-1.257-.247-2.612.114-3.586 1.088-1.092 1.092-1.415 2.657-.974 4.031.047.146.015.306-.093.414l-2.065 2.064M8.784 8.964L5.608 12.14c-.107.108-.268.14-.413.093-1.374-.44-2.94-.117-4.03.974-.975.974-1.337 2.33-1.09 3.586.063.314.45.43.676.205l1.82-1.82c.156-.156.407-.156.563 0l1.689 1.688c.155.155.155.407 0 .562L3.002 19.25c-.225.225-.109.613.205.674 1.256.25 2.612-.113 3.587-1.087.202-.203.378-.424.529-.656" transform="translate(8.000000, 8.000000) translate(2.000000, 2.000000)"/>
                        <path stroke="#8BBD29" d="M2 18L6.318 13.682 8.676 11.324 18 2" transform="translate(8.000000, 8.000000) translate(2.000000, 2.000000) translate(10.000000, 10.000000) scale(-1, 1) translate(-10.000000, -10.000000)"/>
                    </g>
                </g>
            </g>
        </g>
    </g>
</svg>
