<svg xmlns="http://www.w3.org/2000/svg" width="40" height="40" viewBox="0 0 40 40">
    <g fill="none" fill-rule="evenodd">
        <g>
            <g transform="translate(-960.000000, -614.000000) translate(960.000000, 614.000000)">
                <rect width="40" height="40" fill="#F7F8F4" rx="8"/>
                <g>
                    <path d="M0 0H24V24H0z" transform="translate(8.000000, 8.000000)"/>
                    <g stroke-linecap="round" stroke-linejoin="round">
                        <path stroke="#8BBD29" d="M13.872 9.983c0-2.149-1.74-3.889-3.89-3.889-2.147 0-3.888 1.74-3.888 3.89 0 2.147 1.741 3.888 3.889 3.888 2.149 0 3.889-1.741 3.889-3.889z" transform="translate(8.000000, 8.000000) translate(2.000000, 2.000000)"/>
                        <path stroke="#8BBD29" d="M7.347 12.564L12.564 7.347" transform="translate(8.000000, 8.000000) translate(2.000000, 2.000000) translate(9.955152, 9.955152) scale(-1, 1) translate(-9.955152, -9.955152)"/>
                        <path stroke="#777E86" d="M11.833 17.118l-.122.856c-.114.796-.777 1.422-1.578 1.436h-.3c-.801-.014-1.464-.64-1.578-1.436l-.122-.856h0c-.671-.174-1.305-.438-1.887-.782l-.69.518c-.644.482-1.557.456-2.133-.104-.07-.068-.14-.137-.207-.207-.56-.577-.587-1.489-.104-2.133l.517-.69c-.343-.582-.607-1.216-.78-1.888v.001l-.857-.122c-.796-.115-1.423-.776-1.435-1.579v-.149-.149c.012-.802.64-1.465 1.435-1.579l.856-.122c.174-.671.438-1.304.781-1.888l-.517-.69c-.483-.642-.456-1.555.104-2.132.068-.071.137-.139.207-.208.576-.559 1.489-.585 2.133-.103l.69.517c.582-.343 1.216-.608 1.888-.781h-.001l.122-.856c.114-.796.777-1.423 1.579-1.434.05-.002.099-.003.149-.003l.15.003c.8.01 1.464.638 1.578 1.434l.122.856c.67.173 1.304.438 1.888.78l.69-.516c.642-.482 1.556-.456 2.132.103.07.07.139.137.208.208.558.577.585 1.49.104 2.132l-.518.69c.342.584.608 1.217.781 1.888l.856.122c.795.114 1.423.777 1.435 1.58l.002.148-.002.149c-.012.803-.64 1.464-1.434 1.579l-.857.122v-.001c-.173.672-.439 1.306-.78 1.888l.517.69c.481.644.454 1.556-.104 2.133-.07.07-.137.139-.208.207" transform="translate(8.000000, 8.000000) translate(2.000000, 2.000000)"/>
                    </g>
                </g>
            </g>
        </g>
    </g>
</svg>
