<svg width="32" height="32" viewBox="0 0 32 32" fill="none" xmlns="http://www.w3.org/2000/svg">
    <path d="M23.239 9.744a1.334 1.334 0 1 1 0-2.667 1.334 1.334 0 0 1 0 2.667" stroke="#E00800" stroke-linecap="round" stroke-linejoin="round"/>
    <path clip-rule="evenodd" d="M25.973 4.666h-9.364c-.736 0-1.333.598-1.333 1.334v5.354c0 .736.597 1.334 1.333 1.334h2.676v3.341l4.01-3.341h2.678c.737 0 1.333-.598 1.333-1.334V6c0-.736-.596-1.334-1.333-1.334z" stroke="#E00800" stroke-linecap="round" stroke-linejoin="round"/>
    <path d="M19.239 9.744a1.334 1.334 0 1 1 0-2.667 1.334 1.334 0 0 1 0 2.667" stroke="#E00800" stroke-linecap="round" stroke-linejoin="round"/>
    <path d="M4.667 27.298h22.667M25.959 16.689v6.666c0 .738-.598 1.334-1.334 1.334H7.292a1.332 1.332 0 0 1-1.333-1.334v-9.333c0-.736.596-1.334 1.333-1.334h4" stroke="#0A0A0A" stroke-linecap="round" stroke-linejoin="round"/>
</svg>
