<svg xmlns="http://www.w3.org/2000/svg" width="40" height="40" viewBox="0 0 40 40">
    <g fill="none" fill-rule="evenodd">
        <g>
            <g transform="translate(-960.000000, -294.000000) translate(960.000000, 294.000000)">
                <rect width="40" height="40" fill="#F7F8F4" rx="8"/>
                <g>
                    <path d="M0 0H24V24H0z" transform="translate(8.000000, 8.000000)"/>
                    <g stroke-linecap="round" stroke-linejoin="round">
                        <path stroke="#8BBD29" d="M6.141 0L8.805 2.469 11.47 0 14.136 2.469 16.806 0 19.475 2.469" transform="translate(8.000000, 8.000000) translate(2.000000, 4.000000)"/>
                        <path stroke="#777E86" d="M3.406 13.027L4.283 13.027M6.105 13.027L6.983 13.027M8.805 13.027L9.683 13.027M2.22 15.778L2.22 17.096M17.743 15.778L17.743 17.096M3.471 10.276L3.471 1.726M17.744 15.778c.92 0 1.666-.747 1.666-1.667v-2.169c0-.92-.746-1.666-1.666-1.666H2.22c-.92 0-1.666.746-1.666 1.666v2.17c0 .92.746 1.666 1.666 1.666H13.3" transform="translate(8.000000, 8.000000) translate(2.000000, 4.000000)"/>
                    </g>
                </g>
            </g>
        </g>
    </g>
</svg>
