<?xml version="1.0" encoding="UTF-8"?>
<svg width="24px" height="24px" viewBox="0 0 24 24" version="1.1" xmlns="http://www.w3.org/2000/svg" xmlns:xlink="http://www.w3.org/1999/xlink">
    <title>F23578C9-910B-44CC-96D1-2A21A800A478</title>
    <g id="📄-Asset-Sheet" stroke="none" stroke-width="1" fill="none" fill-rule="evenodd">
        <g id="App.MotiveH&amp;S.A.1" transform="translate(-127.000000, -602.000000)">
            <g id="Group-2" transform="translate(127.000000, 602.000000)">
                <rect id="Rectangle" x="0" y="0" width="24" height="24"></rect>
                <g id="Group-9" transform="translate(4.499800, 6.019300)" stroke="#242424" stroke-linecap="round" stroke-linejoin="round">
                    <path d="M0,6.48 C0.9,2.759 4.25,0 8.24,0 C12.24,0 15.59,2.759 16.49,6.48" id="Stroke-1"></path>
                    <path d="M12.8428,11.6148 C14.6458,10.4508 15.9778,8.6228 16.4898,6.4798" id="Stroke-3"></path>
                    <path d="M0,6.48 C0.891,10.2 4.25,12.969 8.24,12.969" id="Stroke-5"></path>
                    <path d="M11.7852,6.4793 C11.7852,8.4343 10.1992,10.0203 8.2442,10.0203 C6.2882,10.0203 4.7032,8.4343 4.7032,6.4793 C4.7032,4.5233 6.2882,2.9383 8.2442,2.9383 C10.1992,2.9383 11.7852,4.5233 11.7852,6.4793 Z" id="Stroke-7"></path>
                </g>
            </g>
        </g>
    </g>
</svg>