<!-- Generated by IcoMoon.io -->
<svg version="1.1" xmlns="http://www.w3.org/2000/svg" width="1024" height="1024" viewBox="0 0 1024 1024">
<title></title>
<g id="icomoon-ignore">
</g>
<path fill="#000" d="M313.553 213.063c-2.362 1.358-67.93 62.198-145.614 135.206-39.949 37.903-87.147 82.061-134.623 125.923l-10.336 9.434c-5.524 4.832-9.164 11.695-9.748 19.412l-0.006 0.096c0 7.189 5.33 16.894 13.174 24.135 38.64 40.356 82.247 86.525 125.559 132.972l8.136 8.819c69.94 74.667 129.926 137.819 133.395 140.283 7.944 5.783 16.994 5.783 25.543 0 9.654-6.486 14.732-16.040 13.123-24.638-1.409-7.34 0.353-5.43-161.754-177.994l-72.706-77.433 450.012-1.005c475.907-1.056 456.046-0.654 461.023-9.956 3.168-5.934 2.513-24.687-1.056-29.816-6.99-9.956 16.542-9.452-457.705-10.508l-445.788-1.005 113.584-106.594c46.074-42.985 85.945-80.833 125.509-118.997l-3.075 2.95c7.593-8.094 8.9-10.71 8.9-17.899s-1.207-9.603-8.8-17.145c-9.403-9.403-17.598-11.313-26.75-6.236z"></path>
</svg>
