<?xml version="1.0" encoding="UTF-8"?>
<svg width="24px" height="24px" viewBox="0 0 24 24" version="1.1" xmlns="http://www.w3.org/2000/svg" xmlns:xlink="http://www.w3.org/1999/xlink">
    <title>95433F74-B954-4AA7-BFFE-4707BB6B7E7F</title>
    <g id="📄-Asset-Sheet" stroke="none" stroke-width="1" fill="none" fill-rule="evenodd">
        <g id="App.MotiveH&amp;S.A.1" transform="translate(-127.000000, -562.000000)">
            <g id="Group-2" transform="translate(127.000000, 562.000000)">
                <rect id="Rectangle" x="0" y="0" width="24" height="24"></rect>
                <g id="Group-23" transform="translate(4.000000, 4.000000)" stroke="#242424" stroke-linecap="round" stroke-linejoin="round">
                    <path d="M16.99,8.498 C16.67,7.158 16.03,5.948 15.14,4.938 C14.71,4.428 14.21,3.978 13.66,3.588" id="Stroke-1"></path>
                    <path d="M11.8201,2.5977 C10.8701,2.2177 9.8301,2.0177 8.7501,2.0177 C4.7501,2.0177 1.4001,4.7787 0.5001,8.4977" id="Stroke-3"></path>
                    <path d="M13.3426,13.6338 C15.1456,12.4688 16.4776,10.6418 16.9896,8.4978" id="Stroke-5"></path>
                    <path d="M8.74,14.9883 C8.55,14.9883 8.35,14.9783 8.16,14.9673 C8.09,14.9673 8.01,14.9583 7.94,14.9483 C7.76,14.9383 7.58,14.9083 7.41,14.8783 C7.24,14.8583 7.07,14.8283 6.91,14.7783 C6.9,14.7883 6.89,14.7783 6.89,14.7783 C6.79,14.7583 6.69,14.7383 6.6,14.7083 C6.55,14.6983 6.51,14.6883 6.48,14.6773 C6.4,14.6583 6.32,14.6373 6.25,14.6083 C6.05,14.5573 5.86,14.4883 5.68,14.4083 C5.41,14.3183 5.16,14.1983 4.91,14.0683 L4.9,14.0683 C4.66,13.9483 4.42,13.8073 4.2,13.6583 C4.07,13.5883 3.95,13.5083 3.84,13.4083" id="Stroke-7"></path>
                    <path d="M0.4998,8.498 C0.8198,9.838 1.4598,11.058 2.3508,12.068" id="Stroke-9"></path>
                    <path d="M6.2498,10.998 C6.7398,11.498 7.3908,11.848 8.1008,11.978 C8.3108,12.018 8.5298,12.038 8.7498,12.038 C10.6998,12.038 12.2898,10.458 12.2898,8.498 C12.2898,8.278 12.2708,8.058 12.2298,7.848 C12.0898,7.128 11.7398,6.488 11.2498,5.998" id="Stroke-11"></path>
                    <path d="M9.4002,5.0176 C9.1902,4.9786 8.9692,4.9576 8.7502,4.9576 C6.7902,4.9576 5.2102,6.5476 5.2102,8.4976 C5.2102,8.7176 5.2302,8.9386 5.2702,9.1486" id="Stroke-13"></path>
                    <path d="M3.8396,13.4082 C4.4006,13.8282 5.0096,14.1582 5.6696,14.4082" id="Stroke-15"></path>
                    <path d="M13.66,3.5879 C14.21,3.9789 14.71,4.4279 15.14,4.9389" id="Stroke-17"></path>
                    <line x1="0.7459" y1="16.5" x2="16.7459" y2="0.5" id="Stroke-19"></line>
                    <line x1="0.7459" y1="16.5" x2="16.7459" y2="0.5" id="Stroke-21"></line>
                </g>
            </g>
        </g>
    </g>
</svg>