<?xml version="1.0" encoding="UTF-8"?>
<svg width="22px" height="26px" viewBox="0 0 22 26" version="1.1" xmlns="http://www.w3.org/2000/svg" xmlns:xlink="http://www.w3.org/1999/xlink">
    <!-- Generator: Sketch 63.1 (92452) - https://sketch.com -->
    <title>Data Sources</title>
    <desc>Created with Sketch.</desc>
    <g id="Page-1" stroke="none" stroke-width="1" fill="none" fill-rule="evenodd">
        <g id="Customer-Master---Data-Sources-Menus-Copy" transform="translate(-9.000000, -176.000000)" fill="#FFFFFF">
            <g id="Data-Sources" transform="translate(9.000000, 176.000000)">
                <g id="Group" fill-rule="nonzero">
                    <path d="M17.7692308,22 L12.6923077,22 C12.2243846,22 11.8461538,21.6209231 11.8461538,21.1538462 C11.8461538,20.6867692 12.2243846,20.3076923 12.6923077,20.3076923 L16.9230769,20.3076923 L16.9230769,1.69230769 L6.27338462,1.69230769 L1.69230769,6.27338462 L1.69230769,8.46153846 C1.69230769,8.92861538 1.31407692,9.30769231 0.846153846,9.30769231 C0.378230769,9.30769231 0,8.92861538 0,8.46153846 L0,5.92307692 C0,5.69884615 0.0888461538,5.48307692 0.247923077,5.32484615 L5.32484615,0.247923077 C5.48307692,0.0888461538 5.698,0 5.92307692,0 L17.7692308,0 C18.2371538,0 18.6153846,0.379076923 18.6153846,0.846153846 L18.6153846,21.1538462 C18.6153846,21.6209231 18.2371538,22 17.7692308,22 Z" id="Path"></path>
                    <path d="M21.1538462,25.3846154 L4.23076923,25.3846154 C3.76284615,25.3846154 3.38461538,25.0055385 3.38461538,24.5384615 C3.38461538,24.0713846 3.76284615,23.6923077 4.23076923,23.6923077 L20.3076923,23.6923077 L20.3076923,5.07692308 L17.7692308,5.07692308 C17.3013077,5.07692308 16.9230769,4.69784615 16.9230769,4.23076923 C16.9230769,3.76369231 17.3013077,3.38461538 17.7692308,3.38461538 L21.1538462,3.38461538 C21.6217692,3.38461538 22,3.76369231 22,4.23076923 L22,24.5384615 C22,25.0055385 21.6217692,25.3846154 21.1538462,25.3846154 Z" id="Path"></path>
                    <path d="M5.92307692,7.61538462 L0.846153846,7.61538462 C0.378230769,7.61538462 0,7.23630769 0,6.76923077 L0,5.92307692 C0,5.69884615 0.0888461538,5.48307692 0.247923077,5.32484615 L5.32484615,0.247923077 C5.56684615,0.00592307692 5.92984615,-0.066 6.24715385,0.0643076923 C6.56361538,0.195461538 6.76923077,0.504307692 6.76923077,0.846153846 L6.76923077,6.76923077 C6.76923077,7.23630769 6.391,7.61538462 5.92307692,7.61538462 Z M2.04261538,5.92307692 L5.07692308,5.92307692 L5.07692308,2.88876923 L2.04261538,5.92307692 Z" id="Shape"></path>
                    <path d="M4.23076923,25.3846154 C3.76284615,25.3846154 3.38461538,25.0055385 3.38461538,24.5384615 L3.38461538,22.8461538 C3.38461538,22.3790769 3.76284615,22 4.23076923,22 C4.69869231,22 5.07692308,22.3790769 5.07692308,22.8461538 L5.07692308,24.5384615 C5.07692308,25.0055385 4.69869231,25.3846154 4.23076923,25.3846154 Z" id="Path"></path>
                </g>
                <path d="M2.53445224,14.690277 L2.53445224,20.2059324 C2.53445224,20.8373976 3.04993405,21.3571751 3.68569495,21.3571751 L10.1252083,21.3571751 L10.1252083,18.3459022 L5.93663219,18.3459022 L5.93663219,14.690277 L8.47108442,14.690277 L4.23554221,8.46153846 L2.79776202e-13,14.690277 L2.53445224,14.690277 Z" id="Shape"></path>
            </g>
        </g>
    </g>
</svg>