<?xml version="1.0" encoding="UTF-8"?>
<svg width="24px" height="24px" viewBox="0 0 24 24" version="1.1" xmlns="http://www.w3.org/2000/svg" xmlns:xlink="http://www.w3.org/1999/xlink">
    <!-- Generator: Sketch 59 (86127) - https://sketch.com -->
    <title>Group</title>
    <desc>Created with Sketch.</desc>
    <g id="Symbols" stroke="none" stroke-width="1" fill="none" fill-rule="evenodd">
        <g id="Icons/24px/export">
            <g id="Group">
                <path d="M18,0 C19.6568542,0 21,1.34314575 21,3 L21,8 L19.5,8 L19.5,3 C19.5,2.17157288 18.8284271,1.5 18,1.5 L3,1.5 C2.17157288,1.5 1.5,2.17157288 1.5,3 L1.5,21 C1.5,21.8284271 2.17157288,22.5 3,22.5 L18,22.5 C18.8284271,22.5 19.5,21.8284271 19.5,21 L19.5,19 L21,19 L21,21 C21,22.6568542 19.6568542,24 18,24 L3,24 C1.34314575,24 0,22.6568542 0,21 L0,3 C0,1.34314575 1.34314575,0 3,0 L18,0 Z" id="Combined-Shape" fill="#FFFFFF" fill-rule="nonzero"></path>
                <path d="M6.57142857,10 L4.42857143,10 C4.19167857,10 4,9.80832143 4,9.57142857 L4,7.42857143 C4,7.19167857 4.19167857,7 4.42857143,7 L6.57142857,7 C6.80832143,7 7,7.19167857 7,7.42857143 L7,9.57142857 C7,9.80832143 6.80832143,10 6.57142857,10 Z M5,9 L6,9 L6,8 L5,8 L5,9 Z" id="Shape" fill="#FFFFFF" fill-rule="nonzero"></path>
                <path d="M6.57142857,15 L4.42857143,15 C4.19167857,15 4,14.8083214 4,14.5714286 L4,12.4285714 C4,12.1916786 4.19167857,12 4.42857143,12 L6.57142857,12 C6.80832143,12 7,12.1916786 7,12.4285714 L7,14.5714286 C7,14.8083214 6.80832143,15 6.57142857,15 Z M5,14 L6,14 L6,13 L5,13 L5,14 Z" id="Shape-Copy" fill="#FFFFFF" fill-rule="nonzero"></path>
                <path d="M6.57142857,20 L4.42857143,20 C4.19167857,20 4,19.8083214 4,19.5714286 L4,17.4285714 C4,17.1916786 4.19167857,17 4.42857143,17 L6.57142857,17 C6.80832143,17 7,17.1916786 7,17.4285714 L7,19.5714286 C7,19.8083214 6.80832143,20 6.57142857,20 Z M5,19 L6,19 L6,18 L5,18 L5,19 Z" id="Shape-Copy-2" fill="#FFFFFF" fill-rule="nonzero"></path>
                <path d="M17.3937561,9.27875122 L8.63937561,9.27875122 C8.28596074,9.27875122 8,8.99279048 8,8.63937561 C8,8.28596074 8.28596074,8 8.63937561,8 L17.3937561,8 C17.747171,8 18.0331317,8.28596074 18.0331317,8.63937561 C18.0331317,8.99279048 17.747171,9.27875122 17.3937561,9.27875122 Z" id="Path" fill="#FFFFFF" fill-rule="nonzero"></path>
                <path d="M14.4337507,14.2787512 L8.56624934,14.2787512 C8.25325502,14.2787512 8,13.9927905 8,13.6393756 C8,13.2859607 8.25325502,13 8.56624934,13 L14.4337507,13 C14.746745,13 15,13.2859607 15,13.6393756 C15,13.9927905 14.746745,14.2787512 14.4337507,14.2787512 Z" id="Path-Copy" fill="#FFFFFF" fill-rule="nonzero"></path>
                <path d="M21.6077471,10.7923952 L23.6894975,13.0276557 C23.7168517,13.0550099 23.7404718,13.0848077 23.7603911,13.1164989 C23.9050946,13.2319591 24,13.4230284 24,13.6393756 C24,13.8738712 23.8885044,14.07867 23.7220415,14.1899438 L23.6636186,14.242386 L21.2910395,16.1661694 C21.0410711,16.3545341 20.6667172,16.2785684 20.4540268,15.9963187 C20.2413364,15.7140691 20.2714994,15.333278 20.5214678,15.1449133 L20.5214678,15.1449133 L21.589,14.2784277 L17.5662493,14.2787512 C17.253255,14.2787512 17,13.9927905 17,13.6393756 C17,13.2859607 17.253255,13 17.5662493,13 L21.917,12.9994277 L20.7035335,11.6966088 C20.4822131,11.4752884 20.5053395,11.0940053 20.7552415,10.8441032 C21.0051436,10.5942012 21.3864267,10.5710748 21.6077471,10.7923952 Z" id="Combined-Shape" fill="#FFFFFF" fill-rule="nonzero"></path>
                <path d="M17.3937561,19.2787512 L8.63937561,19.2787512 C8.28596074,19.2787512 8,18.9927905 8,18.6393756 C8,18.2859607 8.28596074,18 8.63937561,18 L17.3937561,18 C17.747171,18 18.0331317,18.2859607 18.0331317,18.6393756 C18.0331317,18.9927905 17.747171,19.2787512 17.3937561,19.2787512 Z" id="Path-Copy-3" fill="#FFFFFF" fill-rule="nonzero"></path>
                <line x1="1.5" y1="4.5" x2="19.5" y2="4.5" id="Line" stroke="#FFFFFF" stroke-width="1.5" stroke-linecap="square"></line>
            </g>
        </g>
    </g>
</svg>