<?xml version="1.0" encoding="UTF-8"?>
<svg width="24px" height="24px" viewBox="0 0 24 24" version="1.1" xmlns="http://www.w3.org/2000/svg" xmlns:xlink="http://www.w3.org/1999/xlink">
    <!-- Generator: Sketch 56.3 (81716) - https://sketch.com -->
    <title>Icons/24px/golden-rules</title>
    <desc>Created with Sketch.</desc>
    <g id="Icons/24px/golden-rules" stroke="none" stroke-width="1" fill="none" fill-rule="evenodd">
        <path d="M22.5,5 L19,5 L19,1.5 L3,1.5 C2.17157288,1.5 1.5,2.17157288 1.5,3 L1.5,21 C1.5,21.8284271 2.17157288,22.5 3,22.5 L21,22.5 C21.8284271,22.5 22.5,21.8284271 22.5,21 L22.5,5 Z M3,0 L20,0 L24,4 L24,21 C24,22.6568542 22.6568542,24 21,24 L3,24 C1.34314575,24 0,22.6568542 0,21 L0,3 C0,1.34314575 1.34314575,0 3,0 Z M14.6307826,9.30434783 C13.7902609,9.30434783 13.7902609,8 14.6307826,8 C17.9793043,8 14.6746087,8 18.0231304,8 C18.8646957,8 18.8646957,9.30434783 18.0231304,9.30434783 C14.6746087,9.30434783 17.9793043,9.30434783 14.6307826,9.30434783 Z M9.02313043,11.1306087 C9.86521739,11.1306087 9.86521739,12.4349565 9.02313043,12.4349565 C5.6746087,12.4349565 8.97930435,12.4349565 5.63078261,12.4349565 C4.78973913,12.4349565 4.78973913,11.1306087 5.63078261,11.1306087 C8.97930435,11.1306087 5.6746087,11.1306087 9.02313043,11.1306087 Z M18.0231304,11.1306087 C18.8652174,11.1306087 18.8652174,12.4349565 18.0231304,12.4349565 C14.6746087,12.4349565 17.9793043,12.4349565 14.6307826,12.4349565 C13.7897391,12.4349565 13.7897391,11.1306087 14.6307826,11.1306087 C17.9793043,11.1306087 14.6746087,11.1306087 18.0231304,11.1306087 Z M9.02313043,14.0347826 C9.86521739,14.0347826 9.86521739,15.3391304 9.02313043,15.3391304 C5.6746087,15.3391304 8.97930435,15.3391304 5.63078261,15.3391304 C4.78973913,15.3391304 4.78973913,14.0347826 5.63078261,14.0347826 C8.97930435,14.0347826 5.6746087,14.0347826 9.02313043,14.0347826 Z M18.0231304,14.0347826 C18.8652174,14.0347826 18.8652174,15.3391304 18.0231304,15.3391304 C14.6746087,15.3391304 17.9793043,15.3391304 14.6307826,15.3391304 C13.7897391,15.3391304 13.7897391,14.0347826 14.6307826,14.0347826 C17.9793043,14.0347826 14.6746087,14.0347826 18.0231304,14.0347826 Z M9.02313043,17.1648696 C9.86521739,17.1648696 9.86521739,18.4692174 9.02313043,18.4692174 C5.6746087,18.4692174 8.97930435,18.4692174 5.63078261,18.4692174 C4.78973913,18.4692174 4.78973913,17.1648696 5.63078261,17.1648696 C8.97930435,17.1648696 5.6746087,17.1648696 9.02313043,17.1648696 Z M18.0231304,17.1648696 C18.8652174,17.1648696 18.8652174,18.4692174 18.0231304,18.4692174 C14.6746087,18.4692174 17.9793043,18.4692174 14.6307826,18.4692174 C13.7897391,18.4692174 13.7897391,17.1648696 14.6307826,17.1648696 C17.9793043,17.1648696 14.6746087,17.1648696 18.0231304,17.1648696 Z M5.63078261,9.30434783 C4.79026087,9.30434783 4.79026087,8 5.63078261,8 C8.97930435,8 5.6746087,8 9.02313043,8 C9.86469565,8 9.86469565,9.30434783 9.02313043,9.30434783 C5.6746087,9.30434783 8.97930435,9.30434783 5.63078261,9.30434783 Z" id="Combined-Shape" fill="#FFFFFF" fill-rule="nonzero"></path>
    </g>
</svg>