<?xml version="1.0" encoding="UTF-8"?>
<svg width="24px" height="24px" viewBox="0 0 24 24" version="1.1" xmlns="http://www.w3.org/2000/svg" xmlns:xlink="http://www.w3.org/1999/xlink">
    <!-- Generator: Sketch 56.3 (81716) - https://sketch.com -->
    <title>Icons/24px/Home</title>
    <desc>Created with Sketch.</desc>
    <g id="Icons/24px/Home" stroke="none" stroke-width="1" fill="none" fill-rule="evenodd">
        <g id="home" transform="translate(0.000000, 2.000000)" fill="#FFFFFF" fill-rule="nonzero">
            <path d="M23.7447491,7.94109171 C24.0226236,8.13232125 24.0829985,8.49900972 23.8794676,8.76010565 C23.7573116,8.91693061 23.5678432,9 23.3758436,9 C23.2479688,9 23.118969,8.96318517 23.0079692,8.88675502 L12,1.31232976 L0.992040909,8.88679908 C0.714213294,9.07794051 0.323979635,9.02128969 0.120495634,8.76014971 C-0.0829883673,8.49900972 -0.0226134781,8.13232125 0.255261012,7.94109171 L11.6317089,0.113191498 C11.8509897,-0.0377304993 12.1490204,-0.0377304993 12.368395,0.113191498 L23.7447491,7.94109171 Z M21.3666318,9 C21.716403,9 22,9.28400223 22,9.63437972 L22,20.365668 C22,20.7159978 21.7164506,21 21.3666794,21 L15.0335206,21 C14.7002691,21 14.4276218,20.7419375 14.4026755,20.4144957 C14.4011521,20.3998569 14.4002,20.3839307 14.4002,20.365668 L14.4002,14.2197568 C14.4002,13.1703409 13.5477903,12.3165223 12.5,12.3165223 C11.4522097,12.3165223 10.5998,13.1702933 10.5998,14.2197568 L10.5998,20.365668 C10.5998,20.3840261 10.5988479,20.4002384 10.5973245,20.4150679 C10.5720926,20.7422713 10.2995405,21 9.96647941,21 L3.63332064,21 C3.28359701,21 3,20.7159978 3,20.365668 L3,9.63437972 C3,9.28404991 3.28359701,9 3.63332064,9 C3.98304426,9 4.26664128,9.28404991 4.26664128,9.63437972 L4.26664128,19.7312882 L9.33315877,19.7312882 L9.33315877,14.2197091 C9.33315877,12.470778 10.7538574,11.0478105 12.5,11.0478105 C14.2461426,11.0478105 15.6668412,12.4706827 15.6668412,14.2197091 L15.6668412,19.7312406 L20.7333111,19.7312406 L20.7333111,9.63433204 C20.7333111,9.28400223 21.0169081,9 21.3666318,9 Z" id="Combined-Shape"></path>
        </g>
    </g>
</svg>