<?xml version="1.0" encoding="UTF-8"?>
<svg width="24px" height="24px" viewBox="0 0 24 24" version="1.1" xmlns="http://www.w3.org/2000/svg" xmlns:xlink="http://www.w3.org/1999/xlink">
    <!-- Generator: Sketch 56.3 (81716) - https://sketch.com -->
    <title>Icons/24px/Home Copy 3</title>
    <desc>Created with Sketch.</desc>
    <g id="Icons/24px/Home-Copy-3" stroke="none" stroke-width="1" fill="none" fill-rule="evenodd">
        <path d="M23.9575694,13.6229913 L24,13.6229913 L24,22.0667491 C24,23.1344541 23.1196731,24 22.0337349,24 L1.96626506,24 C0.880326853,24 0,23.1344541 0,22.0667491 L0,13.6229913 L0.0424305919,13.6229913 L0.00508265378,13.6110538 L2.6313253,5.66814417 L2.6313253,2.10877627 C2.6313253,1.49641604 3.13621864,1 3.75903614,1 L20.2409639,1 C20.8637814,1 21.3686747,1.49641604 21.3686747,2.10877627 L21.3686747,5.66814417 L23.9949173,13.6110538 L23.9575694,13.6229913 Z M22.5394131,13.6229913 L21.3686747,10.0821649 L21.3686747,13.6229913 L22.5394131,13.6229913 Z M1.46058688,13.6229913 L2.6313253,13.6229913 L2.6313253,10.0821649 L1.46058688,13.6229913 Z M19.9807229,13.6229913 L19.9807229,2.36464771 L4.01927711,2.36464771 L4.01927711,13.6229913 L7.58277194,13.6229913 C8.12574105,13.6229913 8.56590447,14.0557643 8.56590447,14.5896168 L8.56590447,17.4147147 L15.438766,17.4147147 L15.438766,14.5896168 C15.438766,14.0557643 15.8789294,13.6229913 16.4218985,13.6229913 L19.9807229,13.6229913 Z M1.38795181,14.9876391 L1.38795181,22.0667491 C1.38795181,22.38078 1.64687147,22.6353523 1.96626506,22.6353523 L22.0337349,22.6353523 C22.3531285,22.6353523 22.6120482,22.38078 22.6120482,22.0667491 L22.6120482,14.9876391 L16.8267178,14.9876391 L16.8267178,17.812737 C16.8267178,18.3465895 16.3865544,18.7793624 15.8435853,18.7793624 L8.1610852,18.7793624 C7.61811609,18.7793624 7.17795267,18.3465895 7.17795267,17.812737 L7.17795267,14.9876391 L1.38795181,14.9876391 Z M6,5 L14,5 L14,6 L6,6 L6,5 Z M6,7 L17,7 L17,8 L6,8 L6,7 Z M6,9 L17,9 L17,10 L6,10 L6,9 Z M6,11 L17,11 L17,12 L6,12 L6,11 Z" id="Combined-Shape" fill="#FFFFFF" fill-rule="nonzero"></path>
    </g>
</svg>