<?xml version="1.0" encoding="UTF-8"?>
<svg width="24px" height="24px" viewBox="0 0 24 24" version="1.1" xmlns="http://www.w3.org/2000/svg" xmlns:xlink="http://www.w3.org/1999/xlink">
    <!-- Generator: Sketch 56.3 (81716) - https://sketch.com -->
    <title>Icons/24px/import-data</title>
    <desc>Created with Sketch.</desc>
    <g id="Icons/24px/import-data" stroke="none" stroke-width="1" fill="none" fill-rule="evenodd">
        <g id="d0960c82159e694696c6518c5862be4c" fill="#FFFFFF" fill-rule="nonzero">
            <path d="M21.3330612,17.3338776 L19.3322449,17.3338776 L19.3322449,21.3330612 C19.3322449,22.804898 18.1371429,24 16.6653061,24 L2.66693878,24 C1.19510204,24 0,22.804898 0,21.3330612 L0,7.33469388 C0,5.86040816 1.19510204,4.6677551 2.66693878,4.6677551 L6.66612245,4.6677551 L6.66612245,2.66938776 C6.66612245,1.19510204 7.86122449,0 9.33306122,0 L21.3330612,0 C22.804898,0 24,1.19510204 24,2.66693878 L24,14.6669388 C24,16.1387755 22.804898,17.3338776 21.3330612,17.3338776 Z M22.6677551,2.66693878 C22.6677551,1.92979592 22.0702041,1.33469388 21.3355102,1.33469388 L9.3355102,1.33469388 C8.59836735,1.33469388 8.00326531,1.9322449 8.00326531,2.66693878 L8.00326531,4.6677551 L14.9387755,4.6677551 L13.6016327,6 L2.66693878,6 C1.92979592,6 1.33469388,6.59755102 1.33469388,7.3322449 L1.33469388,21.3330612 C1.33469388,22.0702041 1.9322449,22.6677551 2.66693878,22.6677551 L16.6677551,22.6677551 C17.404898,22.6677551 18,22.0702041 18,21.3330612 L18,10.3959184 L19.3322449,9.06367347 L19.3322449,16.0016327 L21.3330612,16.0016327 C22.0702041,16.0016327 22.6653061,15.4040816 22.6653061,14.6669388 L22.6653061,2.66693878 L22.6677551,2.66693878 Z M8.33387755,16.6334694 L12.8008163,16.6334694 C13.1657143,16.6359184 13.4644898,16.9346939 13.4644898,17.2971429 C13.4669388,17.6620408 13.1730612,17.9559184 12.8081633,17.9534694 L6.88163265,17.9510204 C6.81795918,17.9755102 6.74938776,17.9902041 6.67346939,17.9902041 C6.30367347,17.9902041 6.00489796,17.6914286 6.00489796,17.3216327 L6.03673469,11.1795918 C6.03673469,10.8097959 6.3355102,10.5134694 6.70285714,10.5134694 C7.07265306,10.5134694 7.37142857,10.8122449 7.37142857,11.1795918 L7.34938776,15.722449 L18.2057143,4.87346939 C18.4653061,4.61142857 18.8889796,4.61142857 19.1485714,4.87346939 C19.4081633,5.13306122 19.4081633,5.55673469 19.1485714,5.81632653 L8.33387755,16.6334694 Z" id="Shape"></path>
        </g>
    </g>
</svg>