<?xml version="1.0" encoding="UTF-8"?>
<svg width="21px" height="24px" viewBox="0 0 21 24" version="1.1" xmlns="http://www.w3.org/2000/svg" xmlns:xlink="http://www.w3.org/1999/xlink">
    <!-- Generator: Sketch 58 (84663) - https://sketch.com -->
    <title>schedule</title>
    <desc>Created with Sketch.</desc>
    <g id="Symbols" stroke="none" stroke-width="1" fill="none" fill-rule="evenodd">
        <g id="Icons/24px/ScheduleJob" transform="translate(-2.000000, 0.000000)" fill="#FFFFFF">
            <g id="schedule" transform="translate(2.000000, 0.000000)">
                <path d="M14.671875,11.34375 C11.1826172,11.34375 8.34375,14.1826172 8.34375,17.671875 C8.34375,21.1611328 11.1826172,24 14.671875,24 C18.1611328,24 21,21.1611328 21,17.671875 C21,14.1826172 18.1611328,11.34375 14.671875,11.34375 Z M14.671875,22.125 C12.2164307,22.125 10.21875,20.1273193 10.21875,17.671875 C10.21875,15.2164307 12.2164307,13.21875 14.671875,13.21875 C17.1273193,13.21875 19.125,15.2164307 19.125,17.671875 C19.125,20.1273193 17.1273193,22.125 14.671875,22.125 Z M7.78582763,22.125 L2.8125,22.125 C2.29559325,22.125 1.875,21.7044067 1.875,21.1875 L1.875,4.6875 C1.875,4.17059325 2.29559325,3.75 2.8125,3.75 L4.359375,3.75 L4.359375,7.453125 L13.734375,7.453125 L13.734375,3.75 L15.234375,3.75 C15.7512817,3.75 16.171875,4.17059325 16.171875,4.6875 L16.171875,9.60662841 C16.8272095,9.72821044 17.4558105,9.92761228 18.046875,10.1954956 L18.046875,4.6875 C18.046875,3.13659666 16.7852783,1.875 15.234375,1.875 L11.6987915,1.875 C11.3117065,0.783691406 10.269104,0 9.046875,0 C7.82464598,0 6.78204347,0.783691406 6.39495848,1.875 L2.8125,1.875 C1.26159666,1.875 0,3.13659666 0,4.6875 L0,21.1875 C0,22.7384033 1.26159666,24 2.8125,24 L9.45758058,24 C8.80938722,23.4649658 8.24487305,22.8323364 7.78582763,22.125 Z M8.109375,3.75 L8.109375,2.8125 C8.109375,2.29559325 8.52996825,1.875 9.046875,1.875 C9.56378175,1.875 9.984375,2.29559325 9.984375,2.8125 L9.984375,3.75 L11.859375,3.75 L11.859375,5.578125 L6.234375,5.578125 L6.234375,3.75 L8.109375,3.75 Z M15.5625,16.734375 L17.15625,16.734375 L17.15625,18.609375 L13.6875,18.609375 L13.6875,14.53125 L15.5625,14.53125 L15.5625,16.734375 Z" id="Shape"></path>
                <rect id="Rectangle" x="4" y="9" width="3.5" height="1.5" rx="0.75"></rect>
                <rect id="Rectangle" x="4" y="12" width="3.5" height="1.5" rx="0.75"></rect>
                <rect id="Rectangle" x="4" y="15" width="3.5" height="1.5" rx="0.75"></rect>
                <rect id="Rectangle" x="4" y="18" width="3.5" height="1.5" rx="0.75"></rect>
                <rect id="Rectangle" x="11" y="9" width="3.5" height="1.5" rx="0.75"></rect>
            </g>
        </g>
    </g>
</svg>