<?xml version="1.0" encoding="UTF-8"?>
<svg width="20px" height="24px" viewBox="0 0 20 24" version="1.1" xmlns="http://www.w3.org/2000/svg" xmlns:xlink="http://www.w3.org/1999/xlink">
    <!-- Generator: Sketch 58 (84663) - https://sketch.com -->
    <title>schedule</title>
    <desc>Created with Sketch.</desc>
    <g id="Symbols" stroke="none" stroke-width="1" fill="none" fill-rule="evenodd">
        <g id="Icons/24px/ScheduleJobStatus" transform="translate(-2.000000, 0.000000)" fill="#FFFFFF">
            <g id="schedule" transform="translate(2.000000, 0.000000)">
                <path d="M7.78582763,22.125 L2.8125,22.125 C2.29559325,22.125 1.875,21.7044067 1.875,21.1875 L1.875,4.6875 C1.875,4.17059325 2.29559325,3.75 2.8125,3.75 L4.359375,3.75 L4.359375,7.453125 L13.734375,7.453125 L13.734375,3.75 L15.234375,3.75 C15.7512817,3.75 16.171875,4.17059325 16.171875,4.6875 L16.171875,9.60662841 C16.8272095,9.72821044 17.4558105,9.92761228 18.046875,10.1954956 L18.046875,4.6875 C18.046875,3.13659666 16.7852783,1.875 15.234375,1.875 L11.6987915,1.875 C11.3117065,0.783691406 10.269104,0 9.046875,0 C7.82464598,0 6.78204347,0.783691406 6.39495848,1.875 L2.8125,1.875 C1.26159666,1.875 0,3.13659666 0,4.6875 L0,21.1875 C0,22.7384033 1.26159666,24 2.8125,24 L9.45758058,24 C8.80938722,23.4649658 8.24487305,22.8323364 7.78582763,22.125 Z M8.109375,3.75 L8.109375,2.8125 C8.109375,2.29559325 8.52996825,1.875 9.046875,1.875 C9.56378175,1.875 9.984375,2.29559325 9.984375,2.8125 L9.984375,3.75 L11.859375,3.75 L11.859375,5.578125 L6.234375,5.578125 L6.234375,3.75 L8.109375,3.75 Z" id="Shape"></path>
                <rect id="Rectangle" x="4" y="9" width="3.5" height="1.5" rx="0.75"></rect>
                <rect id="Rectangle" x="4" y="12" width="3.5" height="1.5" rx="0.75"></rect>
                <rect id="Rectangle" x="4" y="15" width="3.5" height="1.5" rx="0.75"></rect>
                <rect id="Rectangle" x="4" y="18" width="3.5" height="1.5" rx="0.75"></rect>
                <rect id="Rectangle" x="11" y="9" width="3.5" height="1.5" rx="0.75"></rect>
                <g id="hourglass" transform="translate(10.000000, 12.000000)">
                    <path d="M4.75162791,5.21604651 C4.75162791,5.35348837 4.86302326,5.46418605 5,5.46418605 C5.13697674,5.46418605 5.24837209,5.3527907 5.24837209,5.21604651 C5.24860465,4.92534884 5.35186047,4.6427907 5.53930233,4.42046512 C5.95627907,3.92604651 6.26883721,3.39 6.46674419,2.8272093 C6.49348837,2.75116279 6.48186047,2.66697674 6.43534884,2.60116279 C6.38860465,2.53534884 6.31325581,2.49627907 6.23255814,2.49627907 L3.7672093,2.49627907 C3.68651163,2.49627907 3.61093023,2.53534884 3.56418605,2.60116279 C3.51767442,2.66697674 3.50604651,2.75116279 3.5327907,2.8272093 C3.73116279,3.39 4.04325581,3.92604651 4.46023256,4.42046512 C4.64790698,4.6427907 4.75139535,4.9255814 4.75162791,5.21604651 Z" id="Path"></path>
                    <path d="M5.24837209,6.21162791 C5.24837209,6.0744186 5.13697674,5.96348837 5,5.96348837 C4.86302326,5.96348837 4.75162791,6.07488372 4.75162791,6.21162791 C4.75139535,6.57023256 4.5372093,6.92488372 4.14860465,7.21255814 C3.31744186,7.82627907 2.69534884,8.49302326 2.29953488,9.19395349 C2.25604651,9.27116279 2.25674419,9.36511628 2.30162791,9.44093023 C2.34581395,9.51744186 2.42767442,9.56418605 2.51604651,9.56418605 L7.4844186,9.56418605 C7.57255814,9.56418605 7.65418605,9.51744186 7.69883721,9.44093023 C7.74325581,9.36511628 7.74395349,9.27116279 7.70069767,9.19395349 C7.30511628,8.49302326 6.6827907,7.82627907 5.85186047,7.21255814 C5.4627907,6.92488372 5.24860465,6.57023256 5.24837209,6.21162791 Z" id="Path"></path>
                    <path d="M9.34697674,9.93697674 L9.19837209,9.93697674 C9.02767442,8.00372093 7.8955814,6.51953488 7.0155814,5.46534884 C7.89581395,4.41139535 9.02744186,2.92697674 9.19883721,0.99372093 L9.34744186,0.99372093 C9.62186047,0.99372093 9.84418605,0.771162791 9.84418605,0.496744186 C9.84418605,0.222325581 9.62186047,0 9.34744186,0 L0.652790698,0 C0.378372093,0 0.156046512,0.22255814 0.156046512,0.496744186 C0.156046512,0.771162791 0.378372093,0.99372093 0.652790698,0.99372093 L0.801395349,0.99372093 C0.972325581,2.9272093 2.10395349,4.41162791 2.98418605,5.46534884 C2.10418605,6.51930233 0.972325581,8.00348837 0.801162791,9.93697674 L0.652790698,9.93697674 C0.378372093,9.93697674 0.156046512,10.1590698 0.156046512,10.4334884 C0.156046512,10.7081395 0.378372093,10.9306977 0.652790698,10.9306977 L1.27395349,10.9306977 L8.72604651,10.9306977 L9.34744186,10.9306977 C9.62186047,10.9306977 9.84418605,10.7081395 9.84418605,10.4334884 C9.84418605,10.1590698 9.62162791,9.93697674 9.34697674,9.93697674 Z M1.7972093,9.93697674 C1.98395349,8.19023256 3.11953488,6.84511628 3.96813953,5.84 L4.01348837,5.78627907 C4.16976744,5.60139535 4.16976744,5.33069767 4.01348837,5.1455814 L3.96837209,5.09209302 C3.12,4.08674419 1.98395349,2.74162791 1.7972093,0.994651163 L8.2027907,0.994651163 C8.01604651,2.74162791 6.88,4.08674419 6.03162791,5.09209302 L5.98674419,5.1455814 C5.83046512,5.33046512 5.83046512,5.60116279 5.98674419,5.78627907 L6.03209302,5.84 C6.88046512,6.84511628 8.01604651,8.19023256 8.2027907,9.93697674 L1.7972093,9.93697674 Z" id="Shape"></path>
                </g>
            </g>
        </g>
    </g>
</svg>