<?xml version="1.0" encoding="UTF-8"?>
<svg width="24px" height="24px" viewBox="0 0 24 24" version="1.1" xmlns="http://www.w3.org/2000/svg" xmlns:xlink="http://www.w3.org/1999/xlink">
    <!-- Generator: Sketch 56.3 (81716) - https://sketch.com -->
    <title>Icons/24px/manual-review</title>
    <desc>Created with Sketch.</desc>
    <g id="Icons/24px/manual-review" stroke="none" stroke-width="1" fill="none" fill-rule="evenodd">
        <path d="M22.5,5 L19,5 L19,1.5 L3,1.5 C2.17157288,1.5 1.5,2.17157288 1.5,3 L1.5,21 C1.5,21.8284271 2.17157288,22.5 3,22.5 L21,22.5 C21.8284271,22.5 22.5,21.8284271 22.5,21 L22.5,5 Z M3,0 L20,0 L24,4 L24,21 C24,22.6568542 22.6568542,24 21,24 L3,24 C1.34314575,24 0,22.6568542 0,21 L0,3 C0,1.34314575 1.34314575,0 3,0 Z" id="Combined-Shape" fill="#FFFFFF" fill-rule="nonzero"></path>
        <g id="feedback" transform="translate(4.000000, 5.000000)" fill="#FFFFFF" fill-rule="nonzero">
            <path d="M2.23313171,4.15438049 C2.06393694,4.15438049 1.90161545,4.08756574 1.78109315,3.96704343 L0.502341932,2.68829221 C0.252585834,2.43853612 0.252585834,2.03389128 0.502341932,1.7842151 C0.752098029,1.53453893 1.15674287,1.534459 1.40641904,1.7842151 L2.16383938,2.54163543 L3.63991789,0.574196761 C3.85155122,0.291352976 4.2530791,0.235167844 4.53464414,0.446161795 C4.81748792,0.657795122 4.8749518,1.05868363 4.6626791,1.34088804 L2.74455227,3.89839048 C2.63338084,4.04696539 2.46354669,4.13943508 2.27876714,4.15254228 C2.26310244,4.15374111 2.24815703,4.15438049 2.23313171,4.15438049 L2.23313171,4.15438049 Z" id="Path"></path>
            <path d="M2.23313171,9.26938537 C2.06393694,9.26938537 1.90161545,9.20257061 1.78109315,9.08204831 L0.502341932,7.80329709 C0.252585834,7.553541 0.252585834,7.14889616 0.502341932,6.89921998 C0.752098029,6.6495438 1.15674287,6.64946388 1.40641904,6.89921998 L2.16383938,7.65664031 L3.63991789,5.68920164 C3.85155122,5.40699723 4.2530791,5.34953335 4.53464414,5.56116667 C4.81748792,5.7728 4.8749518,6.17368851 4.6626791,6.45589292 L2.74455227,9.01339536 C2.63338084,9.16197026 2.46354669,9.25443996 2.27876714,9.26754716 C2.26310244,9.26874599 2.24815703,9.26938537 2.23313171,9.26938537 Z" id="Path"></path>
            <g id="Group" transform="translate(0.315005, 0.318127)">
                <path d="M3.83625366,15.3450146 L0.63937561,15.3450146 C0.285960741,15.3450146 0,15.0590539 0,14.705639 L0,11.508761 C0,11.1553461 0.285960741,10.8693854 0.63937561,10.8693854 L3.83625366,10.8693854 C4.18966853,10.8693854 4.47562927,11.1553461 4.47562927,11.508761 L4.47562927,14.705639 C4.47562927,15.0590539 4.18966853,15.3450146 3.83625366,15.3450146 Z M1.27875122,14.0662634 L3.19687805,14.0662634 L3.19687805,12.1481366 L1.27875122,12.1481366 L1.27875122,14.0662634 Z" id="Shape"></path>
                <path d="M12.1481366,1.27875122 L6.3937561,1.27875122 C6.04034123,1.27875122 5.75438049,0.992790478 5.75438049,0.63937561 C5.75438049,0.285960741 6.04034123,0 6.3937561,0 L12.1481366,0 C12.5015515,0 12.7875122,0.285960741 12.7875122,0.63937561 C12.7875122,0.992790478 12.5015515,1.27875122 12.1481366,1.27875122 Z" id="Path"></path>
                <path d="M8.95125854,3.19687805 L6.3937561,3.19687805 C6.04034123,3.19687805 5.75438049,2.91091731 5.75438049,2.55750244 C5.75438049,2.20408757 6.04034123,1.91812683 6.3937561,1.91812683 L8.95125854,1.91812683 C9.3046734,1.91812683 9.59063415,2.20408757 9.59063415,2.55750244 C9.59063415,2.91091731 9.3046734,3.19687805 8.95125854,3.19687805 Z" id="Path"></path>
                <path d="M12.1481366,7.03313171 L6.3937561,7.03313171 C6.04034123,7.03313171 5.75438049,6.74717097 5.75438049,6.3937561 C5.75438049,6.04034123 6.04034123,5.75438049 6.3937561,5.75438049 L12.1481366,5.75438049 C12.5015515,5.75438049 12.7875122,6.04034123 12.7875122,6.3937561 C12.7875122,6.74717097 12.5015515,7.03313171 12.1481366,7.03313171 Z" id="Path"></path>
                <path d="M8.95125854,8.95125854 L6.3937561,8.95125854 C6.04034123,8.95125854 5.75438049,8.6652978 5.75438049,8.31188293 C5.75438049,7.95846806 6.04034123,7.67250732 6.3937561,7.67250732 L8.95125854,7.67250732 C9.3046734,7.67250732 9.59063415,7.95846806 9.59063415,8.31188293 C9.59063415,8.6652978 9.3046734,8.95125854 8.95125854,8.95125854 Z" id="Path"></path>
                <path d="M12.1481366,12.1481366 L6.3937561,12.1481366 C6.04034123,12.1481366 5.75438049,11.8621758 5.75438049,11.508761 C5.75438049,11.1553461 6.04034123,10.8693854 6.3937561,10.8693854 L12.1481366,10.8693854 C12.5015515,10.8693854 12.7875122,11.1553461 12.7875122,11.508761 C12.7875122,11.8621758 12.5015515,12.1481366 12.1481366,12.1481366 Z" id="Path"></path>
                <path d="M8.95125854,14.0662634 L6.3937561,14.0662634 C6.04034123,14.0662634 5.75438049,13.7803027 5.75438049,13.4268878 C5.75438049,13.0734729 6.04034123,12.7875122 6.3937561,12.7875122 L8.95125854,12.7875122 C9.3046734,12.7875122 9.59063415,13.0734729 9.59063415,13.4268878 C9.59063415,13.7803027 9.3046734,14.0662634 8.95125854,14.0662634 Z" id="Path"></path>
            </g>
        </g>
    </g>
</svg>