<?xml version="1.0" encoding="UTF-8"?>
<svg width="24px" height="24px" viewBox="0 0 24 24" version="1.1" xmlns="http://www.w3.org/2000/svg" xmlns:xlink="http://www.w3.org/1999/xlink">
    <!-- Generator: Sketch 56.3 (81716) - https://sketch.com -->
    <title>Icons/24px/rules</title>
    <desc>Created with Sketch.</desc>
    <g id="Icons/24px/rules" stroke="none" stroke-width="1" fill="none" fill-rule="evenodd">
        <path d="M24,20.1358218 L22.6567449,20.3619478 C22.6031275,20.5279644 22.5354004,20.6911186 22.4592073,20.8456857 L23.2521794,21.9763156 L22.010515,23.2386138 L20.8986609,22.4285676 C20.7490968,22.5087135 20.5910668,22.5745476 20.4273928,22.6289323 L20.2016357,24 L18.4463737,24 L18.2206165,22.6289323 C18.0597646,22.5716853 17.8989126,22.5058511 17.7493485,22.4285676 L16.6374944,23.2386138 L15.398652,21.9763156 L16.191624,20.8456857 C16.115431,20.6911186 16.0477038,20.5308267 15.9940865,20.3619478 L14.6508314,20.1358218 L14.6508314,18.3468505 L15.9912645,18.1178621 C16.0448819,17.9461209 16.112609,17.7858291 16.188802,17.6283996 L15.398652,16.5034944 L16.6374944,15.2411962 L17.7408826,16.0455177 C17.8960906,15.9653718 18.0569426,15.8966753 18.2234385,15.8422906 L18.4463737,14.47981 L20.2016357,14.47981 L20.4245709,15.8422906 C20.5910668,15.8966753 20.7547407,15.9653718 20.9071268,16.0455177 L22.010515,15.2440585 L23.2521794,16.5063567 L22.4620293,17.6312619 C22.5382223,17.7886914 22.6059495,17.9518456 22.6595668,18.1207245 L24,18.3468505 L24,20.1358218 Z M19.3254157,20.6650831 C20.0957029,20.6650831 20.7220903,20.0256169 20.7220903,19.239905 C20.7220903,18.4541931 20.0957029,17.8147268 19.3254157,17.8147268 C18.5523069,17.8147268 17.9287411,18.4541931 17.9287411,19.239905 C17.9287411,20.0256169 18.5551285,20.6650831 19.3254157,20.6650831 Z M19.2273496,6.28128898 C19.2273496,4.94151266 18.8332061,4.5438054 17.5185783,4.5438054 L15.0362085,4.5438054 L15.0362085,7.77020552 L5.19241259,7.77020552 L5.19241259,4.54131973 L3.77006855,4.54131973 L3.09439393,4.54131973 C1.77976613,4.54131973 1.3856226,4.94151266 1.3856226,6.27880331 L1.3856226,20.2805844 C1.3856226,21.6178751 1.77976613,22.018068 3.09439393,22.018068 L13.791133,22.018068 L13.791133,23.4299287 L3.09194583,23.4299287 C1.01351193,23.4299287 -8.52651283e-14,22.3958899 -8.52651283e-14,20.2805844 L-8.52651283e-14,6.28128898 C-8.52651283e-14,4.16598351 1.01351193,3.13194464 3.09194583,3.13194464 L5.1899645,3.13194464 L5.1899645,2.34895848 L7.1925074,2.34895848 C7.50586375,1.00421082 8.69563863,2.13162821e-14 10.1106384,2.13162821e-14 C11.5256381,2.13162821e-14 12.715413,1.00421082 13.0287694,2.34895848 L15.0337604,2.34895848 L15.0337604,3.13194464 L17.5161302,3.13194464 C19.5945641,3.13194464 20.608076,4.16598351 20.608076,6.28128898 L20.608076,12.6180066 L19.2273496,12.6180066 L19.2273496,6.28128898 Z M11.7288301,3.75833357 L11.7288301,3.05240319 C11.7288301,2.14513351 11.0041936,1.40937509 10.1130865,1.40937509 C9.22197937,1.40937509 8.49734282,2.14513351 8.49734282,3.05240319 L8.49734282,3.75833357 L6.573139,3.75833357 L6.573139,6.35834476 L13.6481378,6.35834476 L13.6481378,3.75833357 L11.7288301,3.75833357 Z M4.53206651,17.3016627 L13.7102138,17.3016627 L13.7102138,18.7268409 L4.53206651,18.7268409 L4.53206651,17.3016627 Z M4.53206651,10.2612827 L16.0760095,10.2612827 L16.0760095,11.6864608 L4.53206651,11.6864608 L4.53206651,10.2612827 Z M15.2184532,14.9159095 C15.1180285,14.9963428 15.0274013,15.0893438 14.9490211,15.192399 L4.53206651,15.192399 L4.53206651,13.7672209 L15.2209026,13.7672209 L15.2209026,14.9159095 L15.2184532,14.9159095 Z" id="Combined-Shape" fill="#FFFFFF" fill-rule="nonzero"></path>
    </g>
</svg>