<?xml version="1.0" encoding="UTF-8"?>
<svg width="12px" height="13px" viewBox="0 0 12 13" version="1.1" xmlns="http://www.w3.org/2000/svg" xmlns:xlink="http://www.w3.org/1999/xlink">
    <!-- Generator: sketchtool 59 (101010) - https://sketch.com -->
    <title>601483E4-2891-40C0-A5CE-ADA70C173E71</title>
    <desc>Created with sketchtool.</desc>
    <g id="New-UX" stroke="none" stroke-width="1" fill="none" fill-rule="evenodd">
        <g id="customer-master-archive-rules" transform="translate(-931.000000, -146.000000)" fill="#0095E6" fill-rule="nonzero">
            <g id="Group-2" transform="translate(900.000000, 50.000000)">
                <g id="Group-3" transform="translate(1.000000, 41.000000)">
                    <g id="Group-5" transform="translate(30.000000, 53.000000)">
                        <g id="schedule" transform="translate(0.000000, 2.000000)">
                            <path d="M7.94726562,6.14453125 C6.05725098,6.14453125 4.51953125,7.68225098 4.51953125,9.57226562 C4.51953125,11.4622803 6.05725098,13 7.94726562,13 C9.83728027,13 11.375,11.4622803 11.375,9.57226562 C11.375,7.68225098 9.83728027,6.14453125 7.94726562,6.14453125 Z M7.94726562,11.984375 C6.61723329,11.984375 5.53515625,10.902298 5.53515625,9.57226562 C5.53515625,8.24223329 6.61723329,7.16015625 7.94726562,7.16015625 C9.27729796,7.16015625 10.359375,8.24223329 10.359375,9.57226562 C10.359375,10.902298 9.27729796,11.984375 7.94726562,11.984375 Z M4.2173233,11.984375 L1.5234375,11.984375 C1.24344634,11.984375 1.015625,11.7565537 1.015625,11.4765625 L1.015625,2.5390625 C1.015625,2.25907134 1.24344634,2.03125 1.5234375,2.03125 L2.36132812,2.03125 L2.36132812,4.03710938 L7.43945312,4.03710938 L7.43945312,2.03125 L8.25195312,2.03125 C8.53194428,2.03125 8.75976562,2.25907134 8.75976562,2.5390625 L8.75976562,5.20359039 C9.11473847,5.26944732 9.45523071,5.37745665 9.77539062,5.52256011 L9.77539062,2.5390625 C9.77539062,1.69898986 9.09202577,1.015625 8.25195312,1.015625 L6.3368454,1.015625 C6.12717437,0.424499512 5.56243134,0 4.90039062,0 C4.23834991,0 3.67360688,0.424499512 3.46393585,1.015625 L1.5234375,1.015625 C0.683364855,1.015625 0,1.69898986 0,2.5390625 L0,11.4765625 C0,12.3166351 0.683364855,13 1.5234375,13 L5.12285615,13 C4.77175141,12.7101898 4.4659729,12.3675156 4.2173233,11.984375 Z M4.39257812,2.03125 L4.39257812,1.5234375 C4.39257812,1.24344634 4.62039947,1.015625 4.90039062,1.015625 C5.18038178,1.015625 5.40820312,1.24344634 5.40820312,1.5234375 L5.40820312,2.03125 L6.42382812,2.03125 L6.42382812,3.02148438 L3.37695312,3.02148438 L3.37695312,2.03125 L4.39257812,2.03125 Z M8.4296875,9.06445312 L9.29296875,9.06445312 L9.29296875,10.0800781 L7.4140625,10.0800781 L7.4140625,7.87109375 L8.4296875,7.87109375 L8.4296875,9.06445312 Z" id="Shape"></path>
                            <rect id="Rectangle" x="2.16666667" y="4.875" width="1.89583333" height="1" rx="0.5"></rect>
                            <rect id="Rectangle" x="2.16666667" y="6.5" width="1.89583333" height="1" rx="0.5"></rect>
                            <rect id="Rectangle" x="2.16666667" y="8.125" width="1.89583333" height="1" rx="0.5"></rect>
                            <rect id="Rectangle" x="2.16666667" y="9.75" width="1.89583333" height="1" rx="0.5"></rect>
                            <rect id="Rectangle" x="5.95833333" y="4.875" width="1.89583333" height="1" rx="0.5"></rect>
                        </g>
                    </g>
                </g>
            </g>
        </g>
    </g>
</svg>