<svg xmlns="http://www.w3.org/2000/svg" width="24" height="24" viewBox="0 0 24 24">
    <g fill="none" fill-rule="evenodd">
        <g>
            <g>
                <path d="M0 0H24V24H0z" transform="translate(-972.000000, -2320.000000) translate(972.000000, 2320.000000)"/>
                <path stroke="#777E86" stroke-linecap="round" stroke-linejoin="round" d="M18.53 19.87c1.103-1.52 1.28-3.46 1.31-4.449-1.26-1.1-3.417-1.907-5.088-1.89-.5.368-1.49 1.408-1.844 1.91-.945-.319-1.974-1.333-2.886-2.423-.91-1.09-1.723-2.28-1.859-3.254.57-.246 1.798-.999 2.261-1.412.34-1.609-.046-3.847-.902-5.276-.99-.163-3.38-.115-5.108.658-.709 2.072-.946 6.746 3.006 11.662 1.62 1.866 3.335 2.998 4.956 3.671" transform="translate(-972.000000, -2320.000000) translate(972.000000, 2320.000000)"/>
            </g>
        </g>
    </g>
</svg>
