<svg xmlns="http://www.w3.org/2000/svg" width="24" height="24" viewBox="0 0 24 24">
    <g fill="none" fill-rule="evenodd">
        <g>
            <g>
                <path d="M0 0H24V24H0z" transform="translate(-972.000000, -1640.000000) translate(972.000000, 1640.000000)"/>
                <g stroke="#719E19" stroke-linecap="round" stroke-linejoin="round">
                    <path d="M14.065 17.413c.618 0 1.117-.5 1.117-1.118V7.156L8.382.33C7.947-.11 7.237-.11 6.8.329L0 7.156v9.139c0 .617.5 1.118 1.117 1.118H9.83" transform="translate(-972.000000, -1640.000000) translate(972.000000, 1640.000000) translate(4.529835, 2.529200)"/>
                    <path d="M5.28 7.151c-.23 0-.432.027-.601.085-.228.067-.4.182-.524.34-.13.38-.1.893.054 1.494.282 1.103.765 2.218.992 2.963.26.762.262 1.153.362 1.203l.037.009c.133 0 .466-.204 1.173-.415.751-.249 1.957-.508 3.038-.922.584-.224 1.025-.493 1.268-.814.061-.192.059-.4-.018-.625-.226-.745-1.305-1.682-2.767-2.422-1.132-.573-2.228-.896-3.014-.896" transform="translate(-972.000000, -1640.000000) translate(972.000000, 1640.000000) translate(4.529835, 2.529200)"/>
                </g>
            </g>
        </g>
    </g>
</svg>
