<svg width="37" height="36" viewBox="0 0 37 36" fill="none" xmlns="http://www.w3.org/2000/svg">
    <path d="M29.24 31.521a1.865 1.865 0 0 0 1.862-1.868V14.38L19.769 2.97a1.858 1.858 0 0 0-2.638 0L5.798 14.38v15.273c0 1.031.833 1.868 1.862 1.868H22.18" stroke="#0A0A0A" stroke-width="1.671" stroke-linecap="round" stroke-linejoin="round"/>
    <path d="M14.599 14.372c-.383 0-.72.045-1.003.142a1.67 1.67 0 0 0-.873.568c-.217.635-.166 1.492.09 2.497.47 1.843 1.276 3.707 1.653 4.95.433 1.275.436 1.928.604 2.013l.062.014c.22 0 .776-.342 1.955-.694 1.251-.416 3.261-.85 5.063-1.541.972-.373 1.708-.823 2.112-1.36a1.63 1.63 0 0 0-.03-1.045c-.376-1.244-2.174-2.81-4.611-4.047-1.886-.957-3.713-1.497-5.022-1.497" stroke="#E00800" stroke-width="1.671" stroke-linecap="round" stroke-linejoin="round"/>
</svg>
