<svg xmlns="http://www.w3.org/2000/svg" width="24" height="24" viewBox="0 0 24 24">
    <g fill="none" fill-rule="evenodd">
        <g>
            <g>
                <path d="M0 0H24V24H0z" transform="translate(-972.000000, -2080.000000) translate(972.000000, 2080.000000)"/>
                <g stroke-linecap="round" stroke-linejoin="round">
                    <path stroke="#777E86" d="M6.504 13.108L1.504 13.108" transform="translate(-972.000000, -2080.000000) translate(972.000000, 2080.000000) translate(7.500200, 3.368500)"/>
                    <path stroke="#BE1218" d="M1.751.868L1.751.132 6.256.132 6.256.868M1.751.868c0 1.484-.522 2.813-1.351 3.717M7.606 4.585c-.828-.904-1.35-2.232-1.35-3.717M.4 12.647c.828.904 1.352 2.232 1.352 3.717" transform="translate(-972.000000, -2080.000000) translate(972.000000, 2080.000000) translate(7.500200, 3.368500)"/>
                    <path stroke="#BE1218" d="M6.5 13.108h-5c-.829 0-1.5-.672-1.5-1.5v-6c0-.828.671-1.5 1.5-1.5h5c.828 0 1.5.672 1.5 1.5v6c0 .828-.672 1.5-1.5 1.5zM8 7.546L8.501 7.546 8.501 5.987 8 5.987zM6.256 16.364L6.256 17.1 1.752 17.1 1.752 16.364" transform="translate(-972.000000, -2080.000000) translate(972.000000, 2080.000000) translate(7.500200, 3.368500)"/>
                </g>
            </g>
        </g>
    </g>
</svg>
