<svg xmlns="http://www.w3.org/2000/svg" width="24" height="24" viewBox="0 0 24 24">
    <g fill="none" fill-rule="evenodd">
        <g>
            <g>
                <path d="M0 0H24V24H0z" transform="translate(-972.000000, -1512.000000) translate(972.000000, 1512.000000)"/>
                <g stroke-linecap="round" stroke-linejoin="round">
                    <path stroke="#777E86" d="M14.595 17.942c.618 0 1.117-.5 1.117-1.118V7.685L8.912.858C8.477.42 7.767.42 7.33.858L.53 7.685v9.139c0 .617.5 1.118 1.117 1.118h8.713" transform="translate(-972.000000, -1512.000000) translate(972.000000, 1512.000000) translate(4.000000, 2.000000)"/>
                    <path stroke="#8BBD29" d="M5.81 7.68c-.23 0-.432.027-.601.085-.228.067-.4.182-.524.34-.13.38-.1.893.054 1.494.281 1.103.765 2.218.992 2.963.26.762.261 1.153.362 1.204l.037.008c.132 0 .466-.204 1.173-.415.75-.249 1.957-.508 3.038-.922.583-.224 1.025-.493 1.267-.813.062-.193.06-.4-.018-.626-.225-.744-1.304-1.682-2.766-2.422-1.132-.572-2.228-.895-3.014-.895" transform="translate(-972.000000, -1512.000000) translate(972.000000, 1512.000000) translate(4.000000, 2.000000)"/>
                </g>
            </g>
        </g>
    </g>
</svg>
